<ttFont>
          <CharString index="0">
            rmoveto
            -80 hlineto
            -32 0 -11 -25 -19 -27 7 6 -29 vhcurveto
            9 -36 -41 -97 callsubr
            19 26 -6 -7 30 vhcurveto
            -8 35 42 -10 40 hhcurveto
            89 3 52 91 hvcurveto
            return
          </CharString>
          <CharString index="1">
            rmoveto
            103 hlineto
            64 80 66 -80 rlineto
            104 7 hlineto
            -95 -63 callsubr
            -149 hlineto
            -93 -139 rlineto
            return
          </CharString>
          <CharString index="2">
            rmoveto
            291 7 80 272 272 -7 80 -291 -292 -7 -80 -272 -272 7 -80 292 hvcurveto
            141 vmoveto
            -119 -4 5 206 206 4 5 119 119 2 -5 -206 -206 -2 -5 -119 hvcurveto
            return
          </CharString>
          <CharString index="3">
            rmoveto
            -31 callgsubr
            58 205 206 -12 57 -229 6 callsubr
            -205 12 -58 229 hvcurveto
            125 vmoveto
            -80 0 12 126 127 0 11 80 80 0 -11 -127 -126 0 -12 -80 hvcurveto
            return
          </CharString>
          <CharString index="4">
            rmoveto
            -89 hlineto
            -37 -1 -25 -63 -63 0 25 37 vhcurveto
            -88 hlineto
            -88 17 -62 134 -72 callsubr
            vhcurveto
            return
          </CharString>
          <CharString index="5">
            -266 hlineto
            -100 callgsubr
            return
          </CharString>
          <CharString index="6">
            -128 -3 -15 -99 -99 -3 15 128 vhcurveto
            414 -174 -377 vlineto
            -250 19 -69 257 257 19 69 250 vhcurveto
            return
          </CharString>
          <CharString index="7">
            rmoveto
            142 107 21 206 67 -11 43 -18 27 hvcurveto
            -27 45 -43 11 -50 6 -146 18 rcurveline
            -55 7 -4 6 46 vvcurveto
            24 2 15 18 9 vhcurveto
            8 16 31 4 57 hhcurveto
            66 56 -5 -8 73 hvcurveto
            133 vlineto
            15 -82 -64 6 -84 hhcurveto
            -150 -113 -23 -187 -113 23 -79 141 -16 hvcurveto
            127 -16 rlineto
            57 -7 5 -6 -47 vvcurveto
            -24 -1 -17 -14 -11 vhcurveto
            -12 -15 -32 -5 -65 hhcurveto
            -54 -81 5 7 -71 hvcurveto
            -136 vlineto
            -11 73 84 -6 102 hhcurveto
            return
          </CharString>
          <CharString index="8">
            rmoveto
            236 16 84 179 hvcurveto
            453 -161 -257 vlineto
            -92 -7 -22 -68 -64 -6 5 106 vhcurveto
            260 -161 -309 vlineto
            -129 19 -69 135 66 50 17 49 28 vhcurveto
            8 -42 hlineto
            -95 -4 -13 -126 -37 -41 1 1 -61 -9 callgsubr
            vlineto
            -8 43 74 -5 61 hhcurveto
            return
          </CharString>
          <CharString index="9">
            rmoveto
            118 83 15 150 125 -40 19 -68 9 hvcurveto
            -118 14 rlineto
            -43 5 -3 4 27 vvcurveto
            34 17 2 80 35 61 -3 -5 51 -5 callgsubr
            9 -42 -76 6 -64 hhcurveto
            -122 -90 -15 -140 -91 15 -56 86 -11 hvcurveto
            119 -15 rlineto
            47 -6 5 -3 -28 vvcurveto
            -32 -5 -7 -94 -44 -71 4 4 -43 -59 callgsubr
            -8 56 85 -6 65 hhcurveto
            return
          </CharString>
          <CharString index="10">
            10 -40 hhcurveto
            -90 -3 -53 -91 hvcurveto
            81 hlineto
            32 0 11 25 return
          </CharString>
          <CharString index="11">
            rmoveto
            -138 vlineto
            -2 -22 -32 -1 -15 hhcurveto
            -126 -14 32 183 206 18 5 178 57 107 -13 -1 8 hvcurveto
            132 vlineto
            3 -10 -111 20 -115 hhcurveto
            -254 -54 -80 -272 -293 53 -59 256 69 100 10 13 69 hvcurveto
            387 -257 -132 vlineto
            return
          </CharString>
          <CharString index="12">
            rmoveto
            -18 -5 -4 -31 -8 vhcurveto
            -18 -5 rlineto
            -39 -10 -9 -11 -46 vvcurveto
            -5 85 vlineto
            16 3 5 30 8 vhcurveto
            15 5 rlineto
            47 13 24 11 60 vvcurveto
            93 -59 5 -83 -40 -55 -4 -6 -34 vhcurveto
            -75 vlineto
            3 28 50 2 26 hhcurveto
            49 16 0 -29 hvcurveto
            return
          </CharString>
          <CharString index="13">
            488 141 -314 136 266 141 -266 129 314 141 -488 hlineto
            return
          </CharString>
          <CharString index="14">
            rmoveto
            -214 vlineto
            -128 -3 -15 -99 -99 -3 15 128 vhcurveto
            214 -174 -177 vlineto
            -218 15 -81 175 -16 vhcurveto
            -196 174 196 vlineto
            174 17 14 81 217 vvcurveto
            177 vlineto
            return
          </CharString>
          <CharString index="15">
            rmoveto
            114 5 hlineto
            -91 -58 callsubr
            -155 -5 hlineto
            return
          </CharString>
          <CharString index="16">
            -90 callgsubr
            endchar
          </CharString>
          <CharString index="17">
            rmoveto
            135 12 33 85 86 -12 34 -135 -134 -11 -34 -86 -85 11 -33 134 hvcurveto
            66 vmoveto
            -60 0 11 41 42 0 11 60 62 0 -11 -42 -41 0 -11 -62 hvcurveto
            return
          </CharString>
          <CharString index="18">
            -12 callsubr
            -65 -19 callgsubr
            vhcurveto
            -9 hlineto
            -4 61 -13 callsubr
            -510 161 266 hlineto
            92 7 23 68 64 6 -6 -106 vhcurveto
            return
          </CharString>
          <CharString index="19">
            rmoveto
            -25 vlineto
            -50 -7 -15 -57 vhcurveto
            -25 hlineto
            6 -30 -38 2 -47 8 callsubr
            -205 12 -58 229 -31 callgsubr
            58 205 94 -3 63 -24 41 hvcurveto
            82 11 13 36 83 vvcurveto
            17 vlineto
            -309 -483 rmoveto
            -80 0 12 126 127 0 11 80 80 0 -11 -127 -126 0 -12 -80 hvcurveto
            return
          </CharString>
          <CharString index="20">
            rmoveto
            89 hlineto
            37 1 25 63 63 0 -25 -37 vhcurveto
            88 hlineto
            88 -17 62 -134 -134 -19 -62 -88 vhcurveto
            return
          </CharString>
          <CharString index="21">
            rmoveto
            116 vlineto
            -5 -37 -43 -3 -32 hhcurveto
            -92 -10 20 118 116 9 22 92 36 46 -4 -4 27 hvcurveto
            116 vlineto
            11 -43 -56 6 -53 hhcurveto
            -206 -15 -100 -163 -166 11 -97 211 52 59 7 10 44 hvcurveto
            endchar
          </CharString>
          <CharString index="22">
            rmoveto
            -92 -362 rlineto
            -10 hlineto
            -94 362 rlineto
            -164 hlineto
            152 -510 rlineto
            55 hlineto
            -55 -189 rlineto
            162 hlineto
            207 699 rlineto
            endchar
          </CharString>
          <CharString index="23">
            438 125 -235 hlineto
            233 267 rlineto
            118 -424 -125 221 vlineto
            -233 -267 rlineto
            return
          </CharString>
          <CharString index="24">
            219 hlineto
            158 688 rlineto
            -173 hlineto
            -96 -482 rlineto
            -6 hlineto
            -117 482 rlineto
            -178 hlineto
            -115 -482 rlineto
            -5 hlineto
            -103 482 rlineto
            -174 hlineto
            158 -688 rlineto
            220 hlineto
            103 413 rlineto
            6 hlineto
            endchar
          </CharString>
          <CharString index="25">
            -102 callgsubr
            -182 -178 -106 callsubr
            return
          </CharString>
          <CharString index="26">
            -106 262 rlineto
            81 36 11 90 76 vvcurveto
            137 -24 87 -199 vhcurveto
            -330 -688 174 241 121 hlineto
            90 -241 rlineto
            -121 379 rmoveto
            -90 169 92 hlineto
            105 6 -13 -72 -72 -9 -12 -104 hvcurveto
            endchar
          </CharString>
          <CharString index="27">
            211 -8 rmoveto
            57 57 11 57 31 hvcurveto
            8 hlineto
            4 -60 rlineto
            153 743 -161 -287 -8 hlineto
            52 -32 -50 9 -60 hhcurveto
            -119 -47 -58 -206 -205 48 -56 119 hvcurveto
            return
          </CharString>
          <CharString index="28">
            -106 callgsubr
            208 -10 -103 callsubr
            return
          </CharString>
          <CharString index="29">
            243 hlineto
            307 7 81 263 263 -7 81 -307 hvcurveto
            -243 hlineto
            173 -547 rmoveto
            406 66 vlineto
            138 3 -2 -201 -201 -2 -2 -139 hvcurveto
            return
          </CharString>
          <CharString index="30">
            rmoveto
            129 29 39 67 62 -25 18 -46 11 hvcurveto
            2 vlineto
            45 10 22 24 55 vvcurveto
            68 -36 33 -117 -37 -53 -6 -6 -34 vhcurveto
            -74 vlineto
            4 31 44 3 32 hhcurveto
            55 13 -3 -34 -33 -13 -6 -34 hvcurveto
            -65 -76 65 hlineto
            38 11 -6 -36 -36 -16 -2 -49 -27 -48 3 3 -39 hvcurveto
            -73 vlineto
            -6 35 53 -5 37 hhcurveto
            return
          </CharString>
          <CharString index="31">
            rmoveto
            191 -4 73 -213 -74 -53 -13 -29 -37 vhcurveto
            28 -36 -53 14 -78 hhcurveto
            -80 -67 -9 -8 -45 hvcurveto
            -116 vlineto
            4 36 71 4 42 hhcurveto
            109 15 -3 -74 hvcurveto
            -18 vlineto
            1 -16 -97 3 -28 hhcurveto
            -129 -33 -41 -115 -112 46 -42 134 64 70 4 45 51 hvcurveto
            -34 34 59 -15 102 hhcurveto
            -41 callsubr
            42 hvcurveto
            115 vlineto
            -5 -50 -64 -3 -38 hhcurveto
            -126 -7 10 89 hvcurveto
            305 hlineto
            -226 185 rmoveto
            61 14 -8 -95 hvcurveto
            -154 hlineto
            91 1 9 12 69 hhcurveto
            -241 -203 rmoveto
            -22 -2 -16 -5 -15 vhcurveto
            -26 -10 -22 -10 -41 hhcurveto
            -63 -8 10 42 50 9 6 51 hvcurveto
            91 hlineto
            endchar
          </CharString>
          <CharString index="32">
            12 callsubr
            118 117 7 9 71 41 19 -8 -28 9 hvcurveto
            7 -21 1 -29 -40 vvcurveto
            -41 -1 -29 -8 -23 vhcurveto
            -26 -9 -18 -8 -41 hhcurveto
            return
          </CharString>
          <CharString index="33">
            -91 -141 rlineto
            return
          </CharString>
          <CharString index="34">
            rmoveto
            114 hlineto
            87 -23 callsubr
            -156 vlineto
            -45 -141 rlineto
            return
          </CharString>
          <CharString index="35">
            134 19 62 88 return
          </CharString>
          <CharString index="36">
            17 325 -8 -100 callsubr
            return
          </CharString>
          <CharString index="37">
            rmoveto
            5 vlineto
            -91 -58 callsubr
            -155 -5 hlineto
            132 -141 rlineto
            return
          </CharString>
          <CharString index="38">
            rmoveto
            163 510 -163 hlineto
            return
          </CharString>
          <CharString index="39">
            rmoveto
            56 96 rlineto
            -136 hlineto
            -32 -54 rlineto
            5 -34 -41 2 -48 9 callsubr
            -154 2 -93 56 -51 hvcurveto
            -58 -101 rlineto
            135 hlineto
            32 55 rlineto
            -5 36 43 -3 53 hhcurveto
            291 7 80 272 159 -2 94 -61 50 hvcurveto
            -235 -514 -29 callgsubr
          </CharString>
          <CharString index="40">
            rmoveto
            83 44 16 48 23 hvcurveto
            13 29 5 43 59 vvcurveto
            53 -3 39 -9 31 vhcurveto
            60 -17 -44 11 -90 -19 callsubr
            -27 -39 -94 -95 43 -18 81 58 19 18 8 9 hvcurveto
            3 hlineto
            -79 -10 -12 -75 -21 -43 3 4 -41 vhcurveto
            -73 vlineto
            -7 39 53 -5 32 hhcurveto
            8 220 rmoveto
            -48 -10 4 43 41 11 3 47 43 13 -2 -47 -32 -4 -10 -52 hvcurveto
            endchar
          </CharString>
          <CharString index="41">
            rmoveto
            124 28 37 95 95 -43 17 -81 -58 -20 -17 -9 -7 hvcurveto
            -4 hlineto
            80 10 12 74 22 42 -3 -4 42 vhcurveto
            73 vlineto
            8 -43 -51 5 -30 hhcurveto
            -90 -44 -19 -56 -20 hvcurveto
            -11 -29 -3 -40 -52 vvcurveto
            -60 4 -42 7 -23 vhcurveto
            -60 22 45 -8 85 hhcurveto
            -4 76 rmoveto
            -43 -12 2 48 31 4 11 51 49 10 -4 -43 -42 -11 -3 -48 hvcurveto
            endchar
          </CharString>
          <CharString index="42">
            -89 136 235 rmoveto
            144 29 hlineto
            55 3 0 45 15 vhcurveto
            33 11 rlineto
            56 20 41 28 115 vvcurveto
            158 -82 30 -134 -64 -86 -8 -11 -56 vhcurveto
            -130 vlineto
            6 40 76 5 40 hhcurveto
            72 23 -2 -57 -50 -7 -6 -42 -13 hvcurveto
            -32 -11 rlineto
            -46 -16 -24 -22 -80 vvcurveto
            -13 -301 -47 callgsubr
            endchar
          </CharString>
          <CharString index="43">
            rmoveto
            12 0 6 4 9 vhcurveto
            2 7 8 4 11 4 29 10 40 16 29 11 rrcurveto
            40 14 23 28 69 vvcurveto
            96 -64 12 -76 -44 -56 -6 -7 -37 vhcurveto
            -74 vlineto
            5 42 45 3 25 hhcurveto
            49 13 -3 -31 -26 -4 -5 -30 -12 hvcurveto
            -28 -10 -29 -12 -31 -12 rrcurveto
            -58 -25 -2 -33 -83 vvcurveto
            -54 285 80 -186 vlineto
            endchar
          </CharString>
          <CharString index="44">
            139 rlineto
            return
          </CharString>
          <CharString index="45">
            243 hlineto
            307 7 81 263 263 -7 81 -307 hvcurveto
            -243 hlineto
            655 -688 rmoveto
            -79 callgsubr
            -482 5 rmoveto
            406 66 vlineto
            138 3 -2 -201 -201 -2 -2 -139 hvcurveto
            endchar
          </CharString>
          <CharString index="46">
            3 callgsubr
            105 -162 -140 60 -16 vlineto
            return
          </CharString>
          <CharString index="47">
            46 rmoveto
            32 50 rlineto
            -83 52 -55 91 105 vvcurveto
            104 56 92 82 51 vhcurveto
            -32 51 rlineto
            -99 -62 -67 -111 -125 vvcurveto
            -126 67 -110 99 -62 vhcurveto
            return
          </CharString>
          <CharString index="48">
            -58 callgsubr
            endchar
          </CharString>
          <CharString index="49">
            141 rlineto
            return
          </CharString>
          <CharString index="50">
            -79 rmoveto
            -8 callsubr
            hvcurveto
            115 vlineto
            -5 -51 -63 -3 -39 -19 callsubr
            -64 callgsubr
            39 hlineto
            191 -5 73 -221 vhcurveto
            -1 -117 -6 callsubr
          </CharString>
          <CharString index="51">
            16 8 6 21 8 vhcurveto
            34 12 24 8 27 10 rrcurveto
            40 16 24 29 68 vvcurveto
            99 -63 11 -75 -43 -58 -5 -8 -36 vhcurveto
            -85 vlineto
            5 38 48 4 26 hhcurveto
            44 11 -2 -24 -22 -4 -4 -27 -11 hvcurveto
            -36 -14 -28 -11 -29 -13 rrcurveto
            -47 -21 -3 -34 -79 vvcurveto
            -58 282 return
          </CharString>
          <CharString index="52">
            119 hlineto
            11 106 22 250 57 vvcurveto
            40 -186 -40 vlineto
            -57 23 -250 11 -106 vhcurveto
            return
          </CharString>
          <CharString index="53">
            -15 callsubr
            -280 -66 -119 66 hlineto
            239 -148 rmoveto
            -66 148 88 119 -88 139 66 hlineto
            138 3 -2 -201 -201 -2 -2 -139 hvcurveto
            endchar
          </CharString>
          <CharString index="54">
            764 rmoveto
            131 111 -131 hlineto
            return
          </CharString>
          <CharString index="55">
            76 534 262 rmoveto
            81 36 11 90 76 vvcurveto
            137 -24 87 -199 vhcurveto
            -330 -688 174 241 121 hlineto
            90 -241 rlineto
            182 hlineto
            -303 379 rmoveto
            -90 169 92 hlineto
            105 6 -13 -72 -72 -9 -12 -104 hvcurveto
            return
          </CharString>
          <CharString index="56">
            rmoveto
            165 132 -165 hlineto
            return
          </CharString>
          <CharString index="57">
            rmoveto
            145 10 23 171 171 -11 24 -144 -144 -11 -24 -171 -171 11 -23 144 hvcurveto
            78 vmoveto
            -51 -1 2 114 114 1 2 51 52 0 -2 -114 -114 0 -2 -52 hvcurveto
            endchar
          </CharString>
          <CharString index="58">
            742 -73 callsubr
            return
          </CharString>
          <CharString index="59">
            611 -51 callsubr
            return
          </CharString>
          <CharString index="60">
            -14 367 510 rmoveto
            -266 vlineto
            -92 -7 -23 -68 -64 -6 6 106 vhcurveto
            269 -161 -699 161 185 2 vlineto
            74 39 25 40 25 hvcurveto
            9 hlineto
            4 -61 rlineto
            153 510 hlineto
            endchar
          </CharString>
          <CharString index="61">
            142 rmoveto
            -129 vlineto
            -12 63 93 -9 66 hhcurveto
            227 52 72 162 132 -43 75 -173 -38 -53 -3 -4 -35 hvcurveto
            122 291 140 -442 -402 vlineto
            7 59 78 4 53 hhcurveto
            return
          </CharString>
          <CharString index="62">
            81 hlineto
            32 0 11 25 19 27 -7 -6 29 vhcurveto
            -9 36 42 -10 40 hhcurveto
            89 3 53 91 hvcurveto
            -80 hlineto
            -33 0 -10 -25 -20 -26 6 7 -29 vhcurveto
            8 -36 -42 10 -40 hhcurveto
            -90 -3 -52 -91 hvcurveto
            return
          </CharString>
          <CharString index="63">
            rmoveto
            109 hlineto
            47 205 rlineto
            55 -143 -55 vlineto
            return
          </CharString>
          <CharString index="64">
            -52 callgsubr
            -268 -220 268 -174 -688 174 270 220 hlineto
            return
          </CharString>
          <CharString index="65">
            -80 0 12 126 127 0 11 80 80 0 -11 -127 -126 0 -12 -80 hvcurveto
            endchar
          </CharString>
          <CharString index="66">
            68 80 7 11 return
          </CharString>
          <CharString index="67">
            83 vlineto
            -1 -7 -6 0 -3 hhcurveto
            -38 -9 14 20 29 37 37 25 15 hvcurveto
            -131 hlineto
            -36 -34 -26 -42 -39 vvcurveto
            -46 26 -39 100 22 27 2 1 19 vhcurveto
            endchar
          </CharString>
          <CharString index="68">
            83 485 hmoveto
            196 hlineto
            -252 362 249 326 rlineto
            -191 hlineto
            -197 -268 rlineto
            -43 268 -174 -688 174 280 43 hlineto
            return
          </CharString>
          <CharString index="69">
            -74 callgsubr
            endchar
          </CharString>
          <CharString index="70">
            -47 callgsubr
            -8 -688 rmoveto
            186 40 hlineto
            57 -22 250 -11 106 vhcurveto
            -120 hlineto
            -11 -106 -22 -250 -57 vvcurveto
            endchar
          </CharString>
          <CharString index="71">
            174 688 return
          </CharString>
          <CharString index="72">
            -202 13 -61 228 hvcurveto
            125 vmoveto
            -80 0 11 127 126 0 12 80 80 1 -18 -120 -127 -1 -11 -80 hvcurveto
            endchar
          </CharString>
          <CharString index="73">
            rmoveto
            103 hlineto
            -104 205 104 206 rlineto
            -103 hlineto
            -131 -206 rlineto
            return
          </CharString>
          <CharString index="74">
            rmoveto
            32 51 rlineto
            -14 9 -10 16 20 vvcurveto
            20 10 16 15 9 vhcurveto
            -32 51 rlineto
            -32 -20 -21 -35 -41 vvcurveto
            -42 21 -34 31 -20 vhcurveto
            return
          </CharString>
          <CharString index="75">
            161 319 return
          </CharString>
          <CharString index="76">
            31 20 21 34 42 vvcurveto
            41 -21 35 -32 20 vhcurveto
            -32 -51 rlineto
            15 -9 10 -16 -20 vvcurveto
            -20 -10 -16 -14 -9 vhcurveto
            endchar
          </CharString>
          <CharString index="77">
            134 9 rlineto
            98 vlineto
            -134 10 -9 149 rlineto
            -96 hlineto
            -10 -149 -133 -10 rlineto
            -98 vlineto
            133 -9 rlineto
            return
          </CharString>
          <CharString index="78">
            rmoveto
            -116 -4 4 210 210 4 4 116 117 4 -4 -210 -210 -4 -4 -117 hvcurveto
            endchar
          </CharString>
          <CharString index="79">
            111 hlineto
            136 307 rlineto
            73 -284 -80 177 vlineto
            return
          </CharString>
          <CharString index="80">
            vmoveto
            -227 -4 7 283 282 4 8 227 228 3 -8 -282 -283 -3 -7 -228 hvcurveto
            return
          </CharString>
          <CharString index="81">
            67 45 89 -45 86 -67 hlineto
            -32 -86 rlineto
            -69 hlineto
            130 220 rlineto
            -118 hlineto
            -125 -234 rlineto
            -75 return
          </CharString>
          <CharString index="82">
            rmoveto
            -66 vlineto
            158 21 38 148 hvcurveto
            111 -171 -148 62 -16 vlineto
            -54 -12 -13 -58 vhcurveto
            endchar
          </CharString>
          <CharString index="83">
            -83 vlineto
            -7 36 52 -6 37 hhcurveto
            129 27 43 67 51 return
          </CharString>
          <CharString index="84">
            -58 callsubr
            5 return
          </CharString>
          <CharString index="85">
            123 8 29 139 139 -8 29 -123 -123 -9 -29 -139 -139 9 -29 123 hvcurveto
            return
          </CharString>
          <CharString index="86">
            -9 -88 hvcurveto
            -284 vmoveto
            -89 -22 7 72 74 20 8 91 90 20 -8 -74 -72 -22 -7 -88 hvcurveto
            endchar
          </CharString>
          <CharString index="87">
            rmoveto
            109 hlineto
            17 205 rlineto
            55 -143 -55 vlineto
            return
          </CharString>
          <CharString index="88">
            hhcurveto
            -125 return
          </CharString>
          <CharString index="89">
            19 26 47 vvcurveto
            67 -37 37 -115 return
          </CharString>
          <CharString index="90">
            742 rmoveto
            95 -63 callsubr
            7 -104 vlineto
            -64 -80 -66 80 rlineto
            -103 -7 hlineto
            93 -139 rlineto
            return
          </CharString>
          <CharString index="91">
            -286 -8 -76 -276 -276 8 -76 286 return
          </CharString>
          <CharString index="92">
            82 73 hmoveto
            243 hlineto
            307 7 81 263 263 -7 81 -307 hvcurveto
            -243 return
          </CharString>
          <CharString index="93">
            -18 callsubr
            -37 -51 -5 -8 -36 vhcurveto
            -84 vlineto
            5 41 41 3 return
          </CharString>
          <CharString index="94">
            rlineto
            -153 return
          </CharString>
          <CharString index="95">
            -7 callsubr
            -19 71 -135 return
          </CharString>
          <CharString index="96">
            -73 -185 rlineto
            -5 146 vlineto
            return
          </CharString>
          <CharString index="97">
            -190 rmoveto
            146 hlineto
            36 193 rlineto
            5 -106 vlineto
            -76 -193 rlineto
            endchar
          </CharString>
          <CharString index="98">
            -51 -1 12 67 67 1 12 51 50 1 -12 -67 -67 -1 -12 -50 hvcurveto
            return
          </CharString>
          <CharString index="99">
            -221 -18 -78 -186 -189 16 -73 238 -41 callsubr
            43 return
          </CharString>
          <CharString index="100">
            -32 callsubr
            hlineto
            128 return
          </CharString>
          <CharString index="101">
            rmoveto
            62 14 -8 -95 hvcurveto
            -154 hlineto
            91 9 12 69 vhcurveto
            endchar
          </CharString>
          <CharString index="102">
            -11 -13 -56 vhcurveto
            return
          </CharString>
          <CharString index="103">
            103 380 -72 hlineto
            -103 -52 rlineto
            -80 vlineto
            72 30 rlineto
            endchar
          </CharString>
          <CharString index="104">
            -38 -1 628 rmoveto
            567 60 -567 hlineto
            -688 vmoveto
            return
          </CharString>
          <CharString index="105">
            -61 -151 vvcurveto
            -96 502 140 -335 vlineto
            endchar
          </CharString>
          <CharString index="106">
            vhcurveto
            417 vmoveto
            -90 -15 9 67 68 14 10 91 90 return
          </CharString>
          <CharString index="107">
            -394 33 268 rmoveto
            109 hlineto
            34 248 rlineto
            return
          </CharString>
          <CharString index="108">
            hvcurveto
            6 hlineto
            -148 -17 -24 -137 -39 -76 5 8 return
          </CharString>
          <CharString index="109">
            7 88 79 25 -3 -92 -54 -8 -21 -96 hvcurveto
            endchar
          </CharString>
          <CharString index="110">
            rmoveto
            -275 -133 275 hlineto
            return
          </CharString>
          <CharString index="111">
            285 142 -285 143 return
          </CharString>
          <CharString index="112">
            -282 -13 -47 -305 -306 13 -46 282 return
          </CharString>
          <CharString index="113">
            -229 -12 -57 -206 return
          </CharString>
          <CharString index="114">
            90 19 -8 -79 -76 -20 -7 -89 hvcurveto
            endchar
          </CharString>
          <CharString index="115">
            hhcurveto
            6 callsubr
            return
          </CharString>
          <CharString index="116">
            hhcurveto
            -292 -7 -80 -272 return
          </CharString>
          <CharString index="117">
            -48 -66 -172 -170 75 -34 147 return
          </CharString>
          <CharString index="118">
            285 -8 rmoveto
            -31 callgsubr
            59 210 return
          </CharString>
          <CharString index="119">
            rmoveto
            -71 -7 9 return
          </CharString>
        <CharString name=".notdef">
          -103 0 vmoveto
          500 700 -500 hlineto
          450 -50 rmoveto
          -600 -400 600 vlineto
          179 -435 rmoveto
          53 53 hlineto
          33 21 18 23 19 vhcurveto
          30 26 37 36 67 vvcurveto
          12 -3 123 -140 -140 -11 -124 -23 -14 3 -13 1 -4 vhcurveto
          49 28 hlineto
          23 8 77 90 77 12 -59 -28 -51 -28 -24 -28 -23 vhcurveto
          -28 -23 -26 -23 -43 vvcurveto
          -4 -179 rmoveto
          60 70 -60 hlineto
          endchar
        </CharString>
        <CharString name="A">
          89 507 hmoveto
          -103 callgsubr
          endchar
        </CharString>
        <CharString name="A.ss01">
          84 445 hmoveto
          -105 callgsubr
          endchar
        </CharString>
        <CharString name="AE">
          377 482 hmoveto
          -55 callgsubr
        </CharString>
        <CharString name="AEacute">
          377 427 -75 callgsubr
          55 -747 rmoveto
          -55 callgsubr
        </CharString>
        <CharString name="Aacute">
          84 254 750 -102 callgsubr
          253 -755 rmoveto
          -103 callgsubr
          endchar
        </CharString>
        <CharString name="Aacute.ss01">
          84 284 750 -102 callgsubr
          161 -755 rmoveto
          -105 callgsubr
          endchar
        </CharString>
        <CharString name="Abreve">
          89 499 888 -103 callsubr
          8 -888 rmoveto
          -103 callgsubr
          endchar
        </CharString>
        <CharString name="Abreve.ss01">
          84 496 888 -103 callsubr
          -51 -888 rmoveto
          -105 callgsubr
          endchar
        </CharString>
        <CharString name="Acircumflex">
          84 175 750 -106 callsubr
          332 -757 rmoveto
          -103 callgsubr
          endchar
        </CharString>
        <CharString name="Acircumflex.ss01">
          84 176 750 -106 callsubr
          269 -757 rmoveto
          -105 callgsubr
          endchar
        </CharString>
        <CharString name="Adieresis">
          84 174 777 -92 callgsubr
          127 -888 rmoveto
          -103 callgsubr
          endchar
        </CharString>
        <CharString name="Adieresis.ss01">
          84 179 777 -92 callgsubr
          60 -888 rmoveto
          -105 callgsubr
          endchar
        </CharString>
        <CharString name="Agrave">
          84 306 750 -92 callsubr
          333 -891 rmoveto
          -103 callgsubr
          endchar
        </CharString>
        <CharString name="Agrave.ss01">
          84 296 749 -92 callsubr
          281 -890 rmoveto
          -105 callgsubr
          endchar
        </CharString>
        <CharString name="Amacron">
          89 210 755 -69 callgsubr
          297 -888 rmoveto
          -103 callgsubr
          endchar
        </CharString>
        <CharString name="Amacron.ss01">
          84 207 755 -69 callgsubr
          238 -888 rmoveto
          -105 callgsubr
          endchar
        </CharString>
        <CharString name="Aogonek">
          84 575 -77 rmoveto
          27 32 33 25 17 vhcurveto
          47 hlineto
          -217 688 rlineto
          -238 hlineto
          -216 -688 rlineto
          172 hlineto
          40 131 rlineto
          242 hlineto
          41 -130 rlineto
          -35 -34 -24 -40 -38 vvcurveto
          -46 27 -39 100 -17 callgsubr
          -7 -7 0 -3 hhcurveto
          -38 -9 14 20 hvcurveto
          -319 343 rmoveto
          81 267 rlineto
          7 hlineto
          81 -267 rlineto
          endchar
        </CharString>
        <CharString name="Aogonek.ss01">
          84 573 hmoveto
          46 377 hlineto
          249 -19 70 -257 -257 -19 -70 -249 vhcurveto
          -377 174 185 204 -184 vlineto
          -34 -33 -25 -41 -38 vvcurveto
          -46 26 -39 100 22 27 2 1 19 vhcurveto
          83 vlineto
          -1 -7 -6 0 -3 hhcurveto
          -38 -9 14 20 27 31 33 25 17 hvcurveto
          -332 327 rmoveto
          87 vlineto
          -83 callgsubr
          -87 vlineto
          endchar
        </CharString>
        <CharString name="Aring">
          89 466 687 -66 callgsubr
        </CharString>
        <CharString name="Aring.ss01">
          84 346 731 -90 callsubr
          99 -797 rmoveto
          -105 callgsubr
          endchar
        </CharString>
        <CharString name="Aringacute">
          89 528 1110 rmoveto
          -93 callgsubr
          -5 114 vlineto
          70 -282 -66 callgsubr
        </CharString>
        <CharString name="Aringacute.ss01">
          84 283 970 -102 callgsubr
          59 -267 -90 callsubr
          103 -774 rmoveto
          -105 callgsubr
          endchar
        </CharString>
        <CharString name="Atilde">
          84 538 905 -107 callsubr
          -31 -905 rmoveto
          -103 callgsubr
          endchar
        </CharString>
        <CharString name="Atilde.ss01">
          84 541 904 -107 callsubr
          -96 -904 rmoveto
          -105 callgsubr
          endchar
        </CharString>
        <CharString name="B">
          74 73 hmoveto
          345 hlineto
          154 54 67 116 108 -39 39 -87 19 hvcurveto
          4 vlineto
          82 18 38 45 99 vvcurveto
          116 -66 57 -135 vhcurveto
          -346 hlineto
          283 -274 rmoveto
          -110 134 110 hlineto
          75 12 -11 -56 -54 -15 -13 -72 hvcurveto
          5 -274 rmoveto
          -115 141 115 hlineto
          74 14 -12 -60 -58 -15 -11 -73 hvcurveto
          endchar
        </CharString>
        <CharString name="C">
          -29 531 9 -86 callgsubr
        </CharString>
        <CharString name="Cacute">
          -29 224 -75 callgsubr
          307 -738 -86 callgsubr
        </CharString>
        <CharString name="Cacute.loclPLK">
          -29 224 -49 callsubr
          307 -738 -86 callgsubr
        </CharString>
        <CharString name="Ccaron">
          -29 212 742 -98 callgsubr
          412 -872 -86 callgsubr
        </CharString>
        <CharString name="Ccedilla">
          -29 392 133 rmoveto
          -155 -6 17 194 194 6 17 155 26 48 -4 -6 61 hvcurveto
          132 vlineto
          11 -44 -74 8 -60 hhcurveto
          -260 -34 -90 -262 -220 23 -97 154 -27 hvcurveto
          -11 callsubr
          34 182 rlineto
          10 hlineto
          60 76 7 10 46 hvcurveto
          134 vlineto
          -6 -39 -57 -4 -43 hhcurveto
          endchar
        </CharString>
        <CharString name="Ccircumflex">
          -29 119 742 -106 callsubr
          412 -740 -86 callgsubr
        </CharString>
        <CharString name="Cdotaccent">
          -29 221 -53 callsubr
          310 -866 -86 callgsubr
        </CharString>
        <CharString name="D">
          82 73 hmoveto
          -78 callsubr
          endchar
        </CharString>
        <CharString name="Dcaron">
          82 268 742 -98 callgsubr
          -102 -881 rmoveto
          -78 callsubr
          endchar
        </CharString>
        <CharString name="Dcroat">
          -54 callsubr
        </CharString>
        <CharString name="E">
          12 73 hmoveto
          -94 callsubr
          endchar
        </CharString>
        <CharString name="Eacute">
          0 252 750 -102 callgsubr
          -179 -755 rmoveto
          -94 callsubr
          endchar
        </CharString>
        <CharString name="Ebreve">
          12 460 888 -103 callsubr
          -387 -888 rmoveto
          -94 callsubr
          endchar
        </CharString>
        <CharString name="Ecaron">
          12 233 742 -98 callgsubr
          -67 -881 rmoveto
          -94 callsubr
          endchar
        </CharString>
        <CharString name="Ecircumflex">
          0 140 750 -106 callsubr
          -67 -757 rmoveto
          -94 callsubr
          endchar
        </CharString>
        <CharString name="Edieresis">
          0 144 763 -92 callgsubr
          -277 -874 rmoveto
          -94 callsubr
          endchar
        </CharString>
        <CharString name="Edotaccent">
          12 242 -53 callsubr
          -169 -875 rmoveto
          -94 callsubr
          endchar
        </CharString>
        <CharString name="Egrave">
          0 279 750 -92 callsubr
          -74 -891 rmoveto
          -94 callsubr
          endchar
        </CharString>
        <CharString name="Emacron">
          12 171 755 -69 callgsubr
          -98 -888 rmoveto
          -94 callsubr
          endchar
        </CharString>
        <CharString name="Eng">
          111 476 688 rmoveto
          -357 -5 vlineto
          -221 357 rlineto
          -179 -688 166 393 5 hlineto
          234 -385 rlineto
          -40 vlineto
          -38 -4 -14 -77 -59 callgsubr
          203 45 18 187 hvcurveto
          683 vlineto
          endchar
        </CharString>
        <CharString name="Eogonek">
          0 475 -196 rmoveto
          25 32 2 1 11 hvcurveto
          -10 callgsubr
          -36 -10 15 16 33 41 31 31 16 hvcurveto
          138 -306 141 259 136 -259 135 306 138 -480 -688 348 vlineto
          -45 -37 -26 -37 -40 vvcurveto
          -42 28 -40 99 vhcurveto
          endchar
        </CharString>
        <CharString name="Eth">
          -54 callsubr
        </CharString>
        <CharString name="Euro">
          5 389 -8 rmoveto
          81 74 10 5 21 hvcurveto
          129 vlineto
          -2 -18 -56 -6 -60 hhcurveto
          -115 -31 9 88 -8 hvcurveto
          235 86 -238 67 238 85 -235 hlineto
          88 8 32 9 114 hhcurveto
          42 66 -6 -3 22 hvcurveto
          127 vlineto
          6 -19 -71 12 -82 hhcurveto
          -209 -59 -64 -169 -14 hvcurveto
          -75 -85 71 -67 -71 -86 75 hlineto
          -177 14 58 -56 210 hhcurveto
          endchar
        </CharString>
        <CharString name="F">
          -26 73 hmoveto
          174 255 256 141 -256 151 294 141 -468 hlineto
          endchar
        </CharString>
        <CharString name="G">
          66 440 270 -96 callsubr
          endchar
        </CharString>
        <CharString name="G.ss01">
          79 363 -8 -95 callgsubr
          endchar
        </CharString>
        <CharString name="G_tilde.loclGUA">
          66 528 888 -107 callsubr
          -88 -618 -96 callsubr
          endchar
        </CharString>
        <CharString name="Gbreve">
          66 486 888 -103 callsubr
          -46 -618 -96 callsubr
          endchar
        </CharString>
        <CharString name="Gbreve.ss01">
          79 493 888 -103 callsubr
          -130 -896 -95 callgsubr
          endchar
        </CharString>
        <CharString name="Gcaron">
          66 259 742 -98 callgsubr
          274 -611 -96 callsubr
          endchar
        </CharString>
        <CharString name="Gcaron.ss01">
          79 266 742 -98 callgsubr
          190 -889 -95 callgsubr
          endchar
        </CharString>
        <CharString name="Gcircumflex">
          66 166 742 -106 callsubr
          274 -479 -96 callsubr
          endchar
        </CharString>
        <CharString name="Gcircumflex.ss01">
          79 173 742 -106 callsubr
          190 -757 -95 callgsubr
          endchar
        </CharString>
        <CharString name="Gcommaaccent">
          66 440 270 -96 callsubr
          -96 -497 -87 callgsubr
        </CharString>
        <CharString name="Gcommaaccent.ss01">
          79 363 -8 -95 callgsubr
          -107 -219 -87 callgsubr
        </CharString>
        <CharString name="Gdotaccent">
          66 268 -53 callsubr
          172 -605 -96 callsubr
          endchar
        </CharString>
        <CharString name="Gdotaccent.ss01">
          79 275 -53 callsubr
          88 -883 -95 callgsubr
          endchar
        </CharString>
        <CharString name="Gtilde.loclGUA.ss01">
          79 535 888 -107 callsubr
          -172 -896 -95 callgsubr
          endchar
        </CharString>
        <CharString name="H">
          107 465 hmoveto
          -43 callsubr
          endchar
        </CharString>
        <CharString name="Hbar">
          107 465 688 rmoveto
          -97 -220 97 -174 -688 174 230 220 -230 -36 callsubr
          vlineto
          -394 -308 rmoveto
          93 220 -93 vlineto
          endchar
        </CharString>
        <CharString name="Hcircumflex">
          107 187 742 -106 callsubr
          278 -749 rmoveto
          -43 callsubr
          endchar
        </CharString>
        <CharString name="I">
          -287 71 hmoveto
          -59 callsubr
        </CharString>
        <CharString name="IJ">
          117 71 hmoveto
          -58 callgsubr
          268 -558 -73 callgsubr
        </CharString>
        <CharString name="Iacute">
          -287 74 749 -102 callgsubr
          -3 -754 -61 callgsubr
        </CharString>
        <CharString name="Iacute_J.loclNLD">
          117 95 -75 callgsubr
          407 -5 -102 callgsubr
          -431 -747 rmoveto
          -58 callgsubr
          268 -558 -73 callgsubr
        </CharString>
        <CharString name="Ibreve">
          -287 310 888 -103 callsubr
          -239 -13 callgsubr
        </CharString>
        <CharString name="Icircumflex">
          -287 -10 750 -106 callsubr
          81 -757 -61 callgsubr
        </CharString>
        <CharString name="Idieresis">
          -287 -10 777 -92 callgsubr
          -125 -13 callgsubr
        </CharString>
        <CharString name="Idotaccent">
          -287 92 -53 callsubr
          -21 -875 -61 callgsubr
        </CharString>
        <CharString name="Igrave">
          -287 132 750 -92 callsubr
          71 -891 -61 callgsubr
        </CharString>
        <CharString name="Imacron">
          -287 21 755 -69 callgsubr
          50 -13 callgsubr
        </CharString>
        <CharString name="Iogonek">
          -287 178 -196 rmoveto
          26 32 2 1 10 hvcurveto
          83 vlineto
          -1 -4 -8 0 -5 hhcurveto
          -37 -10 14 19 31 38 33 25 14 hvcurveto
          688 -174 -688 42 vlineto
          -35 -33 -26 -39 -40 vvcurveto
          -45 26 -39 100 vhcurveto
          endchar
        </CharString>
        <CharString name="Itilde">
          -287 352 888 -107 callsubr
          -281 -13 callgsubr
        </CharString>
        <CharString name="J">
          -199 23 130 -73 callgsubr
        </CharString>
        <CharString name="Jcircumflex">
          -199 81 742 -106 callsubr
          -58 -619 -73 callgsubr
        </CharString>
        <CharString name="K">
          -39 callsubr
          endchar
        </CharString>
        <CharString name="Kcommaaccent">
          -39 callsubr
          -32 -507 -87 callgsubr
        </CharString>
        <CharString name="L">
          -60 73 hmoveto
          2 callgsubr
        </CharString>
        <CharString name="Lacute">
          -60 196 -75 callgsubr
          -123 -747 -2 callgsubr
        </CharString>
        <CharString name="Lcaron">
          -60 523 567 -44 callsubr
          -463 -772 -2 callgsubr
        </CharString>
        <CharString name="Lcommaaccent">
          -60 73 hmoveto
          -51 callgsubr
          115 -915 -87 callgsubr
        </CharString>
        <CharString name="Ldot">
          -60 73 hmoveto
          -51 callgsubr
          271 -381 -89 callgsubr
        </CharString>
        <CharString name="Lslash">
          -69 247 148 rmoveto
          179 vlineto
          147 55 rlineto
          119 vlineto
          -147 -55 rlineto
          242 -174 -307 vlineto
          -58 -22 rlineto
          -119 vlineto
          58 22 rlineto
          -262 447 148 vlineto
          endchar
        </CharString>
        <CharString name="M">
          294 659 hmoveto
          167 688 -238 hlineto
          -135 -397 rlineto
          -7 hlineto
          -136 397 rlineto
          -239 -688 162 438 7 hlineto
          147 -438 rlineto
          118 hlineto
          147 438 rlineto
          7 hlineto
          endchar
        </CharString>
        <CharString name="N">
          111 480 hmoveto
          -82 callgsubr
          endchar
        </CharString>
        <CharString name="Nacute">
          111 294 -75 callgsubr
          186 -747 rmoveto
          -82 callgsubr
          endchar
        </CharString>
        <CharString name="Nacute.loclPLK">
          111 294 -49 callsubr
          186 -747 rmoveto
          -82 callgsubr
          endchar
        </CharString>
        <CharString name="Ncaron">
          111 282 742 -98 callgsubr
          291 -881 rmoveto
          -82 callgsubr
          endchar
        </CharString>
        <CharString name="Ncommaaccent">
          111 480 hmoveto
          -82 callgsubr
          30 -620 -87 callgsubr
        </CharString>
        <CharString name="Ntilde">
          111 551 906 -107 callsubr
          -71 -906 rmoveto
          -82 callgsubr
          endchar
        </CharString>
        <CharString name="O">
          104 354 -8 -105 callsubr
          endchar
        </CharString>
        <CharString name="OE">
          407 354 hmoveto
          602 141 -256 hlineto
          -25 -28 -3 -5 -18 hvcurveto
          16 38 5 48 2 58 rrcurveto
          256 141 -257 hlineto
          -2 54 -5 45 -15 38 rrcurveto
          -5 18 30 -3 23 hhcurveto
          256 141 -602 hlineto
          -292 -7 -78 -266 -266 7 -78 292 hvcurveto
          141 vmoveto
          -119 -4 5 198 198 4 5 119 119 2 -5 -198 -198 -2 -5 -119 hvcurveto
          endchar
        </CharString>
        <CharString name="Oacute">
          97 280 750 -102 callgsubr
          74 -763 -105 callsubr
          endchar
        </CharString>
        <CharString name="Oacute.loclPLK">
          104 291 -49 callsubr
          63 -755 -105 callsubr
          endchar
        </CharString>
        <CharString name="Obreve">
          104 506 888 -103 callsubr
          -152 -896 -105 callsubr
          endchar
        </CharString>
        <CharString name="Ocircumflex">
          97 181 750 -106 callsubr
          173 -765 -105 callsubr
          endchar
        </CharString>
        <CharString name="Odieresis">
          97 182 777 -92 callgsubr
          -34 -896 -105 callsubr
          endchar
        </CharString>
        <CharString name="Ograve">
          97 303 750 -92 callsubr
          183 -899 -105 callsubr
          endchar
        </CharString>
        <CharString name="Ohorn">
          104 619 778 -91 callsubr
        </CharString>
        <CharString name="Ohungarumlaut">
          104 211 754 -80 callgsubr
          -46 -767 -105 callsubr
          endchar
        </CharString>
        <CharString name="Omacron">
          104 217 755 -69 callgsubr
          137 -896 -105 callsubr
          endchar
        </CharString>
        <CharString name="Oslash">
          97 589 647 -68 callsubr
        </CharString>
        <CharString name="Oslash.bold">
          92 587 648 rmoveto
          54 95 rlineto
          -135 hlineto
          -30 -54 rlineto
          5 -34 -40 2 -48 9 callsubr
          -154 2 -93 55 -51 hvcurveto
          -57 -101 rlineto
          133 hlineto
          32 56 rlineto
          -6 36 44 -3 54 hhcurveto
          291 7 80 272 161 -2 94 -63 49 hvcurveto
          -356 -304 rmoveto
          206 4 5 119 17 15 0 -1 13 vhcurveto
          -167 -296 rlineto
          -1 24 0 28 34 vvcurveto
          123 -211 rmoveto
          -24 -19 0 2 -15 hvcurveto
          178 313 rlineto
          1 -27 0 -34 -43 vvcurveto
          -206 -2 -5 -119 vhcurveto
          endchar
        </CharString>
        <CharString name="Oslashacute">
          97 533 883 rmoveto
          -93 callgsubr
          -5 114 vlineto
          188 -95 -68 callsubr
        </CharString>
        <CharString name="Otilde">
          97 546 905 -107 callsubr
          -192 -913 -105 callsubr
          endchar
        </CharString>
        <CharString name="P">
          47 73 hmoveto
          174 221 153 hlineto
          196 21 101 132 147 -27 87 -190 hvcurveto
          -327 hlineto
          174 -328 rmoveto
          188 81 vlineto
          103 10 -12 -82 -81 -10 -13 -103 hvcurveto
          endchar
        </CharString>
        <CharString name="Q">
          97 494 -115 rmoveto
          185 6 hlineto
          -105 150 rlineto
          63 45 8 89 169 vvcurveto
          276 -9 76 -287 -16 callsubr
          26 24 1 2 21 vhcurveto
          -71 135 -29 callsubr
        </CharString>
        <CharString name="Q.bold">
          104 577 33 rmoveto
          72 48 3 95 168 vvcurveto
          272 -7 80 -291 -292 -7 -80 -272 -272 7 -80 292 25 22 1 1 21 vhcurveto
          74 -109 rlineto
          180 8 hlineto
          -445 451 rmoveto
          206 4 5 119 119 2 -5 -206 -78 0 -49 -7 -31 vhcurveto
          -23 32 rlineto
          -175 hlineto
          58 -85 rlineto
          -94 2 -3 20 189 vvcurveto
          endchar
        </CharString>
        <CharString name="R">
          76 640 hmoveto
          -81 callsubr
        </CharString>
        <CharString name="R.ss01">
          -60 callgsubr
          endchar
        </CharString>
        <CharString name="Racute">
          76 523 883 rmoveto
          -93 callgsubr
          -5 114 vlineto
          249 -742 rmoveto
          -81 callsubr
        </CharString>
        <CharString name="Racute.ss01">
          72 520 883 rmoveto
          -93 callgsubr
          -5 114 vlineto
          226 -571 -94 callgsubr
          endchar
        </CharString>
        <CharString name="Rcaron">
          76 414 -17 callsubr
          375 -742 rmoveto
          -81 callsubr
        </CharString>
        <CharString name="Rcaron.ss01">
          72 411 -17 callsubr
          352 -571 -94 callgsubr
          endchar
        </CharString>
        <CharString name="Rcommaaccent">
          -52 callsubr
          -75 -25 callgsubr
        </CharString>
        <CharString name="Rcommaaccent.ss01">
          -60 callgsubr
          -89 -25 callgsubr
        </CharString>
        <CharString name="S">
          -71 callsubr
          endchar
        </CharString>
        <CharString name="Sacute">
          17 247 -75 callgsubr
          78 -755 -100 callsubr
          endchar
        </CharString>
        <CharString name="Sacute.loclPLK">
          17 247 -49 callsubr
          78 -755 -100 callsubr
          endchar
        </CharString>
        <CharString name="Scaron">
          10 237 750 -98 callgsubr
          181 -897 -100 callsubr
          endchar
        </CharString>
        <CharString name="Scedilla">
          17 574 219 rmoveto
          67 -11 43 -18 27 vhcurveto
          -27 45 -43 11 -50 6 -146 18 rcurveline
          -55 7 -4 6 46 vvcurveto
          24 2 15 18 9 vhcurveto
          8 16 31 4 57 hhcurveto
          66 56 -5 -8 73 hvcurveto
          133 vlineto
          15 -82 -64 6 -84 hhcurveto
          -150 -113 -23 -187 -113 23 -79 141 -16 hvcurveto
          127 -16 rlineto
          57 -7 5 -6 -47 vvcurveto
          -24 -1 -17 -14 -11 vhcurveto
          -12 -15 -32 -5 -65 hhcurveto
          -54 -81 5 7 -71 hvcurveto
          -136 vlineto
          55 -8 61 -6 70 -2 -70 -178 rcurveline
          -5 146 vlineto
          34 183 rlineto
          123 4 89 34 188 vvcurveto
          endchar
        </CharString>
        <CharString name="Scircumflex">
          17 142 742 -106 callsubr
          183 -757 -100 callsubr
          endchar
        </CharString>
        <CharString name="Scommaaccent">
          -71 callsubr
          -100 -219 -87 callgsubr
        </CharString>
        <CharString name="T">
          -17 206 hmoveto
          -40 callgsubr
          endchar
        </CharString>
        <CharString name="Tbar">
          -18 571 540 rmoveto
          148 -555 -148 190 -160 -168 -118 168 -262 174 262 166 118 -166 160 vlineto
          endchar
        </CharString>
        <CharString name="Tcaron">
          -17 218 742 -98 callgsubr
          81 -881 rmoveto
          -40 callgsubr
          endchar
        </CharString>
        <CharString name="Thorn">
          47 73 hmoveto
          174 118 153 hlineto
          196 21 101 132 146 -27 88 -190 hvcurveto
          -153 103 -174 hlineto
          174 -431 rmoveto
          187 81 vlineto
          103 10 -11 -82 -81 -10 -13 -103 hvcurveto
          endchar
        </CharString>
        <CharString name="U">
          84 445 688 rmoveto
          -414 vlineto
          -101 callsubr
          377 vlineto
          endchar
        </CharString>
        <CharString name="Uacute">
          84 284 750 -102 callgsubr
          161 -67 rmoveto
          -414 vlineto
          -101 callsubr
          377 vlineto
          endchar
        </CharString>
        <CharString name="Ubreve">
          84 496 888 -103 callsubr
          -51 -200 rmoveto
          -414 vlineto
          -101 callsubr
          377 vlineto
          endchar
        </CharString>
        <CharString name="Ucircumflex">
          84 177 750 -106 callsubr
          268 -69 rmoveto
          -414 vlineto
          -101 callsubr
          377 vlineto
          endchar
        </CharString>
        <CharString name="Udieresis">
          84 175 777 -92 callgsubr
          64 -200 rmoveto
          -414 vlineto
          -101 callsubr
          377 vlineto
          endchar
        </CharString>
        <CharString name="Ugrave">
          84 299 750 -92 callsubr
          278 -203 rmoveto
          -414 vlineto
          -101 callsubr
          377 vlineto
          endchar
        </CharString>
        <CharString name="Uhorn">
          84 606 778 rmoveto
          -25 vlineto
          -50 -7 -15 -57 vhcurveto
          -97 -414 hlineto
          -101 callsubr
          320 vlineto
          79 12 13 36 82 vvcurveto
          17 vlineto
          endchar
        </CharString>
        <CharString name="Uhungarumlaut">
          84 201 754 -80 callgsubr
          55 -71 rmoveto
          -414 vlineto
          -101 callsubr
          377 vlineto
          endchar
        </CharString>
        <CharString name="Umacron">
          84 207 755 -69 callgsubr
          238 -200 rmoveto
          -414 vlineto
          -101 callsubr
          377 vlineto
          endchar
        </CharString>
        <CharString name="Uogonek">
          84 445 688 rmoveto
          -414 vlineto
          -128 -3 -15 -99 -99 -3 15 128 vhcurveto
          414 -174 -377 vlineto
          -250 19 -69 256 vhcurveto
          29 hlineto
          -31 -32 -19 -36 -35 vvcurveto
          -46 26 -39 100 -17 callgsubr
          -6 -7 0 -4 hhcurveto
          -37 -9 14 20 50 37 26 42 20 hvcurveto
          80 39 8 88 165 vvcurveto
          377 vlineto
          endchar
        </CharString>
        <CharString name="Uring">
          84 342 708 -90 callsubr
          103 -86 rmoveto
          -414 vlineto
          -101 callsubr
          377 vlineto
          endchar
        </CharString>
        <CharString name="Utilde">
          84 538 888 -107 callsubr
          -93 -200 rmoveto
          -414 vlineto
          -101 callsubr
          377 vlineto
          endchar
        </CharString>
        <CharString name="V">
          57 214 hmoveto
          231 hlineto
          205 688 rlineto
          -175 hlineto
          -139 -495 rlineto
          -8 hlineto
          -140 495 rlineto
          -178 hlineto
          endchar
        </CharString>
        <CharString name="W">
          370 605 hmoveto
          -83 callsubr
        </CharString>
        <CharString name="Wacute">
          370 424 -75 callgsubr
          181 -747 rmoveto
          -83 callsubr
        </CharString>
        <CharString name="Wcircumflex">
          370 319 742 -106 callsubr
          286 -749 rmoveto
          -83 callsubr
        </CharString>
        <CharString name="Wdieresis">
          370 318 764 -92 callgsubr
          81 -875 rmoveto
          -83 callsubr
        </CharString>
        <CharString name="Wgrave">
          370 437 742 -92 callsubr
          300 -883 rmoveto
          -83 callsubr
        </CharString>
        <CharString name="X">
          81 473 hmoveto
          198 hlineto
          -220 349 217 339 rlineto
          -191 hlineto
          -128 -204 rlineto
          -8 hlineto
          -126 204 rlineto
          -198 hlineto
          217 -342 -221 -346 rlineto
          190 hlineto
          131 209 rlineto
          9 hlineto
          endchar
        </CharString>
        <CharString name="Y">
          32 230 hmoveto
          -85 callgsubr
          endchar
        </CharString>
        <CharString name="Y.loclGUA">
          33 420 688 -93 callsubr
          endchar
        </CharString>
        <CharString name="Yacute">
          32 264 750 -102 callgsubr
          -34 -755 rmoveto
          -85 callgsubr
          endchar
        </CharString>
        <CharString name="Yacute.loclGUA">
          33 500 883 rmoveto
          -93 callgsubr
          -5 114 vlineto
          52 -54 -93 callsubr
          endchar
        </CharString>
        <CharString name="Ycircumflex">
          32 149 742 -106 callsubr
          81 -749 rmoveto
          -85 callgsubr
          endchar
        </CharString>
        <CharString name="Ycircumflex.loclGUA">
          33 316 822 -71 callgsubr
          168 -54 -93 callsubr
          endchar
        </CharString>
        <CharString name="Ydieresis">
          32 153 777 -92 callgsubr
          -129 -888 rmoveto
          -85 callgsubr
          endchar
        </CharString>
        <CharString name="Ydieresis.loclGUA">
          33 279 875 -39 callgsubr
          206 111 -39 callgsubr
          -65 -76 -93 callsubr
          endchar
        </CharString>
        <CharString name="Ygrave">
          32 267 742 -92 callsubr
          95 -883 rmoveto
          -85 callgsubr
          endchar
        </CharString>
        <CharString name="Ygrave.loclGUA">
          33 381 742 -70 callsubr
          153 -54 -93 callsubr
          endchar
        </CharString>
        <CharString name="Z">
          16 43 hmoveto
          -79 callgsubr
          endchar
        </CharString>
        <CharString name="Zacute">
          16 247 -75 callgsubr
          -204 -747 rmoveto
          -79 callgsubr
          endchar
        </CharString>
        <CharString name="Zacute.loclPLK">
          16 247 -49 callsubr
          -204 -747 rmoveto
          -79 callgsubr
          endchar
        </CharString>
        <CharString name="Zcaron">
          9 239 751 -98 callgsubr
          -103 -890 rmoveto
          -79 callgsubr
          endchar
        </CharString>
        <CharString name="Zdotaccent">
          16 244 -53 callsubr
          -201 -875 rmoveto
          -79 callgsubr
          endchar
        </CharString>
        <CharString name="a">
          -39 185 -8 -107 callgsubr
          endchar
        </CharString>
        <CharString name="aacute">
          -39 218 597 -102 callgsubr
          -33 -610 -107 callgsubr
          endchar
        </CharString>
        <CharString name="abreve">
          -39 434 743 -103 callsubr
          -249 -751 -107 callgsubr
          endchar
        </CharString>
        <CharString name="acircumflex">
          -39 116 597 -106 callsubr
          69 -612 -107 callgsubr
          endchar
        </CharString>
        <CharString name="acute">
          -317 20 597 -102 callgsubr
          endchar
        </CharString>
        <CharString name="acute.case.loclPLK">
          -317 20 -49 callsubr
          endchar
        </CharString>
        <CharString name="acute.loclPLK">
          -317 20 597 -73 callsubr
          endchar
        </CharString>
        <CharString name="acutecomb">
          -266 597 -102 callgsubr
          endchar
        </CharString>
        <CharString name="acutecomb.case">
          -266 -75 callgsubr
          endchar
        </CharString>
        <CharString name="adieresis">
          -39 115 -72 callgsubr
          -136 -738 -107 callgsubr
          endchar
        </CharString>
        <CharString name="ae">
          253 808 254 -76 callsubr
        </CharString>
        <CharString name="aeacute">
          253 612 738 rmoveto
          -93 callgsubr
          -5 114 vlineto
          328 -343 -76 callsubr
        </CharString>
        <CharString name="agrave">
          -39 232 597 -92 callsubr
          85 -746 -107 callgsubr
          endchar
        </CharString>
        <CharString name="amacron">
          -39 145 610 -69 callgsubr
          40 -751 -107 callgsubr
          endchar
        </CharString>
        <CharString name="ampersand">
          130 444 410 rmoveto
          -287 vlineto
          -2 -28 -28 -1 -28 hhcurveto
          -113 -34 11 71 67 14 15 85 hvcurveto
          56 126 -56 hlineto
          -84 -9 20 57 66 19 14 150 60 90 -6 -8 64 hvcurveto
          120 vlineto
          13 -69 -102 10 -73 hhcurveto
          -249 -56 -79 -102 -100 39 -43 79 -19 hvcurveto
          -4 vlineto
          -81 -19 -43 -34 -112 vvcurveto
          -108 40 -84 272 73 103 10 13 71 vhcurveto
          269 105 126 vlineto
          endchar
        </CharString>
        <CharString name="aogonek">
          -39 502 hmoveto
          307 vlineto
          143 -19 68 -215 -75 -70 -7 -10 -55 -59 callgsubr
          2 19 85 6 45 hhcurveto
          109 15 -3 -74 hvcurveto
          -18 vlineto
          2 -46 -72 2 -23 hhcurveto
          -129 -33 -41 -115 -112 50 -42 97 54 59 6 61 38 hvcurveto
          8 hlineto
          4 -59 rlineto
          22 hlineto
          -37 -34 -25 -38 -41 vvcurveto
          -44 27 -39 99 -17 callgsubr
          -6 -7 0 -5 hhcurveto
          -36 -10 15 17 31 32 34 32 14 hvcurveto
          -161 198 rmoveto
          -28 -3 -20 -8 -14 vhcurveto
          -20 -12 -21 -7 -36 hhcurveto
          -63 -8 10 42 50 9 7 51 hvcurveto
          91 hlineto
          endchar
        </CharString>
        <CharString name="approxequal">
          -107 52 270 rmoveto
          -45 callsubr
          -188 vmoveto
          -45 callsubr
          endchar
        </CharString>
        <CharString name="aring">
          -39 284 579 -90 callsubr
          -99 -653 -107 callgsubr
          endchar
        </CharString>
        <CharString name="aringacute">
          -39 222 858 -102 callgsubr
          58 -270 -90 callsubr
          -95 -667 -107 callgsubr
          endchar
        </CharString>
        <CharString name="arrowboth">
          280 340 162 rmoveto
          -31 89 rlineto
          264 hlineto
          -30 -89 4 callsubr
          30 -89 rlineto
          -263 hlineto
          30 89 -285 -143 rlineto
          endchar
        </CharString>
        <CharString name="arrowdown">
          -208 198 -85 rmoveto
          142 285 -89 -30 rlineto
          518 -105 -518 vlineto
          -91 30 rlineto
          endchar
        </CharString>
        <CharString name="arrowdown.ss01">
          -258 173 171 rmoveto
          142 285 rlineto
          -285 hlineto
          endchar
        </CharString>
        <CharString name="arrowleft">
          280 309 251 rmoveto
          519 107 -518 hlineto
          30 89 -285 -143 285 -142 rlineto
          endchar
        </CharString>
        <CharString name="arrowleft.ss01">
          -240 315 201 rmoveto
          285 vlineto
          -285 -143 rlineto
          endchar
        </CharString>
        <CharString name="arrowright">
          280 543 162 rmoveto
          4 callsubr
          30 -89 rlineto
          -518 -107 518 hlineto
          endchar
        </CharString>
        <CharString name="arrowright.ss01">
          -240 48 201 rmoveto
          4 callsubr
          rlineto
          endchar
        </CharString>
        <CharString name="arrowup">
          -208 146 -82 rmoveto
          105 518 hlineto
          89 -30 -142 285 -143 -285 91 30 rlineto
          endchar
        </CharString>
        <CharString name="arrowup.ss01">
          -258 30 231 rmoveto
          285 hlineto
          -142 285 rlineto
          endchar
        </CharString>
        <CharString name="arrowupdn">
          -37 callgsubr
          endchar
        </CharString>
        <CharString name="arrowupdnbse">
          -37 callgsubr
          -410 vmoveto
          285 91 -285 hlineto
          endchar
        </CharString>
        <CharString name="asciicircum">
          -169 301 443 rmoveto
          115 hlineto
          -141 306 rlineto
          -116 hlineto
          -142 -306 rlineto
          115 hlineto
          85 200 rlineto
          endchar
        </CharString>
        <CharString name="asciitilde">
          -107 443 381 rmoveto
          -80 hlineto
          -32 0 -11 -25 -20 -26 7 6 -29 vhcurveto
          9 -36 -42 -97 callsubr
          19 27 -7 -6 29 vhcurveto
          -9 36 42 -10 40 hhcurveto
          89 3 53 91 hvcurveto
          endchar
        </CharString>
        <CharString name="asterisk">
          -153 256 448 rmoveto
          109 -75 41 75 -120 55 120 56 -41 75 -110 -74 11 128 rlineto
          -83 hlineto
          11 -129 -109 75 -42 -75 119 -56 -119 -55 42 -75 109 75 -11 -129 rlineto
          83 hlineto
          endchar
        </CharString>
        <CharString name="asterisk.ss02">
          214 178 -14 rmoveto
          231 170 231 -170 -90 276 232 174 rlineto
          -288 hlineto
          -85 269 -87 -269 rlineto
          -287 hlineto
          234 -174 rlineto
          endchar
        </CharString>
        <CharString name="at">
          333 468 -108 rmoveto
          109 48 0 2 45 hvcurveto
          65 vlineto
          -2 -32 -106 -2 -63 hhcurveto
          -56 -46 0 2 -33 hvcurveto
          -189 10 -4 51 276 vvcurveto
          245 3 68 138 19 vhcurveto
          6 41 62 0 82 hhcurveto
          91 66 0 -8 43 hvcurveto
          124 -22 3 -71 -237 vvcurveto
          -155 -11 -1 -47 vhcurveto
          -65 200 hlineto
          124 -16 56 -186 -58 -61 -5 -9 -56 vhcurveto
          -100 vlineto
          4 52 49 2 28 hhcurveto
          96 11 -2 -63 hvcurveto
          -16 vlineto
          1 -39 -60 2 -25 hhcurveto
          -110 -27 -28 -104 -93 41 -39 87 48 46 5 55 33 hvcurveto
          8 hlineto
          4 -53 rlineto
          191 hlineto
          99 36 1 218 356 -17 46 -377 -378 -17 -47 -355 -354 17 -48 378 hvcurveto
          -7 275 rmoveto
          -54 -6 10 37 42 7 6 42 hvcurveto
          80 -24 hlineto
          -53 -10 -18 -59 vhcurveto
          endchar
        </CharString>
        <CharString name="atilde">
          -39 476 743 -107 callsubr
          -291 -751 -107 callgsubr
          endchar
        </CharString>
        <CharString name="b">
          -21 371 -8 rmoveto
          119 48 56 206 205 -47 58 -119 -59 -51 -9 -52 -32 hvcurveto
          -8 287 -161 -743 153 hlineto
          4 60 rlineto
          9 hlineto
          -57 30 57 -11 57 hhcurveto
          -72 136 rmoveto
          -36 -18 6 21 -11 hvcurveto
          -10 20 -2 33 47 vvcurveto
          47 2 32 10 21 vhcurveto
          21 11 18 5 36 hhcurveto
          72 6 -9 -117 -118 -6 -9 -72 hvcurveto
          endchar
        </CharString>
        <CharString name="backslash">
          -195 280 -55 rmoveto
          136 hlineto
          -289 798 rlineto
          -136 hlineto
          endchar
        </CharString>
        <CharString name="bar">
          -307 79 -161 rmoveto
          138 904 -138 hlineto
          endchar
        </CharString>
        <CharString name="bar.ss02">
          -105 -1 hmoveto
          500 696 -500 hlineto
          endchar
        </CharString>
        <CharString name="braceleft">
          -239 238 -150 rmoveto
          106 hlineto
          -23 24 -69 74 77 vvcurveto
          122 vlineto
          76 -34 55 -85 15 vhcurveto
          7 vlineto
          85 15 34 55 75 vvcurveto
          123 vlineto
          77 69 74 23 24 vhcurveto
          -106 hlineto
          -36 -18 -93 -73 -101 vvcurveto
          -111 vlineto
          -52 -13 -50 -73 -7 vhcurveto
          -70 vlineto
          73 -7 13 -49 -52 vvcurveto
          -111 vlineto
          -101 93 -73 36 -18 vhcurveto
          endchar
        </CharString>
        <CharString name="braceright">
          -239 19 -150 rmoveto
          106 hlineto
          36 18 94 73 101 vvcurveto
          111 vlineto
          52 12 49 73 7 vhcurveto
          70 vlineto
          -73 7 -12 50 52 vvcurveto
          111 vlineto
          101 -94 73 -36 18 vhcurveto
          -106 hlineto
          24 -24 68 -74 -77 vvcurveto
          -123 vlineto
          -75 35 -55 84 -15 vhcurveto
          -7 vlineto
          -84 -15 -35 -55 -76 vvcurveto
          -122 vlineto
          -77 -69 -74 -23 -24 vhcurveto
          endchar
        </CharString>
        <CharString name="bracketleft">
          -223 74 -150 rmoveto
          262 101 hlineto
          -119 4 rlineto
          683 vlineto
          119 4 rlineto
          101 -262 vlineto
          endchar
        </CharString>
        <CharString name="bracketleft.ss02">
          -6 callgsubr
          hvcurveto
          -348 vlineto
          endchar
        </CharString>
        <CharString name="bracketright">
          -223 44 -150 rmoveto
          261 893 -261 -101 hlineto
          119 -4 rlineto
          -683 vlineto
          -119 -4 rlineto
          endchar
        </CharString>
        <CharString name="bracketright.ss02">
          -206 0 vmoveto
          352 348 hlineto
          4 callgsubr
          vhcurveto
          endchar
        </CharString>
        <CharString name="breve">
          -259 324 743 -103 callsubr
          endchar
        </CharString>
        <CharString name="brokenbar">
          -307 79 390 rmoveto
          138 353 -138 hlineto
          -904 vmoveto
          138 353 -138 hlineto
          endchar
        </CharString>
        <CharString name="bullet">
          -212 317 342 rmoveto
          108 -5 17 -118 -115 -4 -17 -108 -105 4 -17 115 118 5 17 105 vhcurveto
          endchar
        </CharString>
        <CharString name="bullet.ss02">
          180 392 421 rmoveto
          62 50 39 73 90 -76 73 -36 -37 -76 -73 -90 -73 50 -39 63 hvcurveto
          60 vmoveto
          -30 -23 18 34 57 36 46 17 17 35 -46 -57 -34 -23 -18 -29 hvcurveto
          -189 -250 rmoveto
          73 39 50 63 62 -39 50 -73 -90 -73 -76 -36 -37 73 -76 90 hvcurveto
          378 hmoveto
          89 73 76 37 36 -73 76 -89 -74 -39 -50 -62 -63 39 -50 74 hvcurveto
          -378 60 rmoveto
          -57 -46 36 17 17 46 35 57 34 18 -23 -29 -30 -18 -23 -34 hvcurveto
          378 hmoveto
          -35 -18 23 30 29 18 23 35 56 46 -35 -17 -17 -46 -36 -56 hvcurveto
          -189 -299 rmoveto
          36 76 73 90 73 -50 39 -62 -63 -50 -39 -73 -90 76 -73 37 hvcurveto
          60 vmoveto
          -17 -36 46 57 34 23 18 30 29 23 -18 -34 -57 -35 -46 -17 hvcurveto
          endchar
        </CharString>
        <CharString name="c">
          -142 421 9 -86 callsubr
        </CharString>
        <CharString name="cacute">
          -142 169 597 -102 callgsubr
          252 -593 -86 callsubr
        </CharString>
        <CharString name="cacute.loclPLK">
          -142 169 597 -73 callsubr
          252 -593 -86 callsubr
        </CharString>
        <CharString name="caron">
          -227 113 597 -98 callgsubr
          endchar
        </CharString>
        <CharString name="caron.loclCSY">
          -330 52 428 -44 callsubr
          endchar
        </CharString>
        <CharString name="ccaron">
          -142 156 597 -98 callgsubr
          358 -727 -86 callsubr
        </CharString>
        <CharString name="ccedilla">
          -142 421 125 rmoveto
          -5 -37 -43 -3 -32 hhcurveto
          -92 -10 20 118 116 9 22 92 36 46 -4 -4 27 hvcurveto
          116 vlineto
          11 -43 -56 6 -53 hhcurveto
          -206 -15 -100 -163 -138 8 -91 124 -26 hvcurveto
          -11 callsubr
          34 182 48 2 51 6 39 9 rlinecurve
          endchar
        </CharString>
        <CharString name="ccircumflex">
          -142 63 597 -106 callsubr
          358 -595 -86 callsubr
        </CharString>
        <CharString name="cdotaccent">
          -142 165 -48 callgsubr
          256 -721 -86 callsubr
        </CharString>
        <CharString name="cedilla">
          -381 20 -10 callsubr
        </CharString>
        <CharString name="cent">
          -136 206 -8 rmoveto
          117 77 hlineto
          39 3 35 6 24 7 rrcurveto
          120 vlineto
          -4 -30 -46 -4 -32 hhcurveto
          -87 -12 20 125 123 10 22 88 34 44 -3 -4 27 hvcurveto
          120 vlineto
          -31 9 -32 5 -31 1 rrcurveto
          81 -117 -84 vlineto
          -139 -20 -17 -94 -157 vvcurveto
          -154 14 -95 142 -20 vhcurveto
          endchar
        </CharString>
        <CharString name="cent.bold">
          -136 421 205 rmoveto
          -27 -4 -40 -3 -31 -1 rrcurveto
          290 vlineto
          32 -1 38 -2 24 -4 rrcurveto
          120 vlineto
          -36 10 -29 4 -29 2 rrcurveto
          80 -117 -81 vlineto
          -130 -19 -26 -105 -150 vvcurveto
          -169 28 -84 128 -18 vhcurveto
          -78 117 77 vlineto
          43 3 27 5 28 8 rrcurveto
          endchar
        </CharString>
        <CharString name="circumflex">
          -227 20 597 -106 callsubr
          endchar
        </CharString>
        <CharString name="colon">
          -304 64 361 rmoveto
          171 149 -171 hlineto
          -510 vmoveto
          8 callgsubr
          endchar
        </CharString>
        <CharString name="comma">
          -304 56 -83 -25 callsubr
        </CharString>
        <CharString name="copyright">
          142 372 -8 rmoveto
          5 callgsubr
          5 callsubr
          hvcurveto
          62 -27 callsubr
          22 100 rmoveto
          31 41 3 4 24 hvcurveto
          74 vlineto
          -3 -19 -30 -2 -25 hhcurveto
          -78 -3 9 104 104 3 8 78 17 31 -2 -2 24 hvcurveto
          72 vlineto
          5 -22 -39 4 -33 hhcurveto
          -137 -18 -47 -142 -142 18 -47 137 hvcurveto
          endchar
        </CharString>
        <CharString name="currency">
          75 127 -1 rmoveto
          84 85 rlineto
          -8 32 42 -3 54 hhcurveto
          53 42 3 8 32 hvcurveto
          85 -86 83 86 -75 74 rlineto
          18 41 3 61 85 vvcurveto
          85 -3 60 -17 42 vhcurveto
          74 73 -82 85 -85 -86 rlineto
          8 -33 -41 4 -54 hhcurveto
          -54 -41 -3 -8 -32 hvcurveto
          -85 85 -83 -86 74 -73 rlineto
          -18 -42 -2 -59 -85 vvcurveto
          -86 2 -61 19 -41 vhcurveto
          -74 -73 rlineto
          294 114 rmoveto
          -80 0 12 135 134 0 12 80 79 1 -12 -134 -135 -1 -12 -79 hvcurveto
          endchar
        </CharString>
        <CharString name="d">
          -21 -80 callsubr
          72 136 -75 callsubr
          endchar
        </CharString>
        <CharString name="dagger">
          -91 208 hmoveto
          96 hlineto
          9 422 -30 callsubr
          endchar
        </CharString>
        <CharString name="daggerdbl">
          -91 208 hmoveto
          96 hlineto
          9 148 134 10 rlineto
          98 vlineto
          -134 10 rlineto
          156 vlineto
          -30 callsubr
          -156 vlineto
          -133 -10 rlineto
          -98 vlineto
          133 -10 rlineto
          endchar
        </CharString>
        <CharString name="dcaron">
          38 -80 callsubr
          341 436 -44 callsubr
          -282 -505 -75 callsubr
          endchar
        </CharString>
        <CharString name="dcroat">
          -21 581 688 rmoveto
          -60 55 -161 -55 -121 -118 121 -114 -8 hlineto
          52 -32 -50 9 -60 hhcurveto
          -119 -47 -58 -206 -205 48 -56 119 57 57 11 57 31 hvcurveto
          8 hlineto
          4 -60 rlineto
          153 570 60 hlineto
          -230 -408 rmoveto
          -26 -9 -18 -8 -41 hhcurveto
          -71 -7 9 118 117 7 9 71 41 19 -8 -28 9 hvcurveto
          7 -21 1 -29 -40 vvcurveto
          -41 -1 -29 -8 -23 vhcurveto
          endchar
        </CharString>
        <CharString name="degree">
          -208 198 -30 callgsubr
          70 vmoveto
          -9 callsubr
          endchar
        </CharString>
        <CharString name="dialog">
          202 306 -212 rmoveto
          213 212 rlineto
          227 688 -687 -688 247 60 -187 568 567 -568 -192 hlineto
          -188 -187 rlineto
          endchar
        </CharString>
        <CharString name="dieresis">
          -230 18 -72 callgsubr
          endchar
        </CharString>
        <CharString name="divide">
          -64 210 389 rmoveto
          117 102 -117 hlineto
          -140 -298 rmoveto
          -7 callgsubr
          140 -298 rmoveto
          117 103 -117 hlineto
          endchar
        </CharString>
        <CharString name="dollar">
          -67 211 -8 rmoveto
          118 76 hlineto
          92 6 63 32 133 vvcurveto
          129 -41 23 -80 11 vhcurveto
          -112 13 rlineto
          -43 6 -3 2 31 vvcurveto
          35 18 2 82 35 61 -3 -5 54 vhcurveto
          120 vlineto
          -29 6 -54 6 -43 2 rrcurveto
          79 -118 -80 vlineto
          -94 -7 -65 -34 -119 vvcurveto
          -92 15 -62 116 -15 vhcurveto
          100 -13 rlineto
          43 -6 4 -2 -30 vvcurveto
          -34 -4 -8 -96 -64 -73 6 2 -25 vhcurveto
          -120 vlineto
          40 -6 57 -5 46 -3 rrcurveto
          endchar
        </CharString>
        <CharString name="dollar.bold">
          -67 484 239 rmoveto
          129 -41 23 -80 11 vhcurveto
          -34 4 rlineto
          85 vlineto
          35 -1 48 -3 43 -4 rrcurveto
          120 vlineto
          -36 7 -41 5 -49 3 rrcurveto
          78 -118 -80 vlineto
          -106 -11 -53 -41 -108 vvcurveto
          -92 15 -62 116 -15 vhcurveto
          28 -4 rlineto
          -89 vlineto
          -59 1 -61 5 -23 2 rrcurveto
          -120 vlineto
          48 -6 50 -6 45 -2 rrcurveto
          -76 118 77 vlineto
          117 11 38 43 116 vvcurveto
          -279 215 rmoveto
          10 2 8 4 5 vhcurveto
          -51 vlineto
          -5 5 -1 8 15 vvcurveto
          124 -234 rmoveto
          32 vlineto
          1 -4 0 -5 -7 vvcurveto
          -6 0 -6 -1 -4 vhcurveto
          endchar
        </CharString>
        <CharString name="dotaccent">
          -432 20 -48 callgsubr
          endchar
        </CharString>
        <CharString name="dotbelowcomb">
          -235 -211 -89 callgsubr
        </CharString>
        <CharString name="dotlessi">
          -318 61 hmoveto
          163 510 -163 hlineto
          endchar
        </CharString>
        <CharString name="e">
          -48 509 254 -104 callgsubr
          endchar
        </CharString>
        <CharString name="eacute">
          -48 467 738 rmoveto
          -93 callgsubr
          -5 114 vlineto
          174 -343 -104 callgsubr
          endchar
        </CharString>
        <CharString name="ebreve">
          -48 277 593 rmoveto
          -72 callsubr
          hvcurveto
          -89 hlineto
          -37 -1 -25 -63 -63 0 25 37 vhcurveto
          -88 hlineto
          -88 17 -62 134 vhcurveto
          232 -339 -104 callgsubr
          endchar
        </CharString>
        <CharString name="ecaron">
          -48 352 597 rmoveto
          95 -63 callsubr
          7 -104 vlineto
          -64 -80 -66 80 rlineto
          -103 -7 hlineto
          93 -139 rlineto
          306 -343 -104 callgsubr
          endchar
        </CharString>
        <CharString name="ecircumflex">
          -48 283 677 -71 callgsubr
          290 -343 -104 callgsubr
          endchar
        </CharString>
        <CharString name="edieresis">
          -48 248 730 -39 callgsubr
          206 111 -39 callgsubr
          55 -365 -104 callgsubr
          endchar
        </CharString>
        <CharString name="edotaccent">
          -48 343 730 -39 callgsubr
          166 -365 -104 callgsubr
          endchar
        </CharString>
        <CharString name="egrave">
          -48 350 597 -70 callsubr
          273 -343 -104 callgsubr
          endchar
        </CharString>
        <CharString name="eight">
          75 339 -42 callgsubr
          -80 -19 -44 -32 -114 vvcurveto
          -119 51 -73 234 -1 callsubr
          15 -10 -68 -67 -17 -21 callsubr
        </CharString>
        <CharString name="eight.dnom">
          -215 194 -4 -96 callgsubr
        </CharString>
        <CharString name="eight.numr">
          -215 194 304 -96 callgsubr
        </CharString>
        <CharString name="eight.tnum">
          54 329 -42 callgsubr
          -81 -19 -43 -32 -114 vvcurveto
          -119 50 -73 235 -1 callsubr
          14 -10 -68 -67 -16 -21 callsubr
        </CharString>
        <CharString name="ellipsis">
          293 64 hmoveto
          8 callgsubr
          298 -148 rmoveto
          172 148 -172 hlineto
          300 -148 -47 callgsubr
          endchar
        </CharString>
        <CharString name="emacron">
          -48 416 743 3 callsubr
          93 -356 -104 callgsubr
          endchar
        </CharString>
        <CharString name="emdash">
          274 44 245 rmoveto
          788 118 -788 hlineto
          endchar
        </CharString>
        <CharString name="endash">
          -126 44 245 rmoveto
          388 118 -388 hlineto
          endchar
        </CharString>
        <CharString name="eng">
          -14 374 518 rmoveto
          -65 -19 callgsubr
          hvcurveto
          -9 hlineto
          -4 61 -13 callsubr
          -510 161 266 hlineto
          92 7 23 68 64 6 -6 -106 vhcurveto
          -301 vlineto
          -38 -5 -14 -77 -59 callgsubr
          200 43 18 186 hvcurveto
          315 9 callgsubr
          vhcurveto
          endchar
        </CharString>
        <CharString name="eogonek">
          -48 509 254 rmoveto
          191 -5 73 -221 -221 -18 -78 -186 -189 16 -73 238 vhcurveto
          36 hlineto
          -41 -32 -24 -35 -40 vvcurveto
          -41 27 -40 99 26 32 2 1 10 vhcurveto
          -10 callgsubr
          -36 -10 15 16 37 54 36 36 17 hvcurveto
          -99 callgsubr
          endchar
        </CharString>
        <CharString name="equal">
          -64 70 297 rmoveto
          -7 callgsubr
          -327 vmoveto
          -7 callgsubr
          endchar
        </CharString>
        <CharString name="estimated">
          97 349 696 rmoveto
          -16 callsubr
          225 44 25 183 12 hvcurveto
          -36 hlineto
          -163 -11 -37 -11 -185 -19 callsubr
          -7 7 290 hvcurveto
          416 21 hlineto
          276 -9 76 -287 vhcurveto
          -34 vmoveto
          115 6 -7 -298 hvcurveto
          -241 hlineto
          298 6 7 114 vhcurveto
          endchar
        </CharString>
        <CharString name="eth">
          -30 11 callsubr
          67 -5 58 -9 50 hvcurveto
          -14 70 -20 56 -26 47 61 10 rcurveline
          93 vlineto
          -123 -18 -15 17 -16 16 -18 16 rlinecurve
          -173 -4 hlineto
          23 -19 24 -23 24 -26 -66 -9 rcurveline
          -93 vlineto
          123 17 15 -23 12 -26 10 -28 rlinecurve
          -4 -5 rlineto
          8 -28 -26 6 -42 hhcurveto
          -173 -16 -78 -185 -35 callsubr
        </CharString>
        <CharString name="exclam">
          -273 113 235 rmoveto
          -55 callsubr
          -26 -235 -47 callgsubr
          endchar
        </CharString>
        <CharString name="exclam.case">
          -273 113 235 rmoveto
          -55 callsubr
          -26 -235 -47 callgsubr
          endchar
        </CharString>
        <CharString name="exclam.ss02">
          191 397 -8 rmoveto
          194 158 158 194 194 -158 158 -194 -194 -158 -158 -194 -194 158 -158 194 hvcurveto
          45 vmoveto
          -169 -138 138 169 169 138 138 169 169 138 -138 -169 -169 -138 -138 -169 hvcurveto
          -20 231 rmoveto
          40 hlineto
          4 28 10 90 94 vvcurveto
          99 -68 -99 vlineto
          -94 10 -90 4 -28 vhcurveto
          -14 -159 rmoveto
          68 82 -68 hlineto
          endchar
        </CharString>
        <CharString name="exclamdbl">
          -16 113 235 rmoveto
          -55 callsubr
          258 hmoveto
          -55 callsubr
          -284 -235 -47 callgsubr
          258 -148 -47 callgsubr
          endchar
        </CharString>
        <CharString name="exclamdown">
          -290 71 362 -37 callsubr
        </CharString>
        <CharString name="exclamdown.case">
          -275 72 540 -37 callsubr
        </CharString>
        <CharString name="f">
          -182 113 hmoveto
          -38 callsubr
        </CharString>
        <CharString name="f_f">
          239 113 hmoveto
          -74 callgsubr
          421 -385 rmoveto
          -38 callsubr
        </CharString>
        <CharString name="fi">
          103 481 -48 callsubr
          -368 -38 callgsubr
          369 -385 -69 callsubr
          endchar
        </CharString>
        <CharString name="five">
          19 69 -46 callsubr
          104 23 -8 -75 -71 -20 -13 -103 -50 -83 5 7 -69 hvcurveto
          endchar
        </CharString>
        <CharString name="five.dnom">
          -244 43 80 -70 callgsubr
          endchar
        </CharString>
        <CharString name="five.numr">
          -244 43 388 -70 callgsubr
          endchar
        </CharString>
        <CharString name="five.tnum">
          54 91 -46 callsubr
          103 24 -8 -75 -71 -20 -13 -103 -50 -84 5 7 -68 hvcurveto
          endchar
        </CharString>
        <CharString name="fiveeighths">
          306 43 388 -70 callgsubr
          122 -388 rmoveto
          -45 callgsubr
          -101 hlineto
          102 -692 -96 callgsubr
        </CharString>
        <CharString name="fl">
          103 482 hmoveto
          -33 callgsubr
          -369 -38 callgsubr
          endchar
        </CharString>
        <CharString name="florin">
          -105 469 628 rmoveto
          24 114 rlineto
          -249 -35 -7 -223 -49 hvcurveto
          -2 -93 vlineto
          -25 -125 rlineto
          93 hlineto
          -87 -403 rlineto
          -58 -14 -11 -5 -108 hhcurveto
          -24 -114 rlineto
          244 38 5 185 40 hvcurveto
          83 390 rlineto
          122 hlineto
          25 125 rlineto
          -121 hlineto
          109 24 -5 9 128 hhcurveto
          endchar
        </CharString>
        <CharString name="four">
          44 360 hmoveto
          172 7 callgsubr
          -50 -161 rlineto
          -149 hlineto
          240 414 rlineto
          -188 hlineto
          -234 -429 rlineto
          -123 326 vlineto
          endchar
        </CharString>
        <CharString name="four.dnom">
          -235 204 hmoveto
          -34 callgsubr
        </CharString>
        <CharString name="four.numr">
          -235 204 308 rmoveto
          -34 callgsubr
        </CharString>
        <CharString name="four.ss01">
          52 364 hmoveto
          171 136 89 139 -89 413 -240 hlineto
          -261 -427 rlineto
          -125 330 vlineto
          -172 139 rmoveto
          166 267 rlineto
          6 -267 hlineto
          endchar
        </CharString>
        <CharString name="four.tnum">
          54 363 hmoveto
          171 7 callgsubr
          -49 -161 rlineto
          -150 hlineto
          240 414 rlineto
          -187 hlineto
          -235 -429 rlineto
          -123 327 vlineto
          endchar
        </CharString>
        <CharString name="fraction">
          -441 -194 hmoveto
          -45 callgsubr
          -101 hlineto
          endchar
        </CharString>
        <CharString name="g">
          -21 265 -206 -101 callgsubr
        </CharString>
        <CharString name="g_tilde.loclGUA">
          -21 485 743 -107 callsubr
          -220 -949 -101 callgsubr
        </CharString>
        <CharString name="gbreve">
          -21 443 743 -103 callsubr
          -178 -949 -101 callgsubr
        </CharString>
        <CharString name="gcaron">
          -21 216 597 -98 callgsubr
          142 -942 -101 callgsubr
        </CharString>
        <CharString name="gcircumflex">
          -21 123 597 -106 callsubr
          142 -810 -101 callgsubr
        </CharString>
        <CharString name="gcommaaccent">
          -21 379 -21 callgsubr
          -114 -972 -101 callgsubr
        </CharString>
        <CharString name="gdotaccent">
          -21 225 -48 callgsubr
          40 -936 -101 callgsubr
        </CharString>
        <CharString name="germandbls">
          -1 326 hmoveto
          195 36 64 174 130 -42 47 -82 15 hvcurveto
          4 vlineto
          79 13 37 42 86 vvcurveto
          111 -49 64 -194 -187 -58 -62 -132 vhcurveto
          -556 161 539 vlineto
          78 22 8 61 63 17 -9 -62 -54 -12 -10 -67 vhcurveto
          -16 -125 16 hlineto
          72 17 -8 -111 -118 -11 -3 -78 hvcurveto
          -23 -125 hlineto
          endchar
        </CharString>
        <CharString name="grave">
          -317 152 597 -92 callsubr
          endchar
        </CharString>
        <CharString name="gravecomb">
          -134 597 -92 callsubr
          endchar
        </CharString>
        <CharString name="gravecomb.case">
          -134 742 -92 callsubr
          endchar
        </CharString>
        <CharString name="greater">
          -63 70 45 rmoveto
          399 147 rlineto
          121 vlineto
          -399 148 rlineto
          -120 vlineto
          262 -88 -262 -89 rlineto
          endchar
        </CharString>
        <CharString name="greaterequal">
          -63 70 174 rmoveto
          400 147 rlineto
          121 vlineto
          -400 148 rlineto
          -120 vlineto
          263 -88 -263 -88 rlineto
          -294 vmoveto
          400 118 -400 hlineto
          endchar
        </CharString>
        <CharString name="guillemotleft">
          -101 155 99 -34 callsubr
          323 -205 -34 callsubr
          endchar
        </CharString>
        <CharString name="guillemotright">
          -101 51 99 rmoveto
          103 hlineto
          132 205 -132 206 rlineto
          -103 hlineto
          104 -206 rlineto
          89 -205 rmoveto
          103 hlineto
          131 205 -131 206 rlineto
          -103 hlineto
          104 -206 rlineto
          endchar
        </CharString>
        <CharString name="guilsinglleft">
          -294 154 99 -34 callsubr
          endchar
        </CharString>
        <CharString name="guilsinglright">
          -294 51 99 rmoveto
          104 hlineto
          131 205 -131 206 rlineto
          -104 hlineto
          104 -206 rlineto
          endchar
        </CharString>
        <CharString name="h">
          -14 367 hmoveto
          -62 callgsubr
          endchar
        </CharString>
        <CharString name="hbar">
          -14 374 518 rmoveto
          -63 -51 -17 -50 -30 hvcurveto
          -8 119 121 118 -121 55 -161 -55 -59 -118 59 -570 161 266 hlineto
          92 7 23 68 64 6 -6 -106 vhcurveto
          -269 -32 callsubr
          9 callgsubr
          vhcurveto
          endchar
        </CharString>
        <CharString name="hcircumflex">
          -14 -26 775 -106 callsubr
          393 -782 rmoveto
          -62 callgsubr
          endchar
        </CharString>
        <CharString name="hookabovecomb">
          -228 609 -106 callgsubr
          endchar
        </CharString>
        <CharString name="hookabovecomb.case">
          -228 728 -106 callgsubr
          endchar
        </CharString>
        <CharString name="house">
          152 46 hmoveto
          663 hlineto
          1 419 -278 276 rlineto
          -109 hlineto
          -278 -276 rlineto
          115 -321 rmoveto
          -1 286 219 222 218 -222 -1 -286 rlineto
          endchar
        </CharString>
        <CharString name="hungarumlaut">
          -168 20 609 -80 callgsubr
          endchar
        </CharString>
        <CharString name="hyphen">
          -3 callgsubr
        </CharString>
        <CharString name="i">
          1 callgsubr
          1 -743 -69 callsubr
          endchar
        </CharString>
        <CharString name="i.loclTRK">
          -318 76 -48 callgsubr
          -15 -730 -69 callsubr
          endchar
        </CharString>
        <CharString name="iacute">
          -318 63 597 -102 callgsubr
          -2 -602 -69 callsubr
          endchar
        </CharString>
        <CharString name="iacute_j.loclNLD">
          -33 80 597 -102 callgsubr
          285 -5 -102 callgsubr
          -304 -602 -69 callsubr
          203 -710 -77 callgsubr
        </CharString>
        <CharString name="ibreve">
          -318 294 743 -103 callsubr
          -233 -743 -69 callsubr
          endchar
        </CharString>
        <CharString name="icircumflex">
          -318 -26 597 -106 callsubr
          87 -604 -69 callsubr
          endchar
        </CharString>
        <CharString name="idieresis">
          -318 -26 -72 callgsubr
          -119 -730 -69 callsubr
          endchar
        </CharString>
        <CharString name="igrave">
          -318 109 597 -92 callsubr
          84 -738 -69 callsubr
          endchar
        </CharString>
        <CharString name="ij">
          -33 -11 callgsubr
          285 -132 -51 callsubr
          -284 -743 -69 callsubr
          203 -710 -77 callgsubr
        </CharString>
        <CharString name="imacron">
          -318 5 610 -69 callgsubr
          56 -743 -69 callsubr
          endchar
        </CharString>
        <CharString name="infinity">
          430 283 38 rmoveto
          133 63 58 70 38 hvcurveto
          -70 38 64 -58 133 hhcurveto
          187 43 77 141 139 -43 79 -187 -133 -64 -60 -68 -38 hvcurveto
          68 -38 -63 60 -133 hhcurveto
          -188 -45 -79 -139 -141 45 -77 188 hvcurveto
          8 111 rmoveto
          -97 -23 27 80 79 23 28 97 105 33 -53 -54 24 hvcurveto
          -54 -24 -33 -53 -105 hhcurveto
          453 hmoveto
          -106 -34 53 54 -22 hvcurveto
          54 22 34 53 106 hhcurveto
          95 23 -28 -79 -80 -23 -27 -95 hvcurveto
          endchar
        </CharString>
        <CharString name="integral">
          -158 39 -190 rmoveto
          212 73 6 146 14 -1 16 -2 33 hvcurveto
          -39 476 rlineto
          -1 14 0 12 8 vvcurveto
          43 23 4 98 vhcurveto
          114 vlineto
          -212 -73 -6 -146 -18 1 -15 1 -15 hvcurveto
          38 -470 rlineto
          3 -36 1 -12 -7 vvcurveto
          -43 -23 -4 -99 vhcurveto
          endchar
        </CharString>
        <CharString name="iogonek">
          -318 208 730 rmoveto
          -132 -111 132 hlineto
          16 -619 rmoveto
          510 -163 -510 30 vlineto
          -36 -33 -25 -39 -41 vvcurveto
          -44 27 -39 99 -17 callgsubr
          -6 -6 0 -6 hhcurveto
          -35 -10 15 17 31 32 34 31 14 hvcurveto
          endchar
        </CharString>
        <CharString name="itilde">
          -318 336 743 -107 callsubr
          -275 -743 -69 callsubr
          endchar
        </CharString>
        <CharString name="j">
          1 callgsubr
          -81 -943 -77 callgsubr
        </CharString>
        <CharString name="jcircumflex">
          -318 -26 597 -106 callsubr
          5 -804 -77 callgsubr
        </CharString>
        <CharString name="k">
          -46 callgsubr
          426 -161 -743 161 191 30 hlineto
          endchar
        </CharString>
        <CharString name="kcommaaccent">
          -46 callgsubr
          426 -161 -743 161 191 30 hlineto
          -51 -418 -87 callgsubr
        </CharString>
        <CharString name="kgreenlandic">
          -46 callgsubr
          193 -161 -510 161 191 30 hlineto
          endchar
        </CharString>
        <CharString name="l">
          -318 61 hmoveto
          -33 callgsubr
          endchar
        </CharString>
        <CharString name="lacute">
          -318 80 775 -102 callgsubr
          -19 -780 rmoveto
          -33 callgsubr
          endchar
        </CharString>
        <CharString name="lcaron">
          -255 61 hmoveto
          -33 callgsubr
          193 -315 -44 callsubr
          endchar
        </CharString>
        <CharString name="lcommaaccent">
          -318 61 hmoveto
          -33 callgsubr
          -4 -970 -87 callgsubr
        </CharString>
        <CharString name="ldot">
          -221 61 hmoveto
          -33 callgsubr
          197 -518 rmoveto
          156 149 -156 hlineto
          endchar
        </CharString>
        <CharString name="leftOpenDialog">
          22 626 628 rmoveto
          60 -626 -688 626 60 -566 568 vlineto
          endchar
        </CharString>
        <CharString name="less">
          -63 470 45 rmoveto
          119 vlineto
          -262 89 -4 callgsubr
          endchar
        </CharString>
        <CharString name="lessequal">
          -63 469 174 rmoveto
          120 vlineto
          -262 88 -4 callgsubr
          -321 vmoveto
          399 118 -399 hlineto
          endchar
        </CharString>
        <CharString name="logicalnot">
          -65 352 53 rmoveto
          116 260 -398 -120 282 hlineto
          endchar
        </CharString>
        <CharString name="longs">
          -202 113 hmoveto
          162 565 hlineto
          58 11 5 110 vhcurveto
          114 vlineto
          -233 -50 -5 -195 hvcurveto
          -32 -93 -125 93 vlineto
          endchar
        </CharString>
        <CharString name="lozenge">
          -64 208 hmoveto
          123 hlineto
          168 344 -168 344 rlineto
          -123 hlineto
          -169 -344 rlineto
          230 -242 rmoveto
          -114 242 114 241 114 -241 rlineto
          endchar
        </CharString>
        <CharString name="lslash">
          -299 70 hmoveto
          163 347 hlineto
          55 20 rlineto
          119 vlineto
          -55 -20 rlineto
          277 -163 -335 vlineto
          -54 -19 rlineto
          -119 vlineto
          54 20 rlineto
          endchar
        </CharString>
        <CharString name="m">
          263 644 hmoveto
          -7 callsubr
          -22 71 -127 -62 -19 callgsubr
          vhcurveto
          -9 hlineto
          48 -18 -38 21 -79 hhcurveto
          -61 -52 -18 -51 -29 hvcurveto
          -8 hlineto
          -4 61 -13 callsubr
          -510 161 266 hlineto
          93 6 22 62 56 7 -6 -106 vhcurveto
          -269 160 266 vlineto
          94 6 21 62 56 7 -6 -106 vhcurveto
          endchar
        </CharString>
        <CharString name="macron">
          -229 50 610 -69 callgsubr
          endchar
        </CharString>
        <CharString name="minus">
          -64 70 193 rmoveto
          -7 callgsubr
          endchar
        </CharString>
        <CharString name="minute">
          -330 50 368 -24 callgsubr
          endchar
        </CharString>
        <CharString name="multiply">
          -91 256 168 rmoveto
          106 -105 82 85 -105 106 105 105 -82 84 -105 -105 -106 105 -83 -85 106 -106 -105 -104 82 -84 rlineto
          endchar
        </CharString>
        <CharString name="n">
          -14 367 hmoveto
          -89 callsubr
          endchar
        </CharString>
        <CharString name="nacute">
          -14 233 597 -102 callgsubr
          134 -602 rmoveto
          -89 callsubr
          endchar
        </CharString>
        <CharString name="nacute.loclPLK">
          -14 233 597 -73 callsubr
          134 -602 rmoveto
          -89 callsubr
          endchar
        </CharString>
        <CharString name="napostrophe">
          121 -26 callgsubr
          484 -552 rmoveto
          -89 callsubr
          endchar
        </CharString>
        <CharString name="ncaron">
          -14 220 597 -98 callgsubr
          240 -736 rmoveto
          -89 callsubr
          endchar
        </CharString>
        <CharString name="ncommaaccent">
          -14 367 hmoveto
          -89 callsubr
          -157 -496 -87 callgsubr
        </CharString>
        <CharString name="nine">
          58 311 -8 rmoveto
          141 77 26 78 40 hvcurveto
          28 51 10 82 117 vvcurveto
          103 -6 74 -18 55 vhcurveto
          101 -32 -76 17 -156 hhcurveto
          -220 10 callsubr
          103 36 32 16 15 1 callsubr
          -73 vhcurveto
          -129 vlineto
          -12 70 92 -10 58 hhcurveto
          15 398 rmoveto
          -89 -19 8 79 76 20 2 callsubr
        </CharString>
        <CharString name="nine.dnom">
          -226 175 -4 -67 callsubr
        </CharString>
        <CharString name="nine.numr">
          -226 175 304 -67 callsubr
        </CharString>
        <CharString name="nine.ss01">
          42 131 hmoveto
          201 hlineto
          109 89 166 181 179 vvcurveto
          154 -45 93 -241 -240 -43 -86 -136 -123 25 -95 184 53 40 6 12 34 vhcurveto
          4 -4 -60 -106 -114 -100 -73 -57 rlinecurve
          190 383 rmoveto
          -93 -24 5 81 74 21 10 96 83 29 -3 -90 -59 -20 -18 -92 hvcurveto
          endchar
        </CharString>
        <CharString name="nine.tnum">
          54 307 -8 rmoveto
          148 76 30 76 35 hvcurveto
          28 63 9 76 109 vvcurveto
          139 -11 84 -29 47 vhcurveto
          69 -43 -74 11 -132 hhcurveto
          -219 10 callsubr
          93 41 24 24 20 1 callsubr
          -74 vhcurveto
          -129 vlineto
          -12 71 92 -10 58 hhcurveto
          15 398 rmoveto
          -90 -19 8 79 76 21 2 callsubr
        </CharString>
        <CharString name="notequal">
          -64 238 89 rmoveto
          231 119 -177 hlineto
          43 89 rlineto
          134 119 -80 hlineto
          45 94 rlineto
          -98 hlineto
          -45 -94 rlineto
          -221 -119 167 hlineto
          -43 -89 rlineto
          -124 -119 70 hlineto
          -42 -89 rlineto
          98 hlineto
          endchar
        </CharString>
        <CharString name="ntilde">
          -14 492 743 -107 callsubr
          -125 -743 rmoveto
          -89 callsubr
          endchar
        </CharString>
        <CharString name="numbersign">
          120 333 hmoveto
          106 hlineto
          40 174 rlineto
          129 103 -106 hlineto
          31 132 rlineto
          111 103 -88 hlineto
          41 176 rlineto
          -107 hlineto
          -41 -176 rlineto
          -126 hlineto
          41 176 rlineto
          -106 hlineto
          -42 -176 rlineto
          -127 -103 104 hlineto
          -31 -132 rlineto
          -110 -103 88 hlineto
          -40 -174 rlineto
          106 hlineto
          40 174 rlineto
          126 hlineto
          54 235 rmoveto
          -31 -132 rlineto
          -126 hlineto
          31 132 rlineto
          endchar
        </CharString>
        <CharString name="o">
          -33 285 -8 -104 callsubr
          endchar
        </CharString>
        <CharString name="oacute">
          -33 219 597 -102 callgsubr
          66 -610 -104 callsubr
          endchar
        </CharString>
        <CharString name="oacute.loclPLK">
          -33 223 597 -73 callsubr
          62 -610 -104 callsubr
          endchar
        </CharString>
        <CharString name="obreve">
          -33 437 743 -103 callsubr
          -152 -751 -104 callsubr
          endchar
        </CharString>
        <CharString name="ocircumflex">
          -33 118 597 -106 callsubr
          167 -612 -104 callsubr
          endchar
        </CharString>
        <CharString name="odieresis">
          -33 118 -72 callgsubr
          -39 -738 -104 callsubr
          endchar
        </CharString>
        <CharString name="oe">
          277 832 254 rmoveto
          191 -4 73 -214 -75 -54 -14 -29 -37 vhcurveto
          30 -35 -53 13 -78 hhcurveto
          -226 -12 -57 -206 -205 12 -58 226 78 54 13 30 35 hvcurveto
          -30 40 57 -13 83 hhcurveto
          65 77 7 11 41 hvcurveto
          115 vlineto
          -5 -50 -64 -3 -38 hhcurveto
          -126 -64 callgsubr
          hlineto
          -226 186 rmoveto
          61 14 -8 -95 hvcurveto
          -154 hlineto
          91 1 9 12 69 hhcurveto
          -321 -284 -43 callgsubr
        </CharString>
        <CharString name="ogonek">
          -410 193 -193 rmoveto
          -40 callsubr
        </CharString>
        <CharString name="ograve">
          -33 237 597 -92 callsubr
          180 -746 -104 callsubr
          endchar
        </CharString>
        <CharString name="ohorn">
          -33 489 600 -88 callgsubr
        </CharString>
        <CharString name="ohungarumlaut">
          -33 145 609 -80 callgsubr
          -49 -622 -104 callsubr
          endchar
        </CharString>
        <CharString name="omacron">
          -33 148 610 -69 callgsubr
          137 -751 -104 callsubr
          endchar
        </CharString>
        <CharString name="one">
          -210 145 hmoveto
          -36 callsubr
          -119 hlineto
          -183 -93 rlineto
          -141 vlineto
          128 53 rlineto
          endchar
        </CharString>
        <CharString name="one.dnom">
          -374 83 hmoveto
          -4 callsubr
        </CharString>
        <CharString name="one.numr">
          -374 83 308 rmoveto
          -4 callsubr
        </CharString>
        <CharString name="one.tnum">
          54 100 hmoveto
          496 138 -154 550 -119 hlineto
          -218 -98 rlineto
          -138 vlineto
          163 55 rlineto
          -369 -168 vlineto
          endchar
        </CharString>
        <CharString name="oneeighth">
          223 -57 callgsubr
          -22 -573 rmoveto
          -45 callgsubr
          -101 hlineto
          89 -692 -96 callgsubr
        </CharString>
        <CharString name="onehalf">
          201 -57 callgsubr
          426 115 rmoveto
          -448 -688 rlineto
          -45 callgsubr
          -50 -589 rmoveto
          16 9 8 22 7 vhcurveto
          32 11 24 8 26 10 rrcurveto
          41 15 24 29 69 vvcurveto
          99 -63 11 -76 -43 -57 -5 -8 -37 vhcurveto
          -85 vlineto
          5 38 49 4 25 hhcurveto
          43 12 -2 -25 -21 -4 -5 -26 -11 hvcurveto
          -36 -14 -28 -10 -29 -13 rrcurveto
          -48 -22 -3 -33 -80 vvcurveto
          -57 283 91 -178 vlineto
          endchar
        </CharString>
        <CharString name="onequarter">
          150 -57 callgsubr
          -22 -573 rmoveto
          -45 callgsubr
          -101 hlineto
          33 -688 rmoveto
          107 -26 callsubr
          174 vlineto
          endchar
        </CharString>
        <CharString name="ordfeminine">
          -187 140 313 rmoveto
          38 41 4 44 28 hvcurveto
          6 hlineto
          4 -43 rlineto
          114 224 hlineto
          104 -14 50 -156 -49 -54 -5 -8 -42 vhcurveto
          -86 vlineto
          4 48 34 2 22 hhcurveto
          84 8 -3 -51 hvcurveto
          -15 vlineto
          2 -33 -50 2 -19 hhcurveto
          -94 -22 -29 -83 -79 34 -34 72 hvcurveto
          55 84 rmoveto
          -44 -6 9 31 34 6 7 36 hvcurveto
          65 -17 hlineto
          -22 -1 -15 -5 -9 vhcurveto
          -14 -9 -16 -4 -26 hhcurveto
          endchar
        </CharString>
        <CharString name="ordmasculine">
          -169 217 313 rmoveto
          157 18 38 153 153 -18 39 -157 -156 -19 -39 -153 -153 19 -38 156 hvcurveto
          92 vmoveto
          -56 0 9 90 90 0 10 56 56 1 -10 -90 -90 -1 -9 -56 hvcurveto
          endchar
        </CharString>
        <CharString name="orn.001">
          -266 289 341 rmoveto
          105 -6 17 -117 -112 -6 -17 -105 -102 6 -16 112 117 6 16 102 vhcurveto
          endchar
        </CharString>
        <CharString name="orn.002">
          -54 210 -60 callsubr
          63 101 -54 callgsubr
          121 87 -12 callgsubr
          -29 -21 22 28 29 21 21 29 28 22 -21 -29 -28 -22 -22 -28 hvcurveto
          endchar
        </CharString>
        <CharString name="orn.003">
          -188 211 -60 callsubr
          63 101 -54 callgsubr
          63 101 -33 callsubr
          endchar
        </CharString>
        <CharString name="orn.007">
          -266 168 222 rmoveto
          67 54 53 67 67 -54 54 -67 -67 -53 -54 -67 -67 53 -53 67 hvcurveto
          endchar
        </CharString>
        <CharString name="orn.010">
          191 397 hmoveto
          352 348 hlineto
          4 callgsubr
          -207 -145 -143 -205 -204 145 -144 207 vhcurveto
          endchar
        </CharString>
        <CharString name="orn.015">
          -3 callsubr
          187 60 -187 hlineto
          187 -272 rmoveto
          213 212 rlineto
          167 60 -192 hlineto
          -188 -187 rlineto
          endchar
        </CharString>
        <CharString name="orn.016">
          -3 callsubr
          567 60 -567 hlineto
          endchar
        </CharString>
        <CharString name="orn.017">
          -543 0 vmoveto
          60 688 -60 hlineto
          endchar
        </CharString>
        <CharString name="orn.018">
          189 211 -60 callsubr
          370 hmoveto
          99 62 67 110 126 vvcurveto
          125 -67 111 -99 62 vhcurveto
          -32 -51 rlineto
          82 -51 56 -92 -104 vvcurveto
          -105 -55 -91 -83 -52 vhcurveto
          -275 51 -54 callgsubr
          244 hmoveto
          65 41 44 73 83 vvcurveto
          83 -44 73 -66 41 vhcurveto
          -32 -51 rlineto
          49 -31 33 -54 -61 vvcurveto
          -62 -33 -53 -48 -31 vhcurveto
          -149 50 -33 callsubr
          118 hmoveto
          -31 callsubr
        </CharString>
        <CharString name="orn.019">
          -54 338 -56 callgsubr
          -89 36 -12 callgsubr
          -28 -22 22 28 29 22 21 28 29 21 -21 -29 -28 -21 -22 -29 hvcurveto
          endchar
        </CharString>
        <CharString name="orn.020">
          -188 204 -56 callgsubr
          -31 50 rmoveto
          -31 callsubr
        </CharString>
        <CharString name="orn.021">
          150 376 -116 rmoveto
          85 50 247 187 243 vvcurveto
          188 -149 144 -183 -183 -148 -144 -188 -243 246 -187 85 -50 vhcurveto
          endchar
        </CharString>
        <CharString name="orn.022">
          -214 171 220 rmoveto
          98 80 83 40 40 -80 83 -98 -81 -42 -55 -68 -68 42 -55 81 hvcurveto
          endchar
        </CharString>
        <CharString name="oslash">
          -33 45 -55 -65 callgsubr
        </CharString>
        <CharString name="oslash.bold">
          -33 477 479 rmoveto
          49 86 rlineto
          -128 hlineto
          -29 -51 rlineto
          3 -24 -28 1 -32 8 callsubr
          -117 4 -69 46 -38 hvcurveto
          -49 -86 rlineto
          127 hlineto
          29 51 rlineto
          -3 24 28 -1 32 hhcurveto
          -31 callgsubr
          58 205 117 -4 69 -45 38 hvcurveto
          -272 -224 rmoveto
          127 0 11 80 vhcurveto
          15 hlineto
          -95 -167 rlineto
          80 -109 rmoveto
          -15 hlineto
          95 166 rlineto
          -28 vlineto
          -126 0 -12 -80 vhcurveto
          endchar
        </CharString>
        <CharString name="oslashacute">
          -33 223 597 -102 callgsubr
          -178 -657 -65 callgsubr
        </CharString>
        <CharString name="otilde">
          -33 482 743 -107 callsubr
          -197 -751 -104 callsubr
          endchar
        </CharString>
        <CharString name="p">
          -21 61 -199 rmoveto
          161 253 -14 callgsubr
          -58 -12 -57 -30 hvcurveto
          -9 hlineto
          -4 61 -13 callsubr
          hlineto
          238 -381 rmoveto
          -39 -19 6 27 -10 hvcurveto
          -8 18 -1 31 44 vvcurveto
          43 1 31 9 21 vhcurveto
          24 9 19 8 39 -1 callgsubr
        </CharString>
        <CharString name="paragraph">
          32 290 -144 rmoveto
          104 832 -104 hlineto
          -231 -11 -31 -203 -203 11 -29 231 hvcurveto
          170 -366 rmoveto
          103 832 -103 hlineto
          endchar
        </CharString>
        <CharString name="parenleft">
          -249 228 -150 rmoveto
          105 hlineto
          -79 104 -41 46 297 vvcurveto
          296 41 46 79 104 vhcurveto
          -105 hlineto
          -122 -126 -42 -58 -262 vvcurveto
          -263 42 -50 122 -134 vhcurveto
          endchar
        </CharString>
        <CharString name="parenleft.ss02">
          -6 callgsubr
          -204 145 -144 207 hvcurveto
          endchar
        </CharString>
        <CharString name="parenright">
          -249 20 -150 rmoveto
          106 hlineto
          122 134 42 50 263 vvcurveto
          262 -42 58 -122 126 vhcurveto
          -106 hlineto
          79 -104 42 -46 -296 vvcurveto
          -297 -42 -46 -79 -104 vhcurveto
          endchar
        </CharString>
        <CharString name="parenright.ss02">
          -206 0 vmoveto
          207 145 144 204 4 callgsubr
          hvcurveto
          endchar
        </CharString>
        <CharString name="partialdiff">
          -32 11 callsubr
          74 -6 64 -14 66 hvcurveto
          -26 129 -62 81 -77 68 rrcurveto
          -173 -4 hlineto
          65 -57 63 -69 37 -106 -4 -3 rcurveline
          9 -29 -38 5 -29 hhcurveto
          -170 -19 -75 -188 -35 callsubr
        </CharString>
        <CharString name="percent">
          272 199 311 0 callgsubr
          -137 -13 -32 -161 -161 13 -31 137 hvcurveto
          -35 -311 rmoveto
          100 hlineto
          447 688 rlineto
          -100 hlineto
          -412 -301 rmoveto
          -15 callgsubr
          476 -395 0 callgsubr
          -138 -12 -32 -161 -161 12 -31 138 hvcurveto
          76 vmoveto
          -15 callgsubr
          endchar
        </CharString>
        <CharString name="period">
          -304 64 hmoveto
          8 callgsubr
          endchar
        </CharString>
        <CharString name="periodcentered">
          -304 64 225 -89 callgsubr
        </CharString>
        <CharString name="perthousand">
          420 181 360 rmoveto
          -22 callsubr
          -101 -360 rmoveto
          101 hlineto
          459 688 rlineto
          -100 hlineto
          -359 -261 rmoveto
          -8 callgsubr
          358 -435 rmoveto
          123 9 29 139 139 -9 29 -123 -122 -9 -29 -139 -139 9 -29 122 hvcurveto
          303 hmoveto
          -22 callsubr
          -303 67 rmoveto
          -45 -1 3 98 98 1 3 45 46 1 -3 -98 -98 -1 -3 -46 hvcurveto
          303 hmoveto
          -8 callgsubr
          endchar
        </CharString>
        <CharString name="pi">
          -17 361 hmoveto
          162 510 -460 -510 163 384 135 hlineto
          endchar
        </CharString>
        <CharString name="plus">
          -64 211 52 -20 callgsubr
          endchar
        </CharString>
        <CharString name="plusminus">
          -64 211 188 -20 callgsubr
          -141 -329 rmoveto
          399 118 -399 hlineto
          endchar
        </CharString>
        <CharString name="product">
          113 469 -189 rmoveto
          175 877 -572 -877 175 741 222 hlineto
          endchar
        </CharString>
        <CharString name="q">
          -20 360 -199 rmoveto
          161 709 -153 hlineto
          -4 -61 rlineto
          -8 hlineto
          57 -31 -57 12 -57 hhcurveto
          -119 -48 -57 -205 -206 47 -57 119 60 50 9 52 33 hvcurveto
          7 hlineto
          -77 75 rmoveto
          -71 -7 8 118 118 7 9 71 36 18 -7 -19 11 hvcurveto
          11 -21 1 -32 -48 vvcurveto
          -47 -1 -30 -8 -18 vhcurveto
          -24 -10 -19 -7 -39 hhcurveto
          endchar
        </CharString>
        <CharString name="question">
          -65 callsubr
        </CharString>
        <CharString name="question.case">
          -65 callsubr
        </CharString>
        <CharString name="questiondown">
          -147 216 362 -63 callgsubr
        </CharString>
        <CharString name="questiondown.case">
          -89 221 540 -63 callgsubr
        </CharString>
        <CharString name="quotedbl">
          -130 82 428 -20 callsubr
          217 -205 -20 callsubr
          endchar
        </CharString>
        <CharString name="quotedblbase">
          -91 57 -79 rmoveto
          -62 -61 callsubr
          -50 -5 callsubr
          221 hmoveto
          -62 -61 callsubr
          -50 -5 callsubr
          endchar
        </CharString>
        <CharString name="quotedblleft">
          -92 64 408 -41 callgsubr
          221 -105 -41 callgsubr
          endchar
        </CharString>
        <CharString name="quotedblright">
          -92 57 469 rmoveto
          -61 -61 callsubr
          -51 -5 callsubr
          221 hmoveto
          -61 -61 callsubr
          -51 -5 callsubr
          endchar
        </CharString>
        <CharString name="quoteleft">
          -313 64 408 -41 callgsubr
          endchar
        </CharString>
        <CharString name="quoteright">
          -313 57 469 rmoveto
          -61 -61 callsubr
          -51 -5 callsubr
          endchar
        </CharString>
        <CharString name="quotesinglbase">
          -313 57 -79 rmoveto
          -62 -61 callsubr
          -50 -5 callsubr
          endchar
        </CharString>
        <CharString name="quotesingle">
          -330 82 428 -20 callsubr
          endchar
        </CharString>
        <CharString name="r">
          -35 callgsubr
          endchar
        </CharString>
        <CharString name="racute">
          -195 142 597 -102 callgsubr
          -81 -602 rmoveto
          -78 callgsubr
          endchar
        </CharString>
        <CharString name="radical">
          123 277 -106 rmoveto
          185 hlineto
          226 876 rlineto
          -143 hlineto
          -184 -729 -151 310 -181 -81 31 -77 57 25 rlineto
          endchar
        </CharString>
        <CharString name="rcaron">
          -195 129 597 -98 callgsubr
          25 -736 rmoveto
          -78 callgsubr
          endchar
        </CharString>
        <CharString name="rcommaaccent">
          -35 callgsubr
          -4 -737 -87 callgsubr
        </CharString>
        <CharString name="registered">
          142 372 696 rmoveto
          5 callsubr
          5 callgsubr
          hvcurveto
          -642 -27 callsubr
          150 354 rmoveto
          76 -13 45 -105 vhcurveto
          -175 -371 92 130 51 hlineto
          13 hlineto
          46 -130 rlineto
          99 hlineto
          -57 143 rlineto
          43 18 6 43 46 vvcurveto
          -201 45 rmoveto
          53 hlineto
          50 4 -7 -39 -38 -4 -8 -53 hvcurveto
          -50 hlineto
          endchar
        </CharString>
        <CharString name="rightCloseDialog">
          20 624 688 rmoveto
          -625 -60 565 -568 -190 hlineto
          -188 -187 rlineto
          -85 vlineto
          213 212 rlineto
          225 hlineto
          -438 60 rmoveto
          -187 -60 187 hlineto
          endchar
        </CharString>
        <CharString name="rightOpenDialog">
          21 625 688 rmoveto
          -626 -60 566 -568 -566 -60 626 hlineto
          endchar
        </CharString>
        <CharString name="ring">
          -271 165 593 -90 callsubr
          endchar
        </CharString>
        <CharString name="s">
          -67 callgsubr
          endchar
        </CharString>
        <CharString name="sacute">
          -105 187 597 -102 callgsubr
          72 -610 -98 callsubr
          endchar
        </CharString>
        <CharString name="sacute.loclPLK">
          -105 187 597 -73 callsubr
          72 -610 -98 callsubr
          endchar
        </CharString>
        <CharString name="scaron">
          -105 177 597 -98 callgsubr
          175 -744 -98 callsubr
          endchar
        </CharString>
        <CharString name="scedilla">
          -105 460 157 rmoveto
          125 -40 19 -68 9 vhcurveto
          -118 14 rlineto
          -43 5 -3 4 27 vvcurveto
          34 17 2 80 35 61 -3 -5 51 -5 callgsubr
          9 -42 -76 6 -64 hhcurveto
          -122 -90 -15 -140 -91 15 -56 86 -11 hvcurveto
          119 -15 rlineto
          47 -6 5 -3 -28 vvcurveto
          -32 -5 -7 -94 -44 -71 4 4 -43 -59 callgsubr
          38 -5 51 -5 49 -2 -70 -179 rcurveline
          -5 146 vlineto
          34 183 rlineto
          95 5 64 28 131 vvcurveto
          endchar
        </CharString>
        <CharString name="scircumflex">
          -105 81 597 -106 callsubr
          178 -612 -98 callsubr
          endchar
        </CharString>
        <CharString name="scommaaccent">
          -67 callgsubr
          -95 -219 -87 callgsubr
        </CharString>
        <CharString name="second">
          -126 50 368 -24 callgsubr
          180 -320 -24 callgsubr
          endchar
        </CharString>
        <CharString name="section">
          85 327 -171 rmoveto
          133 97 23 143 31 -2 28 -9 23 hvcurveto
          82 18 18 55 101 vvcurveto
          128 -44 20 -88 27 vhcurveto
          -173 52 rlineto
          -48 14 -4 3 29 vvcurveto
          34 16 3 88 71 73 -4 -2 18 vhcurveto
          125 vlineto
          4 -15 -77 12 -103 hhcurveto
          -132 -98 -24 -143 -32 1 -28 9 -22 hvcurveto
          -82 -18 -17 -54 -102 vvcurveto
          -128 43 -21 93 -29 vhcurveto
          173 -50 rlineto
          43 -13 5 -3 -28 vvcurveto
          -34 -16 -4 -88 -74 -69 5 2 -19 vhcurveto
          -125 vlineto
          -4 15 77 -12 103 hhcurveto
          138 335 rmoveto
          -8 -13 4 6 -19 hvcurveto
          -183 54 rlineto
          -40 11 -9 9 48 vvcurveto
          47 9 17 20 9 15 -6 -5 19 vhcurveto
          185 -54 rlineto
          35 -10 10 -10 -47 vvcurveto
          -47 -10 -17 -20 vhcurveto
          endchar
        </CharString>
        <CharString name="semicolon">
          -304 64 361 rmoveto
          171 149 -171 hlineto
          -8 -593 -25 callsubr
        </CharString>
        <CharString name="seven">
          -33 100 hmoveto
          191 hlineto
          244 561 rlineto
          127 -502 -140 318 vlineto
          endchar
        </CharString>
        <CharString name="seven.dnom">
          -276 58 hmoveto
          -28 callsubr
          endchar
        </CharString>
        <CharString name="seven.numr">
          -276 58 308 rmoveto
          -28 callsubr
          endchar
        </CharString>
        <CharString name="seven.tnum">
          54 144 hmoveto
          190 hlineto
          264 561 rlineto
          127 -541 -140 358 vlineto
          endchar
        </CharString>
        <CharString name="seveneighths">
          231 58 308 rmoveto
          -28 callsubr
          -108 -608 rmoveto
          -45 callgsubr
          -101 hlineto
          102 -692 -96 callgsubr
        </CharString>
        <CharString name="six">
          58 343 -8 rmoveto
          220 47 66 172 170 -75 34 -147 -102 -37 -32 -16 -14 hvcurveto
          -6 hlineto
          148 17 24 137 38 77 -5 -8 73 vhcurveto
          129 vlineto
          13 -73 -92 9 -56 hhcurveto
          -153 -77 -31 -92 -37 hvcurveto
          -21 -53 -7 -75 -103 vvcurveto
          -124 8 -81 21 -44 vhcurveto
          -87 41 76 -14 142 11 callgsubr
          9 21 95 7 callsubr
        </CharString>
        <CharString name="six.dnom">
          -226 197 -4 -66 callsubr
        </CharString>
        <CharString name="six.numr">
          -226 197 304 -66 callsubr
        </CharString>
        <CharString name="six.ss01">
          42 323 -8 rmoveto
          240 44 86 135 123 -26 96 -184 -53 -40 -6 -13 -34 hvcurveto
          -3 4 59 106 114 101 74 57 rlinecurve
          7 -202 vlineto
          -112 -89 -162 -182 -179 vvcurveto
          -153 44 -93 241 vhcurveto
          135 vmoveto
          -83 -29 4 90 59 20 18 92 94 24 -6 -80 -75 -22 -10 -96 hvcurveto
          endchar
        </CharString>
        <CharString name="six.tnum">
          54 343 -8 rmoveto
          219 48 66 172 170 -75 34 -147 -92 -42 -24 -24 -20 hvcurveto
          -6 hlineto
          148 17 24 137 39 76 -5 -8 74 vhcurveto
          129 vlineto
          12 -71 -92 10 -58 hhcurveto
          -140 -77 -27 -74 -38 hvcurveto
          -31 -56 -10 -80 -117 vvcurveto
          -125 9 -80 21 -46 vhcurveto
          -86 41 75 -13 143 11 callgsubr
          8 21 96 7 callsubr
        </CharString>
        <CharString name="slash">
          -195 -9 -55 rmoveto
          135 hlineto
          290 798 rlineto
          -136 hlineto
          endchar
        </CharString>
        <CharString name="space">
          -351 endchar
        </CharString>
        <CharString name="sterling">
          -2 292 138 rmoveto
          150 182 131 -182 vlineto
          68 6 35 28 19 vhcurveto
          14 19 34 3 52 hhcurveto
          25 51 -4 -5 42 hvcurveto
          129 vlineto
          10 -38 -68 8 -55 hhcurveto
          -217 -53 -72 -205 hvcurveto
          -75 -131 74 -150 -74 -138 517 138 hlineto
          endchar
        </CharString>
        <CharString name="summation">
          104 67 -189 rmoveto
          572 136 -359 hlineto
          278 302 -278 303 rlineto
          359 136 -572 -132 hlineto
          282 -307 -282 -306 rlineto
          endchar
        </CharString>
        <CharString name="t">
          -197 112 hmoveto
          -53 callgsubr
          endchar
        </CharString>
        <CharString name="tbar">
          -197 385 385 rmoveto
          125 -110 148 -163 -148 -92 -125 92 -102 -91 -118 91 -165 163 165 110 118 -110 102 vlineto
          endchar
        </CharString>
        <CharString name="tcaron">
          -99 416 428 -44 callsubr
          -317 -633 rmoveto
          -53 callgsubr
          endchar
        </CharString>
        <CharString name="thorn">
          -21 61 -189 rmoveto
          161 243 -14 callgsubr
          -54 -10 -58 -30 hvcurveto
          -9 293 -161 hlineto
          238 -614 rmoveto
          -40 -20 7 29 -9 hvcurveto
          -7 17 -1 30 43 vvcurveto
          43 1 30 10 21 vhcurveto
          26 10 18 7 38 -1 callgsubr
        </CharString>
        <CharString name="three">
          2 271 -8 rmoveto
          229 50 76 116 112 -45 35 -80 18 hvcurveto
          4 vlineto
          79 18 40 44 100 vvcurveto
          117 -63 64 -209 -66 -93 -9 -13 -59 vhcurveto
          -129 vlineto
          7 52 81 6 58 hhcurveto
          100 24 -3 -68 -61 -23 -10 -63 hvcurveto
          -115 -136 115 hlineto
          71 21 -12 -66 -70 -31 -2 -89 -49 -85 5 7 -71 hvcurveto
          -128 vlineto
          -12 60 94 -10 67 hhcurveto
          endchar
        </CharString>
        <CharString name="three.dnom">
          -255 156 -4 -77 callsubr
          endchar
        </CharString>
        <CharString name="three.numr">
          -255 156 304 -77 callsubr
          endchar
        </CharString>
        <CharString name="three.tnum">
          54 296 -8 rmoveto
          229 49 76 116 112 -45 35 -79 18 hvcurveto
          4 vlineto
          78 18 40 44 100 vvcurveto
          117 -63 64 -208 -67 -92 -9 -13 -59 vhcurveto
          -129 vlineto
          7 51 81 6 58 hhcurveto
          101 23 -3 -68 -61 -23 -10 -62 hvcurveto
          -115 -136 115 hlineto
          71 20 -12 -66 -70 -31 -2 -89 -49 -84 5 7 -71 hvcurveto
          -128 vlineto
          -12 60 93 -10 68 hhcurveto
          endchar
        </CharString>
        <CharString name="threeeighths">
          295 156 304 -77 callsubr
          -2 -304 rmoveto
          -45 callgsubr
          -101 hlineto
          102 -692 -96 callgsubr
        </CharString>
        <CharString name="threequarters">
          217 40 402 rmoveto
          -24 callsubr
          -22 25 -34 10 hvcurveto
          4 vlineto
          34 13 -14 callsubr
          26 hhcurveto
          48 11 -3 -30 -28 -11 -28 callgsubr
          -24 -43 3 4 -49 hvcurveto
          108 -402 rmoveto
          -45 callgsubr
          -102 hlineto
          34 -688 rmoveto
          106 -26 callsubr
          175 vlineto
          endchar
        </CharString>
        <CharString name="tilde">
          -174 409 743 -107 callsubr
          endchar
        </CharString>
        <CharString name="tildecomb">
          -20 743 -107 callsubr
          endchar
        </CharString>
        <CharString name="tildecomb.case">
          -20 888 -107 callsubr
          endchar
        </CharString>
        <CharString name="trademark">
          193 151 387 rmoveto
          83 226 93 75 -268 -75 92 hlineto
          216 -226 rmoveto
          78 194 4 hlineto
          71 -194 rlineto
          51 hlineto
          72 194 rlineto
          4 -194 78 301 -111 hlineto
          -64 -173 rlineto
          -6 hlineto
          -66 173 rlineto
          -111 hlineto
          endchar
        </CharString>
        <CharString name="two">
          7 220 155 rmoveto
          27 2 15 8 13 vhcurveto
          7 10 13 7 19 -16 callgsubr
          -76 -102 -27 callgsubr
          -106 -44 -6 -2 callsubr
        </CharString>
        <CharString name="two.dnom">
          -252 131 87 -64 callsubr
        </CharString>
        <CharString name="two.numr">
          -252 131 395 -64 callsubr
        </CharString>
        <CharString name="two.tnum">
          54 245 155 rmoveto
          28 1 15 9 12 vhcurveto
          7 10 15 7 17 -16 callgsubr
          -77 -101 -27 callgsubr
          -107 -44 -5 -2 callsubr
        </CharString>
        <CharString name="u">
          -14 375 hmoveto
          153 510 -161 -102 callsubr
          endchar
        </CharString>
        <CharString name="uacute">
          -14 240 597 -102 callgsubr
          135 -602 rmoveto
          153 510 -161 -102 callsubr
          endchar
        </CharString>
        <CharString name="ubreve">
          -14 447 743 -103 callsubr
          -72 -743 rmoveto
          153 510 -161 -102 callsubr
          endchar
        </CharString>
        <CharString name="ucircumflex">
          -14 126 597 -106 callsubr
          249 -604 rmoveto
          153 510 -161 -102 callsubr
          endchar
        </CharString>
        <CharString name="udieresis">
          -14 126 -72 callgsubr
          43 -730 rmoveto
          153 510 -161 -102 callsubr
          endchar
        </CharString>
        <CharString name="ugrave">
          -14 245 597 -92 callsubr
          262 -738 rmoveto
          153 510 -161 -102 callsubr
          endchar
        </CharString>
        <CharString name="uhorn">
          -14 508 600 rmoveto
          -25 vlineto
          -50 -7 -15 -57 vhcurveto
          -77 -102 callsubr
          4 -61 rlineto
          153 454 hlineto
          73 13 12 36 80 vvcurveto
          17 vlineto
          endchar
        </CharString>
        <CharString name="uhungarumlaut">
          -14 155 609 -80 callgsubr
          31 -614 rmoveto
          153 510 -161 -102 callsubr
          endchar
        </CharString>
        <CharString name="umacron">
          -14 158 610 -69 callgsubr
          217 -743 rmoveto
          153 510 -161 -102 callsubr
          endchar
        </CharString>
        <CharString name="underscore">
          -215 -186 vmoveto
          388 119 -388 hlineto
          endchar
        </CharString>
        <CharString name="underscoredbl">
          -215 -168 vmoveto
          388 103 -388 hlineto
          -228 vmoveto
          388 103 -388 hlineto
          endchar
        </CharString>
        <CharString name="uni00AD">
          -3 callgsubr
        </CharString>
        <CharString name="uni00B2">
          -234 148 413 rmoveto
          -56 callsubr
          91 -178 vlineto
          endchar
        </CharString>
        <CharString name="uni00B3">
          -238 165 306 rmoveto
          128 27 43 67 51 -21 25 -34 10 hvcurveto
          4 vlineto
          33 13 -18 callsubr
          -36 -52 -5 -8 -36 vhcurveto
          -84 vlineto
          5 42 40 3 27 hhcurveto
          47 11 -3 -30 -28 -10 -5 -27 hvcurveto
          -69 -77 69 hlineto
          32 9 -5 -30 -32 -14 -2 -43 -23 -44 3 4 -49 hvcurveto
          -83 vlineto
          -7 36 52 -6 38 hhcurveto
          endchar
        </CharString>
        <CharString name="uni00B5">
          -47 callsubr
        </CharString>
        <CharString name="uni00B9">
          -339 -57 callgsubr
          endchar
        </CharString>
        <CharString name="uni0162">
          -17 16 688 rmoveto
          -148 190 -540 32 vlineto
          -11 callsubr
          35 190 rlineto
          34 540 191 148 hlineto
          endchar
        </CharString>
        <CharString name="uni0163">
          -197 275 510 rmoveto
          148 -163 -148 -92 -125 92 -385 27 vlineto
          -11 callsubr
          35 190 rlineto
          28 385 110 125 hlineto
          endchar
        </CharString>
        <CharString name="uni018F">
          79 331 696 rmoveto
          -66 -83 -7 -10 -50 hvcurveto
          -134 vlineto
          6 44 64 4 48 hhcurveto
          136 24 -13 -124 3 hvcurveto
          -396 -74 hlineto
          -276 8 -76 276 278 9 76 276 267 -35 85 -260 vhcurveto
          9 -567 rmoveto
          -96 -14 4 144 -2 hvcurveto
          225 hlineto
          -144 -2 -15 -4 -96 hhcurveto
          endchar
        </CharString>
        <CharString name="uni019D">
          111 476 688 rmoveto
          -357 -5 vlineto
          -221 357 rlineto
          -179 -720 hlineto
          -38 -5 -14 -77 -59 callgsubr
          204 44 18 186 hvcurveto
          389 5 vlineto
          238 -393 rlineto
          163 688 hlineto
          endchar
        </CharString>
        <CharString name="uni01C4">
          701 910 742 -98 callgsubr
          -744 -881 rmoveto
          -62 callsubr
        </CharString>
        <CharString name="uni01C5">
          606 870 597 -98 callgsubr
          -704 -736 rmoveto
          -78 callsubr
          416 -141 rmoveto
          -84 callsubr
          endchar
        </CharString>
        <CharString name="uni01C6">
          503 -80 callsubr
          558 605 -98 callgsubr
          -51 -736 rmoveto
          -84 callsubr
          -342 10 -75 callsubr
          endchar
        </CharString>
        <CharString name="uni01C7">
          344 73 hmoveto
          -51 callgsubr
          493 -558 -73 callgsubr
        </CharString>
        <CharString name="uni01C8">
          225 603 -48 callsubr
          -530 -743 rmoveto
          -51 callgsubr
          449 -888 -77 callgsubr
        </CharString>
        <CharString name="uni01C9">
          -33 61 hmoveto
          -33 callgsubr
          284 -132 -51 callsubr
          -81 -943 -77 callgsubr
        </CharString>
        <CharString name="uni01CA">
          515 480 hmoveto
          -82 callgsubr
          495 -263 -73 callgsubr
        </CharString>
        <CharString name="uni01CB">
          396 774 -48 callsubr
          -294 -743 rmoveto
          -82 callgsubr
          451 -593 -77 callgsubr
        </CharString>
        <CharString name="uni01CC">
          271 649 -48 callsubr
          -282 -743 rmoveto
          -89 callsubr
          201 -469 -77 callgsubr
        </CharString>
        <CharString name="uni01CD">
          89 272 742 -98 callgsubr
          328 -881 rmoveto
          -103 callgsubr
          endchar
        </CharString>
        <CharString name="uni01CD.ss01">
          84 269 742 -98 callgsubr
          269 -881 rmoveto
          -105 callgsubr
          endchar
        </CharString>
        <CharString name="uni01CE">
          -39 207 597 -98 callgsubr
          71 -744 -107 callgsubr
          endchar
        </CharString>
        <CharString name="uni01CF">
          -287 83 742 -98 callgsubr
          81 -881 -61 callgsubr
        </CharString>
        <CharString name="uni01D0">
          -318 67 597 -98 callgsubr
          87 -736 -69 callsubr
          endchar
        </CharString>
        <CharString name="uni01D1">
          104 279 742 -98 callgsubr
          168 -889 -105 callsubr
          endchar
        </CharString>
        <CharString name="uni01D2">
          -33 210 597 -98 callgsubr
          168 -744 -104 callsubr
          endchar
        </CharString>
        <CharString name="uni01D3">
          84 269 742 -98 callgsubr
          269 -193 rmoveto
          -414 vlineto
          -101 callsubr
          377 vlineto
          endchar
        </CharString>
        <CharString name="uni01D4">
          -14 220 597 -98 callgsubr
          248 -736 rmoveto
          153 510 -161 -102 callsubr
          endchar
        </CharString>
        <CharString name="uni01D5">
          84 306 873 rmoveto
          75 -109 131 111 -28 114 -275 -114 -34 -111 131 hlineto
          139 -76 rmoveto
          -414 vlineto
          -101 callsubr
          377 vlineto
          endchar
        </CharString>
        <CharString name="uni01D6">
          -14 160 770 -69 callgsubr
          -34 -284 -92 callgsubr
          43 -730 rmoveto
          153 510 -161 -102 callsubr
          endchar
        </CharString>
        <CharString name="uni01D7">
          6 callgsubr
          -109 hlineto
          126 135 rlineto
          -23 callgsubr
          -90 -140 rlineto
          -109 -111 131 hlineto
          139 -76 rmoveto
          -414 vlineto
          -101 callsubr
          377 vlineto
          endchar
        </CharString>
        <CharString name="uni01D8">
          -14 235 757 -102 callgsubr
          -109 -143 -92 callgsubr
          43 -730 rmoveto
          153 510 -161 -102 callsubr
          endchar
        </CharString>
        <CharString name="uni01D9">
          6 callgsubr
          -88 hlineto
          91 133 rlineto
          7 -104 vlineto
          -64 -80 -66 80 rlineto
          -103 -7 hlineto
          89 -133 rlineto
          -92 -111 131 hlineto
          139 -76 rmoveto
          -414 vlineto
          -101 callsubr
          377 vlineto
          endchar
        </CharString>
        <CharString name="uni01DA">
          -14 222 757 -98 callgsubr
          -3 -277 -92 callgsubr
          43 -730 rmoveto
          153 510 -161 -102 callsubr
          endchar
        </CharString>
        <CharString name="uni01DB">
          84 175 875 rmoveto
          -111 131 105 75 -105 131 111 -103 vlineto
          -90 140 rlineto
          -155 -5 hlineto
          126 -135 rlineto
          155 -187 rmoveto
          -414 vlineto
          -101 callsubr
          377 vlineto
          endchar
        </CharString>
        <CharString name="uni01DC">
          -14 247 757 -92 callsubr
          11 -279 -92 callgsubr
          43 -730 rmoveto
          153 510 -161 -102 callsubr
          endchar
        </CharString>
        <CharString name="uni01EA">
          97 472 -196 rmoveto
          18 26 2 1 24 hvcurveto
          83 vlineto
          -1 -6 -7 0 -5 hhcurveto
          -36 -10 15 17 40 31 37 50 25 hvcurveto
          84 44 4 95 182 vvcurveto
          276 -9 76 -287 -16 callsubr
          16 16 0 1 14 vhcurveto
          -31 -33 -18 -37 -35 vvcurveto
          -45 27 -39 99 vhcurveto
          -123 326 -29 callsubr
        </CharString>
        <CharString name="uni01EB">
          -33 285 518 rmoveto
          6 callsubr
          -208 12 -53 226 -2 hvcurveto
          19 hlineto
          -27 -33 -17 -36 -35 vvcurveto
          -45 27 -39 100 25 33 2 1 10 vhcurveto
          -10 callgsubr
          -37 -9 15 19 45 42 36 29 15 hvcurveto
          62 36 5 66 134 vvcurveto
          206 -12 57 -229 vhcurveto
          -80 -263 rmoveto
          127 0 11 80 80 0 -11 -127 -126 0 -12 -80 -80 0 12 126 vhcurveto
          endchar
        </CharString>
        <CharString name="uni01F1">
          701 73 hmoveto
          -62 callsubr
        </CharString>
        <CharString name="uni01F2">
          606 73 hmoveto
          -78 callsubr
          416 -141 rmoveto
          -84 callsubr
          endchar
        </CharString>
        <CharString name="uni01F3">
          503 -80 callsubr
          414 8 rmoveto
          -84 callsubr
          -342 10 -75 callsubr
          endchar
        </CharString>
        <CharString name="uni01F4">
          66 271 -75 callgsubr
          169 -477 -96 callsubr
          endchar
        </CharString>
        <CharString name="uni01F4.ss01">
          79 278 -75 callgsubr
          85 -755 -95 callgsubr
          endchar
        </CharString>
        <CharString name="uni01F5">
          -21 229 597 -102 callgsubr
          36 -808 -101 callgsubr
        </CharString>
        <CharString name="uni0200">
          89 311 754 -97 callgsubr
          101 -754 rmoveto
          -103 callgsubr
          endchar
        </CharString>
        <CharString name="uni0200.ss01">
          84 308 754 -97 callgsubr
          42 -754 rmoveto
          -105 callgsubr
          endchar
        </CharString>
        <CharString name="uni0201">
          -39 246 609 -97 callgsubr
          -156 -617 -107 callgsubr
          endchar
        </CharString>
        <CharString name="uni0202">
          89 195 744 -87 callsubr
          312 -744 rmoveto
          -103 callgsubr
          endchar
        </CharString>
        <CharString name="uni0202.ss01">
          84 192 744 -87 callsubr
          253 -744 rmoveto
          -105 callgsubr
          endchar
        </CharString>
        <CharString name="uni0203">
          -39 130 599 -87 callsubr
          55 -607 -107 callgsubr
          endchar
        </CharString>
        <CharString name="uni0204">
          12 272 754 -97 callgsubr
          -294 -754 rmoveto
          -94 callsubr
          endchar
        </CharString>
        <CharString name="uni0205">
          -48 242 609 -97 callgsubr
          172 -355 -104 callgsubr
          endchar
        </CharString>
        <CharString name="uni0206">
          12 156 744 -87 callsubr
          -83 -744 rmoveto
          -94 callsubr
          endchar
        </CharString>
        <CharString name="uni0207">
          -48 279 661 -49 callgsubr
          230 -407 -104 callgsubr
          endchar
        </CharString>
        <CharString name="uni0208">
          -287 122 754 -97 callgsubr
          -146 -754 -61 callgsubr
        </CharString>
        <CharString name="uni0209">
          -318 106 609 -97 callgsubr
          -140 -609 -69 callsubr
          endchar
        </CharString>
        <CharString name="uni020A">
          -287 6 744 -87 callsubr
          65 -744 -61 callgsubr
        </CharString>
        <CharString name="uni020B">
          -318 -10 599 -87 callsubr
          71 -599 -69 callsubr
          endchar
        </CharString>
        <CharString name="uni020C">
          104 318 754 -97 callgsubr
          -59 -762 -105 callsubr
          endchar
        </CharString>
        <CharString name="uni020D">
          -33 249 609 -97 callgsubr
          -59 -617 -104 callsubr
          endchar
        </CharString>
        <CharString name="uni020E">
          104 202 744 -87 callsubr
          152 -752 -105 callsubr
          endchar
        </CharString>
        <CharString name="uni020F">
          -33 133 599 -87 callsubr
          152 -607 -104 callsubr
          endchar
        </CharString>
        <CharString name="uni0210">
          76 304 754 -97 callgsubr
          241 -754 rmoveto
          -81 callsubr
        </CharString>
        <CharString name="uni0210.ss01">
          72 301 754 -97 callgsubr
          218 -583 -94 callgsubr
          endchar
        </CharString>
        <CharString name="uni0211">
          -195 168 609 -97 callgsubr
          -202 -609 rmoveto
          -78 callgsubr
          endchar
        </CharString>
        <CharString name="uni0212">
          76 341 806 -49 callgsubr
          299 -806 rmoveto
          -81 callsubr
        </CharString>
        <CharString name="uni0212.ss01">
          72 338 806 -49 callgsubr
          276 -635 -94 callgsubr
          endchar
        </CharString>
        <CharString name="uni0213">
          -195 52 599 -87 callsubr
          9 -599 rmoveto
          -78 callgsubr
          endchar
        </CharString>
        <CharString name="uni0214">
          84 308 754 -97 callgsubr
          42 -66 rmoveto
          -414 vlineto
          -101 callsubr
          377 vlineto
          endchar
        </CharString>
        <CharString name="uni0215">
          -14 259 609 -97 callgsubr
          21 -609 rmoveto
          153 510 -161 -102 callsubr
          endchar
        </CharString>
        <CharString name="uni0216">
          84 192 744 -87 callsubr
          253 -56 rmoveto
          -414 vlineto
          -101 callsubr
          377 vlineto
          endchar
        </CharString>
        <CharString name="uni0217">
          -14 143 599 -87 callsubr
          232 -599 rmoveto
          153 510 -161 -102 callsubr
          endchar
        </CharString>
        <CharString name="uni021A">
          -17 206 hmoveto
          -40 callgsubr
          2 -767 -87 callgsubr
        </CharString>
        <CharString name="uni021B">
          -197 112 hmoveto
          -53 callgsubr
          -3 -612 -87 callgsubr
        </CharString>
        <CharString name="uni0232">
          32 180 755 -69 callgsubr
          50 -888 rmoveto
          -85 callgsubr
          endchar
        </CharString>
        <CharString name="uni0232.loclGUA">
          33 455 888 3 callsubr
          -35 -67 -93 callsubr
          endchar
        </CharString>
        <CharString name="uni0233">
          -14 158 610 -69 callgsubr
          118 -949 -99 callsubr
          endchar
        </CharString>
        <CharString name="uni0233.loclGUA">
          -55 424 743 3 callsubr
          -51 -100 -85 callsubr
        </CharString>
        <CharString name="uni0237">
          -318 -21 -200 -77 callgsubr
        </CharString>
        <CharString name="uni0259">
          -48 257 518 rmoveto
          -68 -80 -7 -11 -43 hvcurveto
          -115 vlineto
          5 51 63 3 39 hhcurveto
          125 7 -9 -89 hvcurveto
          -305 -39 hlineto
          -191 5 -73 221 221 18 78 186 189 -16 73 -238 vhcurveto
          16 -409 rmoveto
          -62 -14 8 95 hvcurveto
          154 hlineto
          -91 -9 -12 -69 vhcurveto
          endchar
        </CharString>
        <CharString name="uni0272">
          -14 -21 -200 rmoveto
          200 43 18 186 hvcurveto
          262 vlineto
          92 7 23 68 64 6 -6 -106 vhcurveto
          -269 -32 callsubr
          9 callgsubr
          -65 -19 callgsubr
          vhcurveto
          -9 hlineto
          -4 61 -13 callsubr
          -542 hlineto
          -38 -5 -14 -77 vhcurveto
          endchar
        </CharString>
        <CharString name="uni02BC">
          -398 -26 callgsubr
          endchar
        </CharString>
        <CharString name="uni02C9">
          -229 50 610 -69 callgsubr
          endchar
        </CharString>
        <CharString name="uni0302">
          -356 597 -106 callsubr
          endchar
        </CharString>
        <CharString name="uni0302.case">
          -356 742 -106 callsubr
          endchar
        </CharString>
        <CharString name="uni03020300">
          -127 770 -92 callsubr
          -97 -314 -106 callsubr
          endchar
        </CharString>
        <CharString name="uni03020300.case">
          -127 915 -92 callsubr
          -97 -314 -106 callsubr
          endchar
        </CharString>
        <CharString name="uni03020301">
          -174 770 -82 callsubr
          endchar
        </CharString>
        <CharString name="uni03020301.case">
          -174 915 -82 callsubr
          endchar
        </CharString>
        <CharString name="uni03020303">
          8 916 -107 callsubr
          -364 -319 -106 callsubr
          endchar
        </CharString>
        <CharString name="uni03020303.case">
          8 1061 -107 callsubr
          -364 -319 -106 callsubr
          endchar
        </CharString>
        <CharString name="uni03020309">
          -146 762 -106 callgsubr
          -210 -170 -106 callsubr
          endchar
        </CharString>
        <CharString name="uni03020309.case">
          -146 908 -106 callgsubr
          -210 -171 -106 callsubr
          endchar
        </CharString>
        <CharString name="uni0304">
          -324 610 -69 callgsubr
          endchar
        </CharString>
        <CharString name="uni0304.case">
          -324 755 -69 callgsubr
          endchar
        </CharString>
        <CharString name="uni0306">
          -20 743 -103 callsubr
          endchar
        </CharString>
        <CharString name="uni0306.case">
          -20 888 -103 callsubr
          endchar
        </CharString>
        <CharString name="uni03060300">
          -220 770 -92 callsubr
          332 -168 -103 callsubr
          endchar
        </CharString>
        <CharString name="uni03060300.case">
          -220 915 -92 callsubr
          332 -168 -103 callsubr
          endchar
        </CharString>
        <CharString name="uni03060301">
          -240 770 -102 callgsubr
          220 -32 -103 callsubr
          endchar
        </CharString>
        <CharString name="uni03060301.case">
          -240 915 -102 callgsubr
          220 -32 -103 callsubr
          endchar
        </CharString>
        <CharString name="uni03060303">
          25 951 -84 callgsubr
          endchar
        </CharString>
        <CharString name="uni03060303.case">
          25 1096 -84 callgsubr
          endchar
        </CharString>
        <CharString name="uni03060309">
          -228 748 -79 callsubr
          endchar
        </CharString>
        <CharString name="uni03060309.case">
          -228 893 -79 callsubr
          endchar
        </CharString>
        <CharString name="uni0307">
          -151 -48 callgsubr
          endchar
        </CharString>
        <CharString name="uni0307.case">
          -151 -53 callsubr
          endchar
        </CharString>
        <CharString name="uni0308">
          -355 -72 callgsubr
          endchar
        </CharString>
        <CharString name="uni0308.case">
          -355 764 -92 callgsubr
          endchar
        </CharString>
        <CharString name="uni030A">
          -167 593 -90 callsubr
          endchar
        </CharString>
        <CharString name="uni030A.case">
          -167 708 -90 callsubr
          endchar
        </CharString>
        <CharString name="uni030B">
          -415 609 -80 callgsubr
          endchar
        </CharString>
        <CharString name="uni030B.case">
          -415 754 -80 callgsubr
          endchar
        </CharString>
        <CharString name="uni030C">
          -263 597 -98 callgsubr
          endchar
        </CharString>
        <CharString name="uni030C.case">
          -263 742 -98 callgsubr
          endchar
        </CharString>
        <CharString name="uni030F">
          -209 609 -97 callgsubr
          endchar
        </CharString>
        <CharString name="uni030F.case">
          -209 754 -97 callgsubr
          endchar
        </CharString>
        <CharString name="uni0311">
          -324 599 -87 callsubr
          endchar
        </CharString>
        <CharString name="uni0311.case">
          -324 744 -87 callsubr
          endchar
        </CharString>
        <CharString name="uni0312">
          -207 -21 callgsubr
          endchar
        </CharString>
        <CharString name="uni031B">
          -302 510 rmoveto
          -52 -61 52 hlineto
          149 20 30 104 hvcurveto
          17 -105 -25 vlineto
          -50 -7 -15 -57 vhcurveto
          endchar
        </CharString>
        <CharString name="uni0326">
          -233 -227 -87 callgsubr
        </CharString>
        <CharString name="uni0327">
          -202 -10 callsubr
        </CharString>
        <CharString name="uni0328">
          -193 vmoveto
          -40 callsubr
        </CharString>
        <CharString name="uni0335">
          -325 289 rmoveto
          318 118 -318 hlineto
          endchar
        </CharString>
        <CharString name="uni0336">
          -71 473 rmoveto
          118 -568 -118 vlineto
          endchar
        </CharString>
        <CharString name="uni0394">
          -36 callgsubr
        </CharString>
        <CharString name="uni03A9">
          -68 callgsubr
        </CharString>
        <CharString name="uni03BC">
          -47 callsubr
        </CharString>
        <CharString name="uni1E0C">
          82 73 hmoveto
          -78 callsubr
          -55 -352 -89 callgsubr
        </CharString>
        <CharString name="uni1E0D">
          -21 -80 callsubr
          72 136 -75 callsubr
          -78 -339 -89 callgsubr
        </CharString>
        <CharString name="uni1E24">
          107 465 hmoveto
          -43 callsubr
          -196 -481 -89 callgsubr
        </CharString>
        <CharString name="uni1E25">
          -14 367 hmoveto
          -62 callgsubr
          -158 -480 -89 callgsubr
        </CharString>
        <CharString name="uni1E44">
          111 291 -53 callsubr
          189 -875 rmoveto
          -82 callgsubr
          endchar
        </CharString>
        <CharString name="uni1E45">
          -14 229 -48 callgsubr
          138 -730 rmoveto
          -89 callsubr
          endchar
        </CharString>
        <CharString name="uni1E5A">
          -52 callsubr
          -83 -590 -89 callgsubr
        </CharString>
        <CharString name="uni1E5A.ss01">
          -60 callgsubr
          -97 -590 -89 callgsubr
        </CharString>
        <CharString name="uni1E5B">
          -35 callgsubr
          -5 -721 -89 callgsubr
        </CharString>
        <CharString name="uni1E62">
          -71 callsubr
          -101 -203 -89 callgsubr
        </CharString>
        <CharString name="uni1E63">
          -67 callgsubr
          -96 -203 -89 callgsubr
        </CharString>
        <CharString name="uni1E6C">
          -17 206 hmoveto
          -40 callgsubr
          1 -751 -89 callgsubr
        </CharString>
        <CharString name="uni1E6D">
          -197 112 hmoveto
          -53 callgsubr
          -4 -596 -89 callgsubr
        </CharString>
        <CharString name="uni1E92">
          16 43 hmoveto
          -79 callgsubr
          181 -347 -89 callgsubr
        </CharString>
        <CharString name="uni1E93">
          -79 43 hmoveto
          -84 callsubr
          133 -329 -89 callgsubr
        </CharString>
        <CharString name="uni1E9E">
          142 518 379 rmoveto
          142 165 rlineto
          118 vlineto
          18 -79 -115 16 -104 hhcurveto
          -253 -42 -72 -290 hvcurveto
          -334 174 334 vlineto
          204 7 20 147 15 28 -1 -3 33 vhcurveto
          -136 -156 rlineto
          -118 98 vlineto
          68 19 -12 -66 -63 -17 -9 -86 -27 -47 5 7 -38 hvcurveto
          -128 vlineto
          -12 37 59 -10 43 hhcurveto
          191 60 66 126 140 -54 46 -123 9 hvcurveto
          endchar
        </CharString>
        <CharString name="uni1EA0">
          89 507 hmoveto
          -103 callgsubr
          -79 -745 -89 callgsubr
        </CharString>
        <CharString name="uni1EA0.ss01">
          84 445 hmoveto
          -105 callgsubr
          -187 -625 -89 callgsubr
        </CharString>
        <CharString name="uni1EA1">
          -39 185 -8 -107 callgsubr
          -65 -320 -89 callgsubr
        </CharString>
        <CharString name="uni1EA2">
          89 278 728 -106 callgsubr
          229 -733 rmoveto
          -103 callgsubr
          endchar
        </CharString>
        <CharString name="uni1EA2.ss01">
          84 275 728 -106 callgsubr
          170 -733 rmoveto
          -105 callgsubr
          endchar
        </CharString>
        <CharString name="uni1EA3">
          -39 213 609 -106 callgsubr
          -28 -622 -107 callgsubr
          endchar
        </CharString>
        <CharString name="uni1EA4">
          89 359 915 -82 callsubr
          330 -749 rmoveto
          -103 callgsubr
          endchar
        </CharString>
        <CharString name="uni1EA4.ss01">
          84 356 915 -82 callsubr
          271 -749 rmoveto
          -105 callgsubr
          endchar
        </CharString>
        <CharString name="uni1EA5">
          -39 294 770 -82 callsubr
          73 -612 -107 callgsubr
          endchar
        </CharString>
        <CharString name="uni1EA6">
          89 402 915 -92 callsubr
          -97 -314 -106 callsubr
          334 -749 rmoveto
          -103 callgsubr
          endchar
        </CharString>
        <CharString name="uni1EA6.ss01">
          84 399 915 -92 callsubr
          -97 -314 -106 callsubr
          275 -749 rmoveto
          -105 callgsubr
          endchar
        </CharString>
        <CharString name="uni1EA7">
          -39 337 770 -92 callsubr
          -97 -314 -106 callsubr
          77 -612 -107 callgsubr
          endchar
        </CharString>
        <CharString name="uni1EA8">
          89 389 908 -106 callgsubr
          -210 -171 -106 callsubr
          328 -749 rmoveto
          -103 callgsubr
          endchar
        </CharString>
        <CharString name="uni1EA8.ss01">
          84 386 908 -106 callgsubr
          -210 -171 -106 callsubr
          269 -749 rmoveto
          -105 callgsubr
          endchar
        </CharString>
        <CharString name="uni1EA9">
          -39 324 762 -106 callgsubr
          -210 -170 -106 callsubr
          71 -612 -107 callgsubr
          endchar
        </CharString>
        <CharString name="uni1EAA">
          89 541 1061 -107 callsubr
          -364 -319 -106 callsubr
          330 -749 rmoveto
          -103 callgsubr
          endchar
        </CharString>
        <CharString name="uni1EAA.ss01">
          84 538 1061 -107 callsubr
          -364 -319 -106 callsubr
          271 -749 rmoveto
          -105 callgsubr
          endchar
        </CharString>
        <CharString name="uni1EAB">
          -39 476 916 -107 callsubr
          -364 -319 -106 callsubr
          73 -612 -107 callgsubr
          endchar
        </CharString>
        <CharString name="uni1EAC">
          89 179 742 -106 callsubr
          328 -749 rmoveto
          -103 callgsubr
          -79 -745 -89 callgsubr
        </CharString>
        <CharString name="uni1EAC.ss01">
          84 176 742 -106 callsubr
          269 -749 rmoveto
          -105 callgsubr
          -187 -625 -89 callgsubr
        </CharString>
        <CharString name="uni1EAD">
          -39 114 597 -106 callsubr
          71 -612 -107 callgsubr
          -65 -320 -89 callgsubr
        </CharString>
        <CharString name="uni1EAE">
          89 278 915 -102 callgsubr
          220 -32 -103 callsubr
          9 -888 rmoveto
          -103 callgsubr
          endchar
        </CharString>
        <CharString name="uni1EAE.ss01">
          84 275 915 -102 callgsubr
          220 -32 -103 callsubr
          -50 -888 rmoveto
          -105 callgsubr
          endchar
        </CharString>
        <CharString name="uni1EAF">
          -39 201 770 -102 callgsubr
          220 -32 -103 callsubr
          -236 -751 -107 callgsubr
          endchar
        </CharString>
        <CharString name="uni1EB0">
          89 305 915 -92 callsubr
          332 -168 -103 callsubr
          2 -888 rmoveto
          -103 callgsubr
          endchar
        </CharString>
        <CharString name="uni1EB0.ss01">
          84 302 915 -92 callsubr
          332 -168 -103 callsubr
          -57 -888 rmoveto
          -105 callgsubr
          endchar
        </CharString>
        <CharString name="uni1EB1">
          -39 248 770 -92 callsubr
          332 -168 -103 callsubr
          -263 -751 -107 callgsubr
          endchar
        </CharString>
        <CharString name="uni1EB2">
          89 289 893 -79 callsubr
          10 -888 rmoveto
          -103 callgsubr
          endchar
        </CharString>
        <CharString name="uni1EB2.ss01">
          84 343 945 rmoveto
          -18 -5 -34 -9 -11 -9 -3 -34 rlinecurve
          -85 hlineto
          -88 17 -62 134 -72 callsubr
          vhcurveto
          -89 hlineto
          -37 -1 -25 -63 -51 -10 16 26 -2 vhcurveto
          82 hlineto
          16 3 5 30 8 vhcurveto
          15 5 rlineto
          47 13 24 11 60 vvcurveto
          93 -59 5 -83 -40 -55 -4 -6 -34 vhcurveto
          -75 vlineto
          3 28 50 2 26 hhcurveto
          49 16 0 -29 -18 -5 -4 -31 -8 hvcurveto
          -249 vmoveto
          -257 -19 -70 -249 hvcurveto
          -377 174 185 204 -185 174 377 vlineto
          249 -19 70 -257 vhcurveto
          102 -369 rmoveto
          -204 87 hlineto
          -83 callgsubr
          endchar
        </CharString>
        <CharString name="uni1EB3">
          -39 224 748 -79 callsubr
          -247 -751 -107 callgsubr
          endchar
        </CharString>
        <CharString name="uni1EB4">
          89 542 1096 -84 callgsubr
          10 -888 rmoveto
          -103 callgsubr
          endchar
        </CharString>
        <CharString name="uni1EB4.ss01">
          84 539 1096 -84 callgsubr
          -49 -888 rmoveto
          -105 callgsubr
          endchar
        </CharString>
        <CharString name="uni1EB5">
          -39 477 951 -84 callgsubr
          -247 -751 -107 callgsubr
          endchar
        </CharString>
        <CharString name="uni1EB6">
          89 499 888 -103 callsubr
          8 -888 rmoveto
          -103 callgsubr
          -79 -745 -89 callgsubr
        </CharString>
        <CharString name="uni1EB6.ss01">
          84 496 888 -103 callsubr
          -51 -888 rmoveto
          -105 callgsubr
          -187 -625 -89 callgsubr
        </CharString>
        <CharString name="uni1EB7">
          -39 434 743 -103 callsubr
          -249 -751 -107 callgsubr
          -65 -320 -89 callgsubr
        </CharString>
        <CharString name="uni1EB8">
          12 73 hmoveto
          -94 callsubr
          149 -899 -89 callgsubr
        </CharString>
        <CharString name="uni1EB9">
          -48 509 254 -104 callgsubr
          -90 -612 -89 callgsubr
        </CharString>
        <CharString name="uni1EBA">
          12 239 728 -106 callgsubr
          -166 -733 rmoveto
          -94 callsubr
          endchar
        </CharString>
        <CharString name="uni1EBB">
          -48 311 716 -95 callsubr
          198 -462 -104 callgsubr
          endchar
        </CharString>
        <CharString name="uni1EBC">
          12 502 888 -107 callsubr
          -429 -888 rmoveto
          -94 callsubr
          endchar
        </CharString>
        <CharString name="uni1EBD">
          -48 188 631 -91 callgsubr
          321 -377 -104 callgsubr
          endchar
        </CharString>
        <CharString name="uni1EBE">
          12 320 915 -82 callsubr
          -65 -749 rmoveto
          -94 callsubr
          endchar
        </CharString>
        <CharString name="uni1EBF">
          -48 381 916 rmoveto
          -74 callsubr
          -5 114 vlineto
          132 -23 callsubr
          vlineto
          -261 -239 -71 callgsubr
          72 -57 callsubr
        </CharString>
        <CharString name="uni1EC0">
          12 363 915 -92 callsubr
          -97 -314 -106 callsubr
          -61 -749 rmoveto
          -94 callsubr
          endchar
        </CharString>
        <CharString name="uni1EC1">
          -48 447 770 -70 callsubr
          -62 -93 -71 callgsubr
          302 -343 -104 callgsubr
          endchar
        </CharString>
        <CharString name="uni1EC2">
          12 350 908 -106 callgsubr
          -210 -171 -106 callsubr
          -67 -749 rmoveto
          -94 callsubr
          endchar
        </CharString>
        <CharString name="uni1EC3">
          -48 422 869 -95 callsubr
          -145 -192 -71 callgsubr
          70 -57 callsubr
        </CharString>
        <CharString name="uni1EC4">
          12 502 1061 -107 callsubr
          -364 -319 -106 callsubr
          -65 -749 rmoveto
          -94 callsubr
          endchar
        </CharString>
        <CharString name="uni1EC5">
          -48 188 804 -91 callgsubr
          13 -61 rmoveto
          -93 -139 rlineto
          -7 103 vlineto
          64 80 66 -80 rlineto
          104 7 hlineto
          -95 -63 callsubr
          159 -489 -104 callgsubr
          endchar
        </CharString>
        <CharString name="uni1EC6">
          12 140 742 -106 callsubr
          -67 -749 rmoveto
          -94 callsubr
          149 -899 -89 callgsubr
        </CharString>
        <CharString name="uni1EC7">
          -48 277 677 -71 callgsubr
          296 -343 -104 callgsubr
          -90 -612 -89 callgsubr
        </CharString>
        <CharString name="uni1EC8">
          -287 89 728 -106 callgsubr
          -18 -733 -61 callgsubr
        </CharString>
        <CharString name="uni1EC9">
          -318 73 609 -106 callgsubr
          -12 -614 -69 callsubr
          endchar
        </CharString>
        <CharString name="uni1ECA">
          -287 71 hmoveto
          -58 callgsubr
          1 -899 -89 callgsubr
        </CharString>
        <CharString name="uni1ECB">
          1 callgsubr
          1 -743 -69 callsubr
          3 -721 -89 callgsubr
        </CharString>
        <CharString name="uni1ECC">
          104 354 -8 -105 callsubr
          -86 -344 -89 callgsubr
        </CharString>
        <CharString name="uni1ECD">
          -33 285 -8 -104 callsubr
          -86 -328 -89 callgsubr
        </CharString>
        <CharString name="uni1ECE">
          104 285 728 -106 callgsubr
          69 -741 -105 callsubr
          endchar
        </CharString>
        <CharString name="uni1ECF">
          -33 216 609 -106 callgsubr
          69 -622 -104 callsubr
          endchar
        </CharString>
        <CharString name="uni1ED0">
          104 366 915 -82 callsubr
          170 -757 -105 callsubr
          endchar
        </CharString>
        <CharString name="uni1ED1">
          -33 297 770 -82 callsubr
          170 -612 -104 callsubr
          endchar
        </CharString>
        <CharString name="uni1ED2">
          104 409 915 -92 callsubr
          -97 -314 -106 callsubr
          174 -757 -105 callsubr
          endchar
        </CharString>
        <CharString name="uni1ED3">
          -33 340 770 -92 callsubr
          -97 -314 -106 callsubr
          174 -612 -104 callsubr
          endchar
        </CharString>
        <CharString name="uni1ED4">
          104 396 908 -106 callgsubr
          -210 -171 -106 callsubr
          168 -757 -105 callsubr
          endchar
        </CharString>
        <CharString name="uni1ED5">
          -33 327 762 -106 callgsubr
          -210 -170 -106 callsubr
          168 -612 -104 callsubr
          endchar
        </CharString>
        <CharString name="uni1ED6">
          104 548 1061 -107 callsubr
          -364 -319 -106 callsubr
          170 -757 -105 callsubr
          endchar
        </CharString>
        <CharString name="uni1ED7">
          -33 479 916 -107 callsubr
          -364 -319 -106 callsubr
          170 -612 -104 callsubr
          endchar
        </CharString>
        <CharString name="uni1ED8">
          104 186 742 -106 callsubr
          168 -757 -105 callsubr
          -86 -344 -89 callgsubr
        </CharString>
        <CharString name="uni1ED9">
          -33 117 597 -106 callsubr
          168 -612 -104 callsubr
          -86 -328 -89 callgsubr
        </CharString>
        <CharString name="uni1EDA">
          104 537 883 rmoveto
          -93 callgsubr
          -5 114 vlineto
          214 36 -91 callsubr
        </CharString>
        <CharString name="uni1EDB">
          -33 469 738 rmoveto
          -93 callgsubr
          -5 114 vlineto
          152 3 -88 callgsubr
        </CharString>
        <CharString name="uni1EDC">
          104 418 742 -70 callsubr
          315 36 -91 callsubr
        </CharString>
        <CharString name="uni1EDD">
          -33 349 597 -70 callsubr
          254 3 -88 callgsubr
        </CharString>
        <CharString name="uni1EDE">
          104 387 835 -95 callsubr
          232 -57 -91 callsubr
        </CharString>
        <CharString name="uni1EDF">
          -33 318 716 -95 callsubr
          171 -116 -88 callgsubr
        </CharString>
        <CharString name="uni1EE0">
          104 264 776 -91 callgsubr
          355 2 -91 callsubr
        </CharString>
        <CharString name="uni1EE1">
          -33 195 631 -91 callgsubr
          294 -31 -88 callgsubr
        </CharString>
        <CharString name="uni1EE2">
          104 619 778 -90 callgsubr
          -86 -344 -89 callgsubr
        </CharString>
        <CharString name="uni1EE3">
          -33 489 600 -88 callsubr
          -86 -328 -89 callgsubr
        </CharString>
        <CharString name="uni1EE4">
          84 445 688 rmoveto
          -414 vlineto
          -101 callsubr
          377 vlineto
          -361 -899 -89 callgsubr
        </CharString>
        <CharString name="uni1EE5">
          -14 375 hmoveto
          153 510 -161 -102 callsubr
          -183 -272 -89 callgsubr
        </CharString>
        <CharString name="uni1EE6">
          84 275 728 -106 callgsubr
          170 -45 rmoveto
          -414 vlineto
          -101 callsubr
          377 vlineto
          endchar
        </CharString>
        <CharString name="uni1EE7">
          -14 226 609 -106 callgsubr
          149 -614 rmoveto
          153 510 -161 -102 callsubr
          endchar
        </CharString>
        <CharString name="uni1EE8">
          84 527 883 rmoveto
          -93 callgsubr
          -5 114 vlineto
          211 36 rmoveto
          -25 vlineto
          -50 -7 -15 -57 vhcurveto
          -97 -414 hlineto
          -101 callsubr
          320 vlineto
          79 12 13 36 82 vvcurveto
          17 vlineto
          endchar
        </CharString>
        <CharString name="uni1EE9">
          -14 479 738 rmoveto
          -93 callgsubr
          -5 114 vlineto
          161 3 rmoveto
          -25 vlineto
          -50 -7 -15 -57 vhcurveto
          -77 -102 callsubr
          4 -61 rlineto
          153 454 hlineto
          73 13 12 36 80 vvcurveto
          17 vlineto
          endchar
        </CharString>
        <CharString name="uni1EEA">
          84 408 742 -70 callsubr
          312 36 rmoveto
          -25 vlineto
          -50 -7 -15 -57 vhcurveto
          -97 -414 hlineto
          -101 callsubr
          320 vlineto
          79 12 13 36 82 vvcurveto
          17 vlineto
          endchar
        </CharString>
        <CharString name="uni1EEB">
          -14 359 597 -70 callsubr
          263 3 rmoveto
          -25 vlineto
          -50 -7 -15 -57 vhcurveto
          -77 -102 callsubr
          4 -61 rlineto
          153 454 hlineto
          73 13 12 36 80 vvcurveto
          17 vlineto
          endchar
        </CharString>
        <CharString name="uni1EEC">
          84 377 835 -95 callsubr
          229 -57 rmoveto
          -25 vlineto
          -50 -7 -15 -57 vhcurveto
          -97 -414 hlineto
          -101 callsubr
          320 vlineto
          79 12 13 36 82 vvcurveto
          17 vlineto
          endchar
        </CharString>
        <CharString name="uni1EED">
          -14 328 716 -95 callsubr
          180 -116 rmoveto
          -25 vlineto
          -50 -7 -15 -57 vhcurveto
          -77 -102 callsubr
          4 -61 rlineto
          153 454 hlineto
          73 13 12 36 80 vvcurveto
          17 vlineto
          endchar
        </CharString>
        <CharString name="uni1EEE">
          84 254 776 -91 callgsubr
          352 2 rmoveto
          -25 vlineto
          -50 -7 -15 -57 vhcurveto
          -97 -414 hlineto
          -101 callsubr
          320 vlineto
          79 12 13 36 82 vvcurveto
          17 vlineto
          endchar
        </CharString>
        <CharString name="uni1EEF">
          -14 205 631 -91 callgsubr
          303 -31 rmoveto
          -25 vlineto
          -50 -7 -15 -57 vhcurveto
          -77 -102 callsubr
          4 -61 rlineto
          153 454 hlineto
          73 13 12 36 80 vvcurveto
          17 vlineto
          endchar
        </CharString>
        <CharString name="uni1EF0">
          84 606 778 rmoveto
          -25 vlineto
          -50 -7 -15 -57 vhcurveto
          -97 -414 hlineto
          -101 callsubr
          320 vlineto
          79 12 13 36 82 vvcurveto
          17 vlineto
          -453 -989 -89 callgsubr
        </CharString>
        <CharString name="uni1EF1">
          -14 508 600 rmoveto
          -25 vlineto
          -50 -7 -15 -57 vhcurveto
          -77 -102 callsubr
          4 -61 rlineto
          153 454 hlineto
          73 13 12 36 80 vvcurveto
          17 vlineto
          -425 -811 -89 callgsubr
        </CharString>
        <CharString name="uni1EF4">
          32 230 hmoveto
          -85 callgsubr
          1 -445 -89 callgsubr
        </CharString>
        <CharString name="uni1EF4.loclGUA">
          33 420 688 -93 callsubr
          -363 -899 -89 callgsubr
        </CharString>
        <CharString name="uni1EF5">
          -14 276 -206 -99 callsubr
          -86 -211 -89 callgsubr
        </CharString>
        <CharString name="uni1EF5.loclGUA">
          -55 327 -189 rmoveto
          207 699 rlineto
          -161 hlineto
          -92 -362 rlineto
          -10 hlineto
          -94 362 rlineto
          -164 hlineto
          152 -510 rlineto
          55 hlineto
          -55 -189 rlineto
          32 -211 -89 callgsubr
        </CharString>
        <CharString name="uni1EF6">
          32 248 728 -106 callgsubr
          -18 -733 rmoveto
          -85 callgsubr
          endchar
        </CharString>
        <CharString name="uni1EF6.loclGUA">
          33 350 835 -95 callsubr
          70 -147 -93 callsubr
          endchar
        </CharString>
        <CharString name="uni1EF7">
          -14 226 609 -106 callgsubr
          50 -820 -99 callsubr
          endchar
        </CharString>
        <CharString name="uni1EF7.loclGUA">
          -55 319 716 -95 callsubr
          54 -206 -85 callsubr
        </CharString>
        <CharString name="uni1EF8">
          32 511 888 -107 callsubr
          -281 -888 rmoveto
          -85 callgsubr
          endchar
        </CharString>
        <CharString name="uni1EF8.loclGUA">
          33 227 776 -91 callgsubr
          193 -88 -93 callsubr
          endchar
        </CharString>
        <CharString name="uni1EF9">
          -14 489 743 -107 callsubr
          -213 -949 -99 callsubr
          endchar
        </CharString>
        <CharString name="uni1EF9.loclGUA">
          -55 196 631 -91 callgsubr
          177 -121 -85 callsubr
        </CharString>
        <CharString name="uni2002">
          -303 endchar
        </CharString>
        <CharString name="uni20B2">
          13 310 394 rmoveto
          -104 78 -20 vlineto
          -59 -3 -4 -78 -68 -12 8 129 138 5 3 129 35 64 -6 -8 70 vhcurveto
          -44 callgsubr
          endchar
        </CharString>
        <CharString name="uni20B2.bold">
          13 373 394 rmoveto
          91 vlineto
          37 -1 57 -6 63 -7 rrcurveto
          -44 callgsubr
          -330 -50 rmoveto
          81 2 34 27 15 vhcurveto
          -260 vlineto
          -24 12 -5 32 86 vvcurveto
          161 -74 rmoveto
          -33 -1 -15 -14 -8 vhcurveto
          76 15 vlineto
          endchar
        </CharString>
        <CharString name="uni2113">
          -78 238 187 rmoveto
          156 54 80 129 141 vvcurveto
          111 -57 72 -118 -163 -80 -98 -269 vhcurveto
          -11 0 -10 -11 vvcurveto
          -49 -138 hlineto
          21 -1 22 1 21 1 rrcurveto
          -121 28 68 -44 122 hhcurveto
          56 42 9 18 54 hvcurveto
          147 vlineto
          -28 -68 -37 -7 -31 hhcurveto
          -35 -21 13 42 -11 hvcurveto
          57 370 rmoveto
          20 12 -16 -29 -74 -39 -60 -62 -38 hvcurveto
          3 vlineto
          146 15 68 54 vhcurveto
          endchar
        </CharString>
        <CharString name="uni2116">
          460 863 -30 callgsubr
          -383 -397 rmoveto
          -82 callgsubr
          621 74 rmoveto
          -9 callsubr
          -128 -274 rmoveto
          257 119 -257 hlineto
          endchar
        </CharString>
        <CharString name="uni2126">
          -68 callgsubr
        </CharString>
        <CharString name="uni2153">
          204 -57 callgsubr
          -22 -573 rmoveto
          -45 callgsubr
          -101 hlineto
          -49 -600 rmoveto
          -24 callsubr
          -22 25 -34 11 hvcurveto
          -22 callgsubr
          26 hhcurveto
          48 10 -3 -30 -28 -10 -28 callgsubr
          -24 -43 3 4 -49 hvcurveto
          endchar
        </CharString>
        <CharString name="uni2154">
          268 322 405 rmoveto
          -178 8 hlineto
          -56 callsubr
          vlineto
          278 374 rmoveto
          -447 -688 rlineto
          -45 callgsubr
          66 -499 rmoveto
          -22 callgsubr
          27 hhcurveto
          47 11 -3 -30 -28 -11 -28 callgsubr
          -23 -44 3 4 -49 hvcurveto
          -24 callsubr
          -21 25 -35 11 hvcurveto
          endchar
        </CharString>
        <CharString name="uni2206">
          -36 callgsubr
        </CharString>
        <CharString name="uniA78B">
          0 callsubr
          172 -143 vlineto
          endchar
        </CharString>
        <CharString name="uniA78C">
          0 callsubr
          227 -143 vlineto
          endchar
        </CharString>
        <CharString name="uniF8FF">
          238 72 hmoveto
          697 698 -697 hlineto
          546 -316 rmoveto
          -66 vlineto
          -100 -72 -81 -124 -125 -73 81 100 vhcurveto
          66 vlineto
          100 73 81 125 124 72 -81 -100 vhcurveto
          -135 -92 rmoveto
          118 vlineto
          33 -27 27 -34 -35 -27 -27 -33 vhcurveto
          -118 vlineto
          -33 27 -27 35 34 27 27 33 vhcurveto
          endchar
        </CharString>
        <CharString name="uogonek">
          -14 528 hmoveto
          510 -161 -266 vlineto
          -100 callgsubr
          4 -61 rlineto
          21 hlineto
          -36 -33 -26 -39 -41 vvcurveto
          -44 27 -39 99 26 22 2 1 20 vhcurveto
          -10 callgsubr
          -35 -11 15 17 32 38 33 26 14 hvcurveto
          endchar
        </CharString>
        <CharString name="uring">
          -14 293 593 -90 callsubr
          82 -659 rmoveto
          153 510 -161 -102 callsubr
          endchar
        </CharString>
        <CharString name="utilde">
          -14 489 743 -107 callsubr
          -114 -743 rmoveto
          153 510 -161 -102 callsubr
          endchar
        </CharString>
        <CharString name="v">
          -55 165 hmoveto
          217 hlineto
          152 510 rlineto
          -161 hlineto
          -92 -362 rlineto
          -10 hlineto
          -94 362 rlineto
          -164 hlineto
          endchar
        </CharString>
        <CharString name="w">
          237 495 hmoveto
          -81 callgsubr
        </CharString>
        <CharString name="wacute">
          237 358 597 -102 callgsubr
          137 -602 rmoveto
          -81 callgsubr
        </CharString>
        <CharString name="wcircumflex">
          237 252 597 -106 callsubr
          243 -604 rmoveto
          -81 callgsubr
        </CharString>
        <CharString name="wdieresis">
          237 251 -72 callgsubr
          38 -730 rmoveto
          -81 callgsubr
        </CharString>
        <CharString name="wgrave">
          237 370 597 -92 callsubr
          257 -738 rmoveto
          -81 callgsubr
        </CharString>
        <CharString name="x">
          -37 377 hmoveto
          177 hlineto
          -171 260 163 250 rlineto
          -167 hlineto
          -88 -142 rlineto
          -7 hlineto
          -90 142 rlineto
          -176 hlineto
          163 -250 -169 -260 rlineto
          167 hlineto
          94 151 rlineto
          8 hlineto
          endchar
        </CharString>
        <CharString name="y">
          -14 276 -206 -99 callsubr
          endchar
        </CharString>
        <CharString name="y.loclGUA">
          -55 373 510 -85 callsubr
        </CharString>
        <CharString name="yacute">
          -14 234 597 -102 callgsubr
          42 -808 -99 callsubr
          endchar
        </CharString>
        <CharString name="yacute.loclGUA">
          -55 470 738 rmoveto
          -93 callgsubr
          -5 114 vlineto
          35 -87 -85 callsubr
        </CharString>
        <CharString name="ycircumflex">
          -14 127 597 -106 callsubr
          149 -810 -99 callsubr
          endchar
        </CharString>
        <CharString name="ycircumflex.loclGUA">
          -55 285 677 -71 callgsubr
          152 -87 -85 callsubr
        </CharString>
        <CharString name="ydieresis">
          -14 126 -72 callgsubr
          -56 -936 -99 callsubr
          endchar
        </CharString>
        <CharString name="ydieresis.loclGUA">
          -55 248 730 -39 callgsubr
          206 111 -39 callgsubr
          -81 -109 -85 callsubr
        </CharString>
        <CharString name="yen">
          25 226 hmoveto
          12 callgsubr
          37 66 rlineto
          124 86 -85 hlineto
          114 242 rlineto
          -170 hlineto
          -119 -282 rlineto
          -7 hlineto
          -118 282 rlineto
          -175 hlineto
          114 -242 rlineto
          -85 -86 123 hlineto
          38 -66 rlineto
          -161 -86 178 hlineto
          endchar
        </CharString>
        <CharString name="yen.bold">
          25 608 688 rmoveto
          -170 hlineto
          -102 -242 rlineto
          -41 hlineto
          -101 242 rlineto
          -175 hlineto
          117 -242 rlineto
          -88 -86 129 hlineto
          32 -66 rlineto
          -161 -86 178 -208 12 callgsubr
          32 66 rlineto
          129 86 -88 hlineto
          endchar
        </CharString>
        <CharString name="ygrave">
          -14 245 597 -92 callsubr
          163 -944 -99 callsubr
          endchar
        </CharString>
        <CharString name="ygrave.loclGUA">
          -55 350 597 -70 callsubr
          137 -87 -85 callsubr
        </CharString>
        <CharString name="z">
          -79 43 hmoveto
          -84 callsubr
          endchar
        </CharString>
        <CharString name="zacute">
          -79 200 597 -102 callgsubr
          -157 -602 rmoveto
          -84 callsubr
          endchar
        </CharString>
        <CharString name="zacute.loclPLK">
          -79 200 597 -73 callsubr
          -157 -602 rmoveto
          -84 callsubr
          endchar
        </CharString>
        <CharString name="zcaron">
          -79 194 597 -98 callgsubr
          -58 -736 rmoveto
          -84 callsubr
          endchar
        </CharString>
        <CharString name="zdotaccent">
          -79 196 -48 callgsubr
          -153 -730 rmoveto
          -84 callsubr
          endchar
        </CharString>
        <CharString name="zero">
          57 330 -8 rmoveto
          257 18 55 297 297 -18 55 -257 -258 -17 -55 -297 -297 17 -55 258 hvcurveto
          138 vmoveto
          -98 -3 4 210 210 3 4 98 98 3 -4 -210 -210 -3 -4 -98 hvcurveto
          endchar
        </CharString>
        <CharString name="zero.dnom">
          -225 189 -4 -50 callsubr
        </CharString>
        <CharString name="zero.numr">
          -225 189 304 -50 callsubr
        </CharString>
        <CharString name="zero.tnum">
          -32 callgsubr
          137 vmoveto
          -95 -2 5 210 211 2 3 95 94 2 -5 -209 -211 -2 -4 -94 hvcurveto
          endchar
        </CharString>
        <CharString name="zero.zero">
          -32 callgsubr
          -101 410 rmoveto
          151 1 10 5 90 hhcurveto
          89 9 -5 -151 1 hvcurveto
          -99 -273 rmoveto
          -90 -10 4 152 -1 hvcurveto
          200 hlineto
          -152 -1 -9 -4 -89 hhcurveto
          endchar
        </CharString>
      <CharString index="0">
        rmoveto
        54 59 6 61 38 hvcurveto
        8 hlineto
        4 -59 rlineto
        154 307 hlineto
        143 -19 68 -215 -75 -70 -7 -10 -55 -59 callgsubr
        4 37 67 4 45 hhcurveto
        109 15 -3 -74 hvcurveto
        -18 vlineto
        2 -46 -72 2 -23 hhcurveto
        -129 -33 -41 -115 -112 50 -42 97 hvcurveto
        76 117 rmoveto
        -63 -8 10 42 50 9 7 51 hvcurveto
        91 -20 hlineto
        -28 -3 -20 -8 -14 vhcurveto
        -20 -12 -21 -7 -36 hhcurveto
        return
      </CharString>
      <CharString index="1">
        rmoveto
        85 hlineto
        16 3 5 30 8 vhcurveto
        15 5 rlineto
        47 13 24 11 60 vvcurveto
        93 -59 5 -83 -40 -55 -4 -6 -34 vhcurveto
        -75 vlineto
        3 28 50 2 26 hhcurveto
        49 16 0 -29 -18 -5 -4 -31 -8 hvcurveto
        -18 -5 rlineto
        -39 -10 -9 -11 -46 vvcurveto
        return
      </CharString>
      <CharString index="2">
        174 377 hlineto
        249 -19 70 -257 -257 -19 -70 -249 vhcurveto
        -377 174 185 204 vlineto
        229 vmoveto
        -87 -204 87 vlineto
        -83 callgsubr
        return
      </CharString>
      <CharString index="3">
        rmoveto
        191 -5 73 -221 -8 callsubr
        vhcurveto
        -99 callgsubr
        return
      </CharString>
      <CharString index="4">
        177 hlineto
        -220 688 rlineto
        -236 hlineto
        -220 -688 -18 callgsubr
        hlineto
        39 130 rlineto
        245 hlineto
        -121 404 rmoveto
        80 -263 rlineto
        -164 hlineto
        79 263 rlineto
        return
      </CharString>
      <CharString index="5">
        rmoveto
        114 hlineto
        132 141 rlineto
        -93 callgsubr
        return
      </CharString>
      <CharString index="6">
        rmoveto
        240 16 85 179 hvcurveto
        452 -153 vlineto
        -4 -61 rlineto
        -8 hlineto
        57 -31 -58 12 -55 hhcurveto
        -120 -48 -55 -203 -201 47 -56 121 59 51 10 52 31 hvcurveto
        7 -37 hlineto
        -97 -6 -12 -130 -44 -54 1 1 -41 -9 callgsubr
        vlineto
        -7 40 75 -6 65 hhcurveto
        18 344 12 callsubr
        113 113 7 9 71 38 19 -7 -25 9 hvcurveto
        10 -19 1 -30 -41 vvcurveto
        -43 -1 -29 -10 -20 vhcurveto
        -23 -10 -18 -7 -38 hhcurveto
        endchar
      </CharString>
      <CharString index="7">
        -92 -7 -23 -68 -64 -6 6 106 vhcurveto
        269 -161 -319 vlineto
        -128 19 -71 135 65 53 18 51 29 vhcurveto
        9 hlineto
        return
      </CharString>
      <CharString index="8">
        115 vlineto
        -5 -51 -63 -3 -39 -19 callsubr
        -64 callgsubr
        hlineto
        -227 186 rmoveto
        62 14 -8 -95 hvcurveto
        -154 hlineto
        91 9 12 69 vhcurveto
        return
      </CharString>
      <CharString index="9">
        rmoveto
        149 hlineto
        95 -63 callsubr
        7 -104 vlineto
        -64 -80 -66 80 rlineto
        -103 -7 hlineto
        return
      </CharString>
      <CharString index="10">
        rmoveto
        5 vlineto
        -79 118 rlineto
        -128 -4 hlineto
        112 -119 rlineto
        284 hmoveto
        5 vlineto
        -77 118 rlineto
        -128 -4 hlineto
        111 -119 rlineto
        return
      </CharString>
      <CharString index="11">
        rmoveto
        132 30 38 68 61 -25 19 -46 11 hvcurveto
        2 vlineto
        45 10 22 24 55 vvcurveto
        68 -37 33 -121 -121 -37 -33 -68 -55 22 -24 45 -10 vhcurveto
        -2 vlineto
        -45 -11 -25 -19 -61 vvcurveto
        -68 29 -38 132 vhcurveto
        229 vmoveto
        -47 -9 5 36 38 8 6 48 48 8 -6 -38 -36 -8 -5 -48 hvcurveto
        -155 vmoveto
        -47 -12 5 39 40 10 5 49 49 10 -5 -40 -39 -11 -5 -48 hvcurveto
        endchar
      </CharString>
      <CharString index="12">
        rmoveto
        261 4 72 203 hvcurveto
        142 -272 -130 102 -30 vlineto
        -115 -3 -7 -102 -108 -18 13 204 210 21 4 183 33 67 -5 -8 70 vhcurveto
        128 vlineto
        13 -67 -96 10 -69 hhcurveto
        -257 -57 -75 -277 -277 39 -75 269 hvcurveto
        return
      </CharString>
      <CharString index="13">
        rmoveto
        -6 103 -36 24 -69 17 rrcurveto
        4 vlineto
        76 20 42 38 123 vvcurveto
        123 -50 65 -138 vhcurveto
        -362 -688 174 243 106 hlineto
        80 5 -27 -64 5 hvcurveto
        11 -152 rlineto
        173 hlineto
        -277 379 rmoveto
        -103 171 104 hlineto
        87 8 -14 -72 -70 -11 -15 -85 hvcurveto
        return
      </CharString>
      <CharString index="14">
        -23 callgsubr
        -74 callsubr
        return
      </CharString>
      <CharString index="15">
        rmoveto
        131 111 -131 hlineto
        206 -111 rmoveto
        131 111 -131 hlineto
        return
      </CharString>
      <CharString index="16">
        rmoveto
        19 26 -6 -7 30 hvcurveto
        -8 35 42 -10 40 hhcurveto
        89 3 52 91 hvcurveto
        -80 hlineto
        -32 0 -11 -25 -19 -27 7 6 -29 vhcurveto
        9 -36 -41 -97 callsubr
        vhcurveto
        return
      </CharString>
      <CharString index="17">
        rmoveto
        -25 vlineto
        -50 -7 -15 -57 vhcurveto
        -52 -4 hlineto
        8 -39 -49 4 -61 9 callsubr
        -272 7 -80 292 291 7 80 272 142 -2 89 -43 54 hvcurveto
        102 7 15 35 90 vvcurveto
        17 vlineto
        -370 -645 -76 callgsubr
        return
      </CharString>
      <CharString index="18">
        rmoveto
        171 149 -171 hlineto
        endchar
      </CharString>
      <CharString index="19">
        -88 callsubr
        endchar
      </CharString>
      <CharString index="20">
        rmoveto
        -50 callgsubr
        30 120 hvcurveto
        80 -162 -119 60 -11 vlineto
        -31 -11 -7 -56 vhcurveto
        endchar
      </CharString>
      <CharString index="21">
        rmoveto
        134 vlineto
        -6 -39 -57 -4 -43 hhcurveto
        -155 -6 17 194 194 6 17 155 26 48 -4 -6 61 hvcurveto
        132 vlineto
        11 -44 -74 8 -60 hhcurveto
        -260 -34 -90 -262 -267 34 -85 260 60 76 7 10 46 hvcurveto
        endchar
      </CharString>
      <CharString index="22">
        174 234 hlineto
        229 454 rlineto
        -176 hlineto
        -134 -284 rlineto
        -7 hlineto
        -135 284 rlineto
        -180 hlineto
        229 -454 rlineto
        return
      </CharString>
      <CharString index="23">
        -107 callsubr
        -45 -208 -103 callsubr
        return
      </CharString>
      <CharString index="24">
        128 3 15 99 99 3 -15 -128 vhcurveto
        return
      </CharString>
      <CharString index="25">
        163 688 -167 -357 -5 hlineto
        -221 357 rlineto
        -179 -688 166 393 5 hlineto
        return
      </CharString>
      <CharString index="26">
        197 hlineto
        130 510 rlineto
        -157 hlineto
        -70 -345 rlineto
        -10 hlineto
        -90 345 rlineto
        -147 hlineto
        -89 -345 rlineto
        -9 hlineto
        -72 345 rlineto
        -160 hlineto
        129 -510 rlineto
        198 hlineto
        70 259 rlineto
        9 hlineto
        endchar
      </CharString>
      <CharString index="27">
        rmoveto
        94 hlineto
        111 119 rlineto
        4 -128 vlineto
        -77 -118 rlineto
        189 -5 rmoveto
        95 hlineto
        112 119 rlineto
        4 -128 vlineto
        -79 -118 rlineto
        return
      </CharString>
      <CharString index="28">
        533 141 -319 hlineto
        318 416 rlineto
        131 -520 -141 303 vlineto
        -315 -411 rlineto
        return
      </CharString>
      <CharString index="29">
        161 189 hlineto
        138 38 39 126 vhcurveto
        152 vlineto
        -81 -51 -21 -74 -27 hvcurveto
        -9 hlineto
        -4 87 -13 callsubr
        hlineto
        return
      </CharString>
      <CharString index="30">
        rmoveto
        201 44 18 186 hvcurveto
        506 -163 -542 vlineto
        -38 -5 -14 -77 vhcurveto
        endchar
      </CharString>
      <CharString index="31">
        rmoveto
        -119 -4 5 206 206 4 5 119 119 2 -5 -206 -206 -2 -5 -119 hvcurveto
        return
      </CharString>
      <CharString index="32">
        742 -102 callgsubr
        return
      </CharString>
      <CharString index="33">
        162 385 121 125 -121 55 hlineto
        58 11 5 110 vhcurveto
        114 vlineto
        -233 -50 -5 -195 hvcurveto
        -32 -93 -125 93 vlineto
        return
      </CharString>
      <CharString index="34">
        rmoveto
        -130 vlineto
        301 12 11 300 hvcurveto
        377 -174 -423 vlineto
        -127 -2 -7 -137 -1 vhcurveto
        endchar
      </CharString>
      <CharString index="35">
        619 -92 callgsubr
        return
      </CharString>
      <CharString index="36">
        rmoveto
        66 -80 rlineto
        104 7 hlineto
        -95 -63 callsubr
        -149 hlineto
        -93 -139 rlineto
        -7 103 vlineto
        return
      </CharString>
      <CharString index="37">
        rmoveto
        -73 vlineto
        -6 38 52 -5 36 hhcurveto
        128 30 41 89 71 -22 43 -98 -26 -25 -1 -3 -20 hvcurveto
        64 163 80 -252 -222 vlineto
        3 34 43 3 29 hhcurveto
        60 11 -6 -39 -40 -10 -5 -59 -28 -48 3 3 -36 hvcurveto
        return
      </CharString>
      <CharString index="38">
        rmoveto
        275 133 -275 hlineto
        return
      </CharString>
      <CharString index="39">
        101 55 hmoveto
        249 132 hlineto
        -63 12 -8 77 132 vvcurveto
        192 4 13 115 114 5 -14 -191 -132 -8 -77 -63 -12 vhcurveto
        -132 249 138 -15 vlineto
        -39 -12 -39 -12 -39 -11 rrcurveto
        7 vlineto
        90 38 40 87 149 vvcurveto
        205 -13 107 -282 -283 -12 -107 -205 -149 39 -87 91 -38 vhcurveto
        -7 vlineto
        -39 11 -39 12 -40 12 rrcurveto
        -14 hlineto
        endchar
      </CharString>
      <CharString index="40">
        -105 259 -8 -98 callsubr
        return
      </CharString>
      <CharString index="41">
        rmoveto
        28 20 3 33 49 vvcurveto
        89 -9 37 -143 -141 -9 -37 -89 -50 2 -33 29 -20 vhcurveto
        -218 -686 -18 callgsubr
        hlineto
        39 130 rlineto
        245 hlineto
        41 -130 rlineto
        177 hlineto
        -339 843 rmoveto
        63 0 -12 -42 -43 0 -11 -63 -61 0 11 43 42 0 12 61 hvcurveto
        -84 -572 rmoveto
        79 263 rlineto
        5 hlineto
        80 -263 rlineto
        endchar
      </CharString>
      <CharString index="42">
        rmoveto
        127 hlineto
        30 51 rlineto
        -3 23 27 -1 33 hhcurveto
        -31 callgsubr
        58 205 117 -4 69 -45 38 hvcurveto
        49 86 rlineto
        -128 hlineto
        -29 -52 rlineto
        3 -24 -27 2 -33 8 callsubr
        -117 4 -69 46 -38 hvcurveto
        191 86 -43 callgsubr
      </CharString>
      <CharString index="43">
        -7 9 89 hvcurveto
        305 return
      </CharString>
      <CharString index="44">
        rmoveto
        172 148 -172 hlineto
        53 -696 rmoveto
        64 85 8 11 57 hvcurveto
        130 vlineto
        -7 -47 -68 -4 -42 hhcurveto
        -71 -24 2 57 50 7 6 47 14 hvcurveto
        28 10 rlineto
        46 16 23 22 80 vvcurveto
        66 -143 -29 vlineto
        -56 -3 1 -47 -16 vhcurveto
        -43 -14 rlineto
        -60 -21 -25 -42 -96 vvcurveto
        -143 63 -45 153 vhcurveto
        endchar
      </CharString>
      <CharString index="45">
        -12 callsubr
        -63 -51 -17 -50 -30 vhcurveto
        -8 292 -161 -743 161 266 hlineto
        92 7 23 68 64 6 -6 -106 vhcurveto
        return
      </CharString>
      <CharString index="46">
        rmoveto
        -59 callsubr
      </CharString>
      <CharString index="47">
        72 614 171 -94 callgsubr
        return
      </CharString>
      <CharString index="48">
        vhcurveto
        -116 vlineto
        return
      </CharString>
      <CharString index="49">
        -52 callgsubr
        hlineto
        return
      </CharString>
      <CharString index="50">
        102 314 rmoveto
        108 374 -72 hlineto
        -103 -52 rlineto
        -91 vlineto
        67 28 rlineto
        return
      </CharString>
      <CharString index="51">
        46 rmoveto
        99 62 67 110 126 vvcurveto
        125 -67 111 -99 62 vhcurveto
        -32 -51 rlineto
        82 -51 56 -92 -104 vvcurveto
        -105 -55 -91 -83 -52 vhcurveto
        -31 51 rmoveto
        65 41 44 73 83 vvcurveto
        83 -44 73 -66 41 vhcurveto
        -32 -51 rlineto
        49 -31 33 -54 -61 vvcurveto
        -62 -33 -53 -48 -31 vhcurveto
        return
      </CharString>
      <CharString index="52">
        443 141 -296 hlineto
        -22 136 rlineto
        270 140 -291 hlineto
        -22 130 rlineto
        361 141 -617 hlineto
        -324 -688 rlineto
        172 hlineto
        61 131 rlineto
        244 hlineto
        -59 407 rmoveto
        40 -267 rlineto
        -166 hlineto
        120 267 rlineto
        endchar
      </CharString>
      <CharString index="53">
        rmoveto
        32 51 rlineto
        -48 31 -33 53 62 vvcurveto
        61 33 54 49 31 vhcurveto
        -32 51 rlineto
        -66 -41 -44 -73 -83 vvcurveto
        -83 44 -73 65 -41 vhcurveto
        return
      </CharString>
      <CharString index="54">
        163 385 110 125 -110 148 -163 -148 -92 -125 92 hlineto
        return
      </CharString>
      <CharString index="55">
        -36 callsubr
        -174 return
      </CharString>
      <CharString index="56">
        447 148 -273 540 -174 hlineto
        return
      </CharString>
      <CharString index="57">
        -62 vlineto
        150 19 return
      </CharString>
      <CharString index="58">
        rmoveto
        63 0 -25 -37 hvcurveto
        88 hlineto
        88 -17 62 -134 -134 -19 -62 -88 vhcurveto
        89 hlineto
        37 1 25 63 vhcurveto
        return
      </CharString>
      <CharString index="59">
        619 rmoveto
        131 111 -131 hlineto
        return
      </CharString>
      <CharString index="60">
        rmoveto
        8 callgsubr
        return
      </CharString>
      <CharString index="61">
        -32 380 hmoveto
        179 hlineto
        -175 267 172 243 rlineto
        -172 hlineto
        -132 -193 rlineto
        -30 return
      </CharString>
      <CharString index="62">
        102 hlineto
        447 688 rlineto
        return
      </CharString>
      <CharString index="63">
        124 vlineto
        -45 10 -59 7 -53 3 rrcurveto
        81 -117 -81 vlineto
        -163 -12 -38 -66 -193 vvcurveto
        -192 36 -67 165 -11 vhcurveto
        -82 117 81 vlineto
        172 10 12 60 144 vvcurveto
        107 vlineto
        return
      </CharString>
      <CharString index="64">
        rmoveto
        -42 callsubr
      </CharString>
      <CharString index="65">
        -8 rmoveto
        233 51 73 119 114 -43 32 -81 19 hvcurveto
        4 vlineto
        80 18 38 44 100 vvcurveto
        118 -63 63 -215 -216 -63 -63 -118 -100 38 -44 80 -18 vhcurveto
        -4 vlineto
        return
      </CharString>
      <CharString index="66">
        rmoveto
        162 139 -60 16 hlineto
        51 11 13 56 vhcurveto
        62 vlineto
        -150 -19 -36 -140 hvcurveto
        return
      </CharString>
      <CharString index="67">
        174 540 191 148 -555 -148 190 hlineto
        return
      </CharString>
      <CharString index="68">
        rmoveto
        -131 -111 131 hlineto
        return
      </CharString>
</ttFont>
